<svg xmlns="http://www.w3.org/2000/svg" xmlns:xlink="http://www.w3.org/1999/xlink" width="320" zoomAndPan="magnify" viewBox="0 0 240 233.249991" height="311" preserveAspectRatio="xMidYMid meet" version="1.0"><defs><g/><clipPath id="8f1ea7b9fb"><path d="M 0.382812 0 L 232.484375 0 L 232.484375 232.101562 L 0.382812 232.101562 Z M 0.382812 0 " clip-rule="nonzero"/></clipPath><clipPath id="86240570db"><path d="M 75.144531 0 L 157.726562 0 C 177.554688 0 196.570312 7.875 210.589844 21.898438 C 224.609375 35.917969 232.484375 54.933594 232.484375 74.757812 L 232.484375 157.339844 C 232.484375 177.167969 224.609375 196.183594 210.589844 210.203125 C 196.570312 224.222656 177.554688 232.101562 157.726562 232.101562 L 75.144531 232.101562 C 55.316406 232.101562 36.300781 224.222656 22.28125 210.203125 C 8.261719 196.183594 0.382812 177.167969 0.382812 157.339844 L 0.382812 74.757812 C 0.382812 54.933594 8.261719 35.917969 22.28125 21.898438 C 36.300781 7.875 55.316406 0 75.144531 0 Z M 75.144531 0 " clip-rule="nonzero"/></clipPath><clipPath id="e23175a696"><path d="M 0.382812 0 L 232.484375 0 L 232.484375 232.101562 L 0.382812 232.101562 Z M 0.382812 0 " clip-rule="nonzero"/></clipPath><clipPath id="8ef9cec808"><path d="M 75.144531 0 L 157.726562 0 C 177.554688 0 196.570312 7.875 210.589844 21.898438 C 224.609375 35.917969 232.484375 54.933594 232.484375 74.757812 L 232.484375 157.339844 C 232.484375 177.167969 224.609375 196.183594 210.589844 210.203125 C 196.570312 224.222656 177.554688 232.101562 157.726562 232.101562 L 75.144531 232.101562 C 55.316406 232.101562 36.300781 224.222656 22.28125 210.203125 C 8.261719 196.183594 0.382812 177.167969 0.382812 157.339844 L 0.382812 74.757812 C 0.382812 54.933594 8.261719 35.917969 22.28125 21.898438 C 36.300781 7.875 55.316406 0 75.144531 0 Z M 75.144531 0 " clip-rule="nonzero"/></clipPath><clipPath id="b297ce3104"><rect x="0" width="233" y="0" height="233"/></clipPath><clipPath id="edb659600b"><path d="M 0.914062 24 L 68 24 L 68 72.097656 L 0.914062 72.097656 Z M 0.914062 24 " clip-rule="nonzero"/></clipPath><clipPath id="4b79cc05c3"><path d="M 70 24 L 96.398438 24 L 96.398438 72.097656 L 70 72.097656 Z M 70 24 " clip-rule="nonzero"/></clipPath><clipPath id="8222730241"><path d="M 46 0.96875 L 91 0.96875 L 91 22 L 46 22 Z M 46 0.96875 " clip-rule="nonzero"/></clipPath><clipPath id="75b2a7a32a"><path d="M 99 4 L 195.019531 4 L 195.019531 86 L 99 86 Z M 99 4 " clip-rule="nonzero"/></clipPath><clipPath id="43e99f825c"><rect x="0" width="97" y="0" height="82"/></clipPath><clipPath id="9e0c566610"><path d="M 5 81 L 190 81 L 190 102.785156 L 5 102.785156 Z M 5 81 " clip-rule="nonzero"/></clipPath><clipPath id="3fa2925419"><path d="M 0.0703125 1 L 13 1 L 13 16 L 0.0703125 16 Z M 0.0703125 1 " clip-rule="nonzero"/></clipPath><clipPath id="fa7e567bde"><path d="M 98 0.015625 L 109 0.015625 L 109 16 L 98 16 Z M 98 0.015625 " clip-rule="nonzero"/></clipPath><clipPath id="97cf64d4df"><path d="M 155 0.015625 L 166 0.015625 L 166 16 L 155 16 Z M 155 0.015625 " clip-rule="nonzero"/></clipPath><clipPath id="c85f8ed3dd"><path d="M 177 6 L 184.992188 6 L 184.992188 16 L 177 16 Z M 177 6 " clip-rule="nonzero"/></clipPath><clipPath id="29d6884d72"><rect x="0" width="185" y="0" height="22"/></clipPath><clipPath id="2857df7fa0"><rect x="0" width="196" y="0" height="103"/></clipPath></defs><g clip-path="url(#8f1ea7b9fb)"><g clip-path="url(#86240570db)"><g transform="matrix(1, 0, 0, 1, -0.000000000000000056, 0)"><g clip-path="url(#b297ce3104)"><g clip-path="url(#e23175a696)"><g clip-path="url(#8ef9cec808)"><path fill="#1a56db" d="M 0.382812 0 L 232.484375 0 L 232.484375 232.101562 L 0.382812 232.101562 Z M 0.382812 0 " fill-opacity="1" fill-rule="nonzero"/></g></g></g></g></g></g><g transform="matrix(1, 0, 0, 1, 19, 63)"><g clip-path="url(#2857df7fa0)"><g clip-path="url(#edb659600b)"><path fill="#ffffff" d="M 2.847656 24.984375 C 2.730469 24.984375 2.621094 25.011719 2.519531 25.070312 C 2.414062 25.125 2.335938 25.207031 2.273438 25.304688 C 2.214844 25.40625 2.179688 25.515625 2.179688 25.632812 C 2.175781 25.75 2.203125 25.863281 2.257812 25.964844 L 4.269531 29.75 C 4.59375 30.355469 4.757812 31 4.757812 31.683594 C 4.757812 32.371094 4.59375 33.015625 4.269531 33.621094 L 0.988281 39.78125 C 0.878906 39.988281 0.878906 40.199219 0.988281 40.40625 L 4.273438 46.578125 C 4.597656 47.183594 4.757812 47.828125 4.757812 48.507812 C 4.757812 49.191406 4.597656 49.835938 4.273438 50.4375 L 0.988281 56.613281 C 0.878906 56.820312 0.878906 57.03125 0.988281 57.238281 L 4.273438 63.414062 C 4.597656 64.019531 4.757812 64.660156 4.757812 65.34375 C 4.757812 66.027344 4.597656 66.671875 4.273438 67.273438 L 2.261719 71.0625 C 2.207031 71.164062 2.179688 71.273438 2.183594 71.390625 C 2.1875 71.507812 2.21875 71.613281 2.277344 71.714844 C 2.339844 71.816406 2.417969 71.894531 2.519531 71.953125 C 2.621094 72.007812 2.730469 72.039062 2.847656 72.039062 L 67.039062 72.039062 L 67.039062 24.984375 Z M 32.949219 60.886719 C 32.632812 61.203125 32.292969 61.484375 31.921875 61.730469 C 31.554688 61.976562 31.164062 62.183594 30.753906 62.355469 C 30.34375 62.523438 29.917969 62.652344 29.484375 62.738281 C 29.046875 62.828125 28.605469 62.871094 28.164062 62.871094 C 27.71875 62.871094 27.277344 62.828125 26.84375 62.738281 C 26.40625 62.652344 25.984375 62.523438 25.574219 62.355469 C 25.164062 62.183594 24.773438 61.976562 24.402344 61.730469 C 24.035156 61.480469 23.691406 61.203125 23.378906 60.886719 C 23.0625 60.574219 22.78125 60.230469 22.535156 59.863281 C 22.289062 59.492188 22.082031 59.101562 21.910156 58.691406 C 21.742188 58.28125 21.613281 57.859375 21.523438 57.421875 C 21.4375 56.984375 21.394531 56.546875 21.394531 56.101562 C 21.394531 55.65625 21.4375 55.21875 21.523438 54.78125 C 21.613281 54.34375 21.742188 53.921875 21.910156 53.511719 C 22.082031 53.101562 22.289062 52.710938 22.535156 52.339844 C 22.78125 51.972656 23.0625 51.628906 23.378906 51.316406 C 23.691406 51 24.035156 50.722656 24.402344 50.472656 C 24.773438 50.226562 25.164062 50.019531 25.574219 49.847656 C 25.984375 49.679688 26.40625 49.550781 26.84375 49.464844 C 27.277344 49.375 27.71875 49.332031 28.164062 49.332031 C 28.605469 49.332031 29.046875 49.375 29.484375 49.464844 C 29.917969 49.550781 30.34375 49.679688 30.753906 49.847656 C 31.164062 50.019531 31.554688 50.226562 31.921875 50.472656 C 32.292969 50.71875 32.632812 51 32.949219 51.3125 C 33.265625 51.625 33.546875 51.96875 33.796875 52.335938 C 34.046875 52.703125 34.257812 53.09375 34.429688 53.503906 C 34.601562 53.914062 34.730469 54.335938 34.820312 54.773438 C 34.90625 55.207031 34.953125 55.648438 34.953125 56.09375 C 34.953125 56.539062 34.910156 56.980469 34.824219 57.414062 C 34.738281 57.851562 34.609375 58.277344 34.4375 58.6875 C 34.265625 59.097656 34.058594 59.488281 33.808594 59.855469 C 33.5625 60.226562 33.277344 60.566406 32.964844 60.878906 Z M 47.863281 60.640625 C 47.699219 60.800781 47.515625 60.925781 47.304688 61.011719 C 47.09375 61.097656 46.875 61.144531 46.644531 61.144531 C 46.417969 61.144531 46.199219 61.097656 45.988281 61.011719 C 45.777344 60.925781 45.589844 60.800781 45.429688 60.640625 L 23.640625 38.824219 C 23.488281 38.660156 23.371094 38.476562 23.292969 38.269531 C 23.214844 38.0625 23.175781 37.847656 23.179688 37.625 C 23.1875 37.402344 23.230469 37.1875 23.320312 36.984375 C 23.40625 36.777344 23.527344 36.597656 23.683594 36.441406 C 23.839844 36.285156 24.023438 36.160156 24.226562 36.074219 C 24.429688 35.988281 24.644531 35.941406 24.867188 35.9375 C 25.089844 35.933594 25.304688 35.96875 25.511719 36.046875 C 25.71875 36.128906 25.90625 36.242188 26.066406 36.394531 L 47.875 58.195312 C 48.039062 58.359375 48.164062 58.542969 48.25 58.753906 C 48.335938 58.964844 48.378906 59.183594 48.378906 59.414062 C 48.378906 59.640625 48.335938 59.863281 48.25 60.074219 C 48.164062 60.28125 48.039062 60.46875 47.875 60.628906 Z M 48.109375 45.726562 C 47.742188 46.09375 47.339844 46.414062 46.898438 46.6875 C 46.457031 46.960938 45.992188 47.183594 45.5 47.351562 C 45.007812 47.515625 44.503906 47.625 43.988281 47.675781 C 43.46875 47.726562 42.953125 47.71875 42.441406 47.652344 C 41.925781 47.585938 41.425781 47.460938 40.9375 47.277344 C 40.453125 47.09375 39.992188 46.859375 39.5625 46.570312 C 39.128906 46.28125 38.738281 45.949219 38.382812 45.570312 C 38.027344 45.191406 37.71875 44.777344 37.460938 44.324219 C 37.199219 43.875 36.996094 43.402344 36.84375 42.90625 C 36.691406 42.410156 36.601562 41.902344 36.566406 41.382812 C 36.53125 40.867188 36.558594 40.351562 36.640625 39.835938 C 36.726562 39.324219 36.867188 38.828125 37.066406 38.351562 C 37.265625 37.871094 37.515625 37.417969 37.820312 36.996094 C 38.121094 36.574219 38.46875 36.191406 38.859375 35.851562 C 39.246094 35.507812 39.671875 35.214844 40.128906 34.96875 C 40.585938 34.722656 41.066406 34.535156 41.570312 34.398438 C 42.070312 34.265625 42.582031 34.191406 43.101562 34.171875 C 43.617188 34.15625 44.132812 34.199219 44.640625 34.300781 C 45.152344 34.398438 45.644531 34.558594 46.117188 34.773438 C 46.589844 34.984375 47.03125 35.25 47.441406 35.566406 C 47.855469 35.882812 48.226562 36.242188 48.554688 36.644531 C 48.886719 37.042969 49.164062 37.476562 49.394531 37.945312 C 49.625 38.410156 49.796875 38.894531 49.914062 39.402344 C 50.035156 39.90625 50.09375 40.417969 50.09375 40.9375 C 50.09375 41.832031 49.925781 42.695312 49.585938 43.523438 C 49.246094 44.351562 48.757812 45.082031 48.125 45.71875 Z M 48.109375 45.726562 " fill-opacity="1" fill-rule="nonzero"/></g><g clip-path="url(#4b79cc05c3)"><path fill="#ffffff" d="M 86.144531 38.082031 C 85.207031 39.15625 84.425781 40.335938 83.808594 41.621094 C 83.1875 42.90625 82.75 44.246094 82.492188 45.648438 C 82.234375 47.050781 82.167969 48.464844 82.292969 49.882812 C 82.417969 51.304688 82.726562 52.683594 83.21875 54.019531 C 83.714844 55.355469 84.378906 56.605469 85.210938 57.761719 C 86.042969 58.921875 87.011719 59.949219 88.121094 60.84375 C 89.230469 61.742188 90.4375 62.476562 91.742188 63.046875 C 93.050781 63.617188 94.40625 64.003906 95.820312 64.210938 C 95.980469 64.238281 96.117188 64.3125 96.222656 64.441406 C 96.332031 64.566406 96.382812 64.714844 96.382812 64.878906 L 96.382812 71.371094 C 96.382812 71.558594 96.316406 71.71875 96.183594 71.851562 C 96.050781 71.984375 95.890625 72.050781 95.703125 72.050781 L 70.480469 72.050781 L 70.480469 24.984375 L 95.695312 24.984375 C 95.882812 24.984375 96.042969 25.050781 96.175781 25.183594 C 96.308594 25.316406 96.375 25.476562 96.375 25.664062 L 96.375 32.144531 C 96.375 32.308594 96.324219 32.457031 96.214844 32.582031 C 96.109375 32.707031 95.976562 32.785156 95.8125 32.8125 C 93.9375 33.085938 92.167969 33.675781 90.503906 34.582031 C 88.84375 35.488281 87.386719 36.65625 86.144531 38.082031 Z M 86.144531 38.082031 " fill-opacity="1" fill-rule="nonzero"/></g><path fill="#ffffff" d="M 46.667969 40.929688 C 46.667969 41.183594 46.640625 41.4375 46.582031 41.683594 C 46.523438 41.933594 46.4375 42.171875 46.324219 42.402344 C 46.210938 42.628906 46.074219 42.84375 45.914062 43.042969 C 45.75 43.238281 45.570312 43.414062 45.367188 43.570312 C 45.164062 43.726562 44.945312 43.855469 44.714844 43.960938 C 44.480469 44.066406 44.238281 44.144531 43.988281 44.195312 C 43.738281 44.246094 43.484375 44.265625 43.230469 44.257812 C 42.976562 44.25 42.726562 44.210938 42.476562 44.144531 C 42.230469 44.078125 41.996094 43.984375 41.769531 43.863281 C 41.546875 43.746094 41.335938 43.601562 41.144531 43.433594 C 40.953125 43.265625 40.78125 43.074219 40.632812 42.867188 C 40.484375 42.660156 40.363281 42.4375 40.265625 42.203125 C 40.167969 41.96875 40.097656 41.722656 40.054688 41.472656 C 40.015625 41.21875 40 40.964844 40.019531 40.710938 C 40.035156 40.457031 40.082031 40.207031 40.15625 39.964844 C 40.230469 39.71875 40.328125 39.488281 40.457031 39.265625 C 40.585938 39.042969 40.738281 38.839844 40.910156 38.652344 C 41.085938 38.46875 41.277344 38.304688 41.492188 38.164062 C 41.703125 38.019531 41.929688 37.90625 42.167969 37.816406 C 42.40625 37.726562 42.652344 37.664062 42.90625 37.628906 C 43.160156 37.597656 43.414062 37.59375 43.667969 37.617188 C 43.921875 37.644531 44.167969 37.695312 44.410156 37.777344 C 44.652344 37.859375 44.882812 37.96875 45.097656 38.105469 C 45.316406 38.238281 45.511719 38.398438 45.695312 38.578125 C 46.347656 39.226562 46.671875 40.011719 46.667969 40.929688 Z M 46.667969 40.929688 " fill-opacity="1" fill-rule="nonzero"/><path fill="#ffffff" d="M 31.503906 56.09375 C 31.503906 56.347656 31.476562 56.597656 31.417969 56.847656 C 31.359375 57.09375 31.273438 57.332031 31.164062 57.558594 C 31.050781 57.789062 30.914062 58 30.75 58.199219 C 30.589844 58.394531 30.40625 58.570312 30.203125 58.726562 C 30.003906 58.882812 29.785156 59.011719 29.554688 59.117188 C 29.320312 59.222656 29.082031 59.296875 28.832031 59.347656 C 28.582031 59.398438 28.328125 59.417969 28.074219 59.410156 C 27.820312 59.402344 27.570312 59.363281 27.324219 59.296875 C 27.078125 59.230469 26.84375 59.140625 26.617188 59.019531 C 26.394531 58.898438 26.183594 58.753906 25.992188 58.585938 C 25.800781 58.417969 25.632812 58.230469 25.484375 58.023438 C 25.335938 57.816406 25.210938 57.597656 25.113281 57.359375 C 25.015625 57.125 24.949219 56.882812 24.90625 56.628906 C 24.863281 56.378906 24.851562 56.125 24.871094 55.871094 C 24.886719 55.617188 24.929688 55.367188 25.003906 55.125 C 25.078125 54.882812 25.179688 54.648438 25.308594 54.429688 C 25.433594 54.207031 25.585938 54.003906 25.757812 53.820312 C 25.933594 53.632812 26.125 53.46875 26.339844 53.328125 C 26.550781 53.1875 26.773438 53.070312 27.011719 52.980469 C 27.25 52.890625 27.496094 52.828125 27.75 52.796875 C 28.003906 52.761719 28.253906 52.757812 28.507812 52.785156 C 28.761719 52.808594 29.007812 52.863281 29.25 52.945312 C 29.492188 53.027344 29.71875 53.132812 29.9375 53.269531 C 30.152344 53.402344 30.351562 53.558594 30.53125 53.738281 C 31.183594 54.386719 31.507812 55.171875 31.503906 56.09375 Z M 31.503906 56.09375 " fill-opacity="1" fill-rule="nonzero"/><g clip-path="url(#8222730241)"><path fill="#ffffff" d="M 88.074219 3.949219 C 87.613281 3.488281 87.113281 3.074219 86.570312 2.714844 C 86.027344 2.351562 85.457031 2.046875 84.851562 1.796875 C 84.25 1.546875 83.628906 1.359375 82.988281 1.230469 C 82.351562 1.101562 81.703125 1.039062 81.050781 1.039062 C 80.398438 1.039062 79.753906 1.101562 79.113281 1.230469 C 78.472656 1.359375 77.851562 1.546875 77.25 1.796875 C 76.648438 2.046875 76.074219 2.351562 75.53125 2.714844 C 74.992188 3.074219 74.488281 3.488281 74.027344 3.949219 C 71.992188 5.984375 70.070312 11.625 68.761719 16.25 C 67.449219 11.625 65.535156 5.984375 63.492188 3.949219 C 63.03125 3.480469 62.53125 3.066406 61.988281 2.699219 C 61.445312 2.328125 60.871094 2.019531 60.269531 1.765625 C 59.664062 1.511719 59.042969 1.320312 58.398438 1.1875 C 57.757812 1.058594 57.109375 0.992188 56.453125 0.988281 C 55.800781 0.984375 55.148438 1.046875 54.507812 1.171875 C 53.863281 1.300781 53.238281 1.488281 52.632812 1.738281 C 52.027344 1.988281 51.453125 2.292969 50.90625 2.65625 C 50.363281 3.019531 49.859375 3.433594 49.394531 3.898438 C 48.929688 4.359375 48.519531 4.863281 48.152344 5.410156 C 47.789062 5.953125 47.484375 6.53125 47.234375 7.136719 C 46.984375 7.742188 46.796875 8.367188 46.671875 9.007812 C 46.542969 9.652344 46.480469 10.300781 46.484375 10.957031 C 46.488281 11.613281 46.554688 12.261719 46.683594 12.902344 C 46.816406 13.542969 47.007812 14.167969 47.261719 14.769531 C 47.515625 15.375 47.824219 15.949219 48.191406 16.492188 C 48.558594 17.035156 48.976562 17.535156 49.445312 17.996094 C 50.710938 19.261719 53.375 20.484375 56.324219 21.542969 L 81.199219 21.542969 C 84.144531 20.484375 86.808594 19.261719 88.082031 17.996094 C 88.542969 17.535156 88.953125 17.03125 89.316406 16.488281 C 89.675781 15.949219 89.984375 15.375 90.234375 14.773438 C 90.484375 14.171875 90.671875 13.550781 90.796875 12.910156 C 90.925781 12.269531 90.988281 11.625 90.988281 10.972656 C 90.988281 10.320312 90.925781 9.671875 90.796875 9.035156 C 90.671875 8.394531 90.484375 7.773438 90.234375 7.171875 C 89.984375 6.566406 89.675781 5.996094 89.316406 5.453125 C 88.953125 4.910156 88.542969 4.410156 88.082031 3.949219 Z M 51.867188 15.5625 C 51.566406 15.261719 51.300781 14.933594 51.0625 14.578125 C 50.824219 14.226562 50.625 13.851562 50.460938 13.457031 C 50.300781 13.0625 50.175781 12.65625 50.09375 12.238281 C 50.011719 11.820312 49.96875 11.398438 49.96875 10.972656 C 49.96875 10.546875 50.011719 10.125 50.09375 9.707031 C 50.175781 9.289062 50.300781 8.882812 50.464844 8.488281 C 50.628906 8.09375 50.828125 7.71875 51.0625 7.367188 C 51.300781 7.011719 51.570312 6.683594 51.871094 6.382812 C 52.171875 6.082031 52.5 5.8125 52.855469 5.574219 C 53.210938 5.339844 53.582031 5.136719 53.976562 4.976562 C 54.371094 4.8125 54.777344 4.6875 55.195312 4.605469 C 55.613281 4.523438 56.035156 4.480469 56.460938 4.480469 C 56.886719 4.480469 57.308594 4.523438 57.726562 4.605469 C 58.144531 4.6875 58.550781 4.8125 58.945312 4.972656 C 59.339844 5.136719 59.714844 5.335938 60.066406 5.574219 C 60.421875 5.808594 60.75 6.078125 61.050781 6.378906 C 62.820312 8.152344 65.0625 15.410156 66.441406 20.953125 C 60.898438 19.574219 53.648438 17.335938 51.867188 15.5625 Z M 87.046875 13.457031 C 86.714844 14.253906 86.246094 14.953125 85.632812 15.5625 C 83.863281 17.335938 76.601562 19.574219 71.058594 20.953125 C 72.441406 15.402344 74.679688 8.152344 76.453125 6.378906 C 76.984375 5.851562 77.589844 5.425781 78.269531 5.105469 C 78.949219 4.785156 79.660156 4.589844 80.40625 4.519531 C 81.152344 4.445312 81.890625 4.5 82.617188 4.683594 C 83.347656 4.867188 84.023438 5.164062 84.644531 5.582031 C 85.269531 6 85.804688 6.507812 86.253906 7.109375 C 86.699219 7.710938 87.035156 8.371094 87.253906 9.089844 C 87.472656 9.808594 87.5625 10.542969 87.527344 11.292969 C 87.492188 12.039062 87.332031 12.761719 87.046875 13.457031 Z M 87.046875 13.457031 " fill-opacity="1" fill-rule="nonzero"/></g><g clip-path="url(#75b2a7a32a)"><g transform="matrix(1, 0, 0, 1, 99, 4)"><g clip-path="url(#43e99f825c)"><g fill="#ffffff" fill-opacity="1"><g transform="translate(0.0938294, 68.243266)"><g><path d="M 29.46875 0 L 1.890625 0 L 1.890625 -47.203125 L 27.703125 -47.203125 C 31.210938 -47.203125 34.289062 -46.757812 36.9375 -45.875 C 39.59375 -45 41.671875 -43.6875 43.171875 -41.9375 C 44.679688 -40.1875 45.4375 -37.984375 45.4375 -35.328125 C 45.4375 -32.003906 44.210938 -29.394531 41.765625 -27.5 C 39.316406 -25.613281 35.84375 -24.671875 31.34375 -24.671875 L 31.34375 -23.59375 C 36.425781 -23.59375 40.335938 -22.726562 43.078125 -21 C 45.828125 -19.269531 47.203125 -16.582031 47.203125 -12.9375 C 47.203125 -8.894531 45.601562 -5.726562 42.40625 -3.4375 C 39.21875 -1.144531 34.90625 0 29.46875 0 Z M 17.1875 -29.671875 L 17.1875 -25.484375 L 26.09375 -25.484375 C 27.257812 -25.484375 28.179688 -25.648438 28.859375 -25.984375 C 29.535156 -26.328125 29.875 -26.859375 29.875 -27.578125 C 29.875 -28.296875 29.5 -28.820312 28.75 -29.15625 C 28.007812 -29.5 27.054688 -29.671875 25.890625 -29.671875 Z M 17.1875 -22.25 L 17.1875 -17.671875 L 26.703125 -17.671875 C 29.304688 -17.671875 30.609375 -18.429688 30.609375 -19.953125 C 30.609375 -21.484375 29.304688 -22.25 26.703125 -22.25 Z M 17.1875 -22.25 "/></g></g></g><g fill="#ffffff" fill-opacity="1"><g transform="translate(45.334171, 68.243266)"><g><path d="M 34.390625 0 L 15.3125 0 L -0.8125 -47.203125 L 20.09375 -47.203125 L 24.34375 -21.03125 L 25.421875 -21.03125 L 29.46875 -47.203125 L 50.4375 -47.203125 Z M 34.390625 0 "/></g></g></g></g></g></g><g clip-path="url(#9e0c566610)"><g transform="matrix(1, 0, 0, 1, 5, 81)"><g clip-path="url(#29d6884d72)"><g clip-path="url(#3fa2925419)"><g fill="#ffffff" fill-opacity="1"><g transform="translate(0.28812, 15.557706)"><g><path d="M 8.484375 -2.890625 C 8.972656 -2.890625 9.445312 -2.960938 9.90625 -3.109375 C 10.363281 -3.253906 10.703125 -3.398438 10.921875 -3.546875 L 11.25 -3.765625 L 12.609375 -1.03125 C 12.566406 -1 12.503906 -0.953125 12.421875 -0.890625 C 12.335938 -0.835938 12.148438 -0.734375 11.859375 -0.578125 C 11.578125 -0.429688 11.269531 -0.300781 10.9375 -0.1875 C 10.613281 -0.0703125 10.179688 0.0234375 9.640625 0.109375 C 9.109375 0.203125 8.5625 0.25 8 0.25 C 6.695312 0.25 5.457031 -0.0664062 4.28125 -0.703125 C 3.113281 -1.347656 2.171875 -2.226562 1.453125 -3.34375 C 0.742188 -4.46875 0.390625 -5.6875 0.390625 -7 C 0.390625 -7.976562 0.597656 -8.921875 1.015625 -9.828125 C 1.441406 -10.742188 2.003906 -11.523438 2.703125 -12.171875 C 3.398438 -12.816406 4.210938 -13.332031 5.140625 -13.71875 C 6.066406 -14.101562 7.019531 -14.296875 8 -14.296875 C 8.90625 -14.296875 9.738281 -14.1875 10.5 -13.96875 C 11.269531 -13.75 11.8125 -13.535156 12.125 -13.328125 L 12.609375 -13 L 11.25 -10.28125 C 11.164062 -10.34375 11.046875 -10.421875 10.890625 -10.515625 C 10.734375 -10.617188 10.414062 -10.75 9.9375 -10.90625 C 9.457031 -11.0625 8.972656 -11.140625 8.484375 -11.140625 C 7.710938 -11.140625 7.019531 -11.015625 6.40625 -10.765625 C 5.800781 -10.515625 5.316406 -10.1875 4.953125 -9.78125 C 4.597656 -9.375 4.328125 -8.9375 4.140625 -8.46875 C 3.953125 -8 3.859375 -7.519531 3.859375 -7.03125 C 3.859375 -5.957031 4.257812 -5 5.0625 -4.15625 C 5.863281 -3.3125 7.003906 -2.890625 8.484375 -2.890625 Z M 8.484375 -2.890625 "/></g></g></g></g><g fill="#ffffff" fill-opacity="1"><g transform="translate(13.1051, 15.557706)"><g><path d="M 1.609375 -1.078125 C 0.796875 -1.972656 0.390625 -3.066406 0.390625 -4.359375 C 0.390625 -5.648438 0.796875 -6.742188 1.609375 -7.640625 C 2.429688 -8.535156 3.472656 -8.984375 4.734375 -8.984375 C 5.890625 -8.984375 6.84375 -8.617188 7.59375 -7.890625 L 7.59375 -8.734375 L 10.59375 -8.734375 L 10.59375 0 L 7.625 0 L 7.625 -0.984375 L 7.59375 -0.984375 C 6.84375 -0.160156 5.890625 0.25 4.734375 0.25 C 3.472656 0.25 2.429688 -0.191406 1.609375 -1.078125 Z M 4.171875 -5.84375 C 3.785156 -5.457031 3.59375 -4.960938 3.59375 -4.359375 C 3.59375 -3.753906 3.78125 -3.257812 4.15625 -2.875 C 4.53125 -2.5 5.019531 -2.3125 5.625 -2.3125 C 6.21875 -2.3125 6.703125 -2.503906 7.078125 -2.890625 C 7.460938 -3.273438 7.65625 -3.765625 7.65625 -4.359375 C 7.65625 -4.960938 7.457031 -5.457031 7.0625 -5.84375 C 6.675781 -6.226562 6.195312 -6.421875 5.625 -6.421875 C 5.050781 -6.421875 4.566406 -6.226562 4.171875 -5.84375 Z M 4.171875 -5.84375 "/></g></g></g><g fill="#ffffff" fill-opacity="1"><g transform="translate(24.730596, 15.557706)"><g><path d="M 1.015625 0 L 1.015625 -8.734375 L 4.03125 -8.734375 L 4.03125 -7.46875 L 4.0625 -7.46875 C 4.082031 -7.507812 4.117188 -7.5625 4.171875 -7.625 C 4.222656 -7.695312 4.332031 -7.816406 4.5 -7.984375 C 4.675781 -8.160156 4.859375 -8.316406 5.046875 -8.453125 C 5.242188 -8.585938 5.492188 -8.707031 5.796875 -8.8125 C 6.109375 -8.925781 6.421875 -8.984375 6.734375 -8.984375 C 7.066406 -8.984375 7.390625 -8.9375 7.703125 -8.84375 C 8.023438 -8.757812 8.257812 -8.671875 8.40625 -8.578125 L 8.640625 -8.4375 L 7.390625 -5.890625 C 7.015625 -6.203125 6.488281 -6.359375 5.8125 -6.359375 C 5.457031 -6.359375 5.144531 -6.28125 4.875 -6.125 C 4.613281 -5.96875 4.429688 -5.773438 4.328125 -5.546875 C 4.222656 -5.316406 4.144531 -5.125 4.09375 -4.96875 C 4.050781 -4.8125 4.03125 -4.6875 4.03125 -4.59375 L 4.03125 0 Z M 1.015625 0 "/></g></g></g><g fill="#ffffff" fill-opacity="1"><g transform="translate(33.207163, 15.557706)"><g><path d="M 1.53125 -8.734375 L 1.53125 -11.984375 L 4.546875 -11.984375 L 4.546875 -8.734375 L 6.375 -8.734375 L 6.375 -6.4375 L 4.546875 -6.4375 L 4.546875 -3.65625 C 4.546875 -2.851562 4.769531 -2.453125 5.21875 -2.453125 C 5.332031 -2.453125 5.453125 -2.472656 5.578125 -2.515625 C 5.703125 -2.566406 5.800781 -2.613281 5.875 -2.65625 L 5.96875 -2.71875 L 6.71875 -0.296875 C 6.070312 0.0664062 5.335938 0.25 4.515625 0.25 C 3.941406 0.25 3.453125 0.148438 3.046875 -0.046875 C 2.640625 -0.242188 2.328125 -0.507812 2.109375 -0.84375 C 1.898438 -1.175781 1.75 -1.523438 1.65625 -1.890625 C 1.570312 -2.265625 1.53125 -2.660156 1.53125 -3.078125 L 1.53125 -6.4375 L 0.265625 -6.4375 L 0.265625 -8.734375 Z M 1.53125 -8.734375 "/></g></g></g><g fill="#ffffff" fill-opacity="1"><g transform="translate(39.930543, 15.557706)"><g><path d="M 9.859375 -3.953125 L 3.515625 -3.953125 C 3.515625 -3.335938 3.710938 -2.878906 4.109375 -2.578125 C 4.515625 -2.285156 4.945312 -2.140625 5.40625 -2.140625 C 5.894531 -2.140625 6.28125 -2.203125 6.5625 -2.328125 C 6.851562 -2.460938 7.175781 -2.722656 7.53125 -3.109375 L 9.71875 -2.03125 C 8.8125 -0.507812 7.300781 0.25 5.1875 0.25 C 3.875 0.25 2.742188 -0.195312 1.796875 -1.09375 C 0.859375 -2 0.390625 -3.085938 0.390625 -4.359375 C 0.390625 -5.628906 0.859375 -6.71875 1.796875 -7.625 C 2.742188 -8.53125 3.875 -8.984375 5.1875 -8.984375 C 6.570312 -8.984375 7.695312 -8.582031 8.5625 -7.78125 C 9.4375 -6.976562 9.875 -5.835938 9.875 -4.359375 C 9.875 -4.148438 9.867188 -4.015625 9.859375 -3.953125 Z M 3.609375 -5.609375 L 6.921875 -5.609375 C 6.859375 -6.066406 6.679688 -6.414062 6.390625 -6.65625 C 6.097656 -6.90625 5.726562 -7.03125 5.28125 -7.03125 C 4.78125 -7.03125 4.378906 -6.898438 4.078125 -6.640625 C 3.785156 -6.378906 3.628906 -6.035156 3.609375 -5.609375 Z M 3.609375 -5.609375 "/></g></g></g><g fill="#ffffff" fill-opacity="1"><g transform="translate(50.160298, 15.557706)"><g><path d="M 1.015625 0 L 1.015625 -8.734375 L 4.03125 -8.734375 L 4.03125 -7.46875 L 4.0625 -7.46875 C 4.082031 -7.507812 4.117188 -7.5625 4.171875 -7.625 C 4.222656 -7.695312 4.332031 -7.816406 4.5 -7.984375 C 4.675781 -8.160156 4.859375 -8.316406 5.046875 -8.453125 C 5.242188 -8.585938 5.492188 -8.707031 5.796875 -8.8125 C 6.109375 -8.925781 6.421875 -8.984375 6.734375 -8.984375 C 7.066406 -8.984375 7.390625 -8.9375 7.703125 -8.84375 C 8.023438 -8.757812 8.257812 -8.671875 8.40625 -8.578125 L 8.640625 -8.4375 L 7.390625 -5.890625 C 7.015625 -6.203125 6.488281 -6.359375 5.8125 -6.359375 C 5.457031 -6.359375 5.144531 -6.28125 4.875 -6.125 C 4.613281 -5.96875 4.429688 -5.773438 4.328125 -5.546875 C 4.222656 -5.316406 4.144531 -5.125 4.09375 -4.96875 C 4.050781 -4.8125 4.03125 -4.6875 4.03125 -4.59375 L 4.03125 0 Z M 1.015625 0 "/></g></g></g><g fill="#ffffff" fill-opacity="1"><g transform="translate(58.636866, 15.557706)"><g/></g></g><g fill="#ffffff" fill-opacity="1"><g transform="translate(63.283659, 15.557706)"><g><path d="M 1.015625 -14.03125 L 5.375 -14.03125 C 6.6875 -14.03125 7.734375 -13.75 8.515625 -13.1875 C 9.304688 -12.632812 9.703125 -11.726562 9.703125 -10.46875 C 9.703125 -9.0625 9.117188 -8.054688 7.953125 -7.453125 C 9.941406 -7.097656 10.9375 -5.914062 10.9375 -3.90625 C 10.9375 -2.726562 10.523438 -1.78125 9.703125 -1.0625 C 8.890625 -0.351562 7.769531 0 6.34375 0 L 1.015625 0 Z M 4.21875 -8.546875 L 4.46875 -8.546875 C 5.1875 -8.546875 5.722656 -8.671875 6.078125 -8.921875 C 6.429688 -9.171875 6.609375 -9.578125 6.609375 -10.140625 C 6.609375 -11.097656 5.894531 -11.578125 4.46875 -11.578125 L 4.21875 -11.578125 Z M 4.21875 -2.46875 L 5.21875 -2.46875 C 6.789062 -2.46875 7.578125 -2.988281 7.578125 -4.03125 C 7.578125 -4.65625 7.378906 -5.101562 6.984375 -5.375 C 6.585938 -5.644531 6 -5.78125 5.21875 -5.78125 L 4.21875 -5.78125 Z M 4.21875 -2.46875 "/></g></g></g><g fill="#ffffff" fill-opacity="1"><g transform="translate(74.619791, 15.557706)"><g><path d="M 1.609375 -1.078125 C 0.796875 -1.972656 0.390625 -3.066406 0.390625 -4.359375 C 0.390625 -5.648438 0.796875 -6.742188 1.609375 -7.640625 C 2.429688 -8.535156 3.472656 -8.984375 4.734375 -8.984375 C 5.890625 -8.984375 6.84375 -8.617188 7.59375 -7.890625 L 7.59375 -8.734375 L 10.59375 -8.734375 L 10.59375 0 L 7.625 0 L 7.625 -0.984375 L 7.59375 -0.984375 C 6.84375 -0.160156 5.890625 0.25 4.734375 0.25 C 3.472656 0.25 2.429688 -0.191406 1.609375 -1.078125 Z M 4.171875 -5.84375 C 3.785156 -5.457031 3.59375 -4.960938 3.59375 -4.359375 C 3.59375 -3.753906 3.78125 -3.257812 4.15625 -2.875 C 4.53125 -2.5 5.019531 -2.3125 5.625 -2.3125 C 6.21875 -2.3125 6.703125 -2.503906 7.078125 -2.890625 C 7.460938 -3.273438 7.65625 -3.765625 7.65625 -4.359375 C 7.65625 -4.960938 7.457031 -5.457031 7.0625 -5.84375 C 6.675781 -6.226562 6.195312 -6.421875 5.625 -6.421875 C 5.050781 -6.421875 4.566406 -6.226562 4.171875 -5.84375 Z M 4.171875 -5.84375 "/></g></g></g><g fill="#ffffff" fill-opacity="1"><g transform="translate(86.245288, 15.557706)"><g><path d="M 1.015625 0 L 1.015625 -8.734375 L 4.03125 -8.734375 L 4.03125 -7.8125 L 4.0625 -7.8125 C 4.84375 -8.59375 5.675781 -8.984375 6.5625 -8.984375 C 7 -8.984375 7.425781 -8.925781 7.84375 -8.8125 C 8.269531 -8.695312 8.679688 -8.519531 9.078125 -8.28125 C 9.472656 -8.039062 9.789062 -7.703125 10.03125 -7.265625 C 10.269531 -6.835938 10.390625 -6.332031 10.390625 -5.75 L 10.390625 0 L 7.390625 0 L 7.390625 -4.9375 C 7.390625 -5.382812 7.242188 -5.78125 6.953125 -6.125 C 6.660156 -6.46875 6.28125 -6.640625 5.8125 -6.640625 C 5.363281 -6.640625 4.953125 -6.460938 4.578125 -6.109375 C 4.210938 -5.753906 4.03125 -5.363281 4.03125 -4.9375 L 4.03125 0 Z M 1.015625 0 "/></g></g></g><g clip-path="url(#fa7e567bde)"><g fill="#ffffff" fill-opacity="1"><g transform="translate(97.496315, 15.557706)"><g><path d="M 10.984375 -8.734375 L 6.84375 -4.5625 L 11.40625 0 L 7.515625 0 L 4.03125 -3.484375 L 4.03125 0 L 1.015625 0 L 1.015625 -14.640625 L 4.03125 -14.640625 L 4.03125 -5.6875 L 7.078125 -8.734375 Z M 10.984375 -8.734375 "/></g></g></g></g><g fill="#ffffff" fill-opacity="1"><g transform="translate(108.492025, 15.557706)"><g/></g></g><g fill="#ffffff" fill-opacity="1"><g transform="translate(111.691923, 15.557706)"><g><path d="M 5.40625 0 L -0.46875 -14.03125 L 3.125 -14.03125 L 6.671875 -4.8125 L 10.203125 -14.03125 L 13.8125 -14.03125 L 7.921875 0 Z M 5.40625 0 "/></g></g></g><g fill="#ffffff" fill-opacity="1"><g transform="translate(123.844996, 15.557706)"><g><path d="M 1.84375 -1.03125 C 0.875 -1.894531 0.390625 -3 0.390625 -4.34375 C 0.390625 -5.695312 0.894531 -6.804688 1.90625 -7.671875 C 2.914062 -8.546875 4.164062 -8.984375 5.65625 -8.984375 C 7.113281 -8.984375 8.34375 -8.546875 9.34375 -7.671875 C 10.351562 -6.796875 10.859375 -5.6875 10.859375 -4.34375 C 10.859375 -3.007812 10.363281 -1.910156 9.375 -1.046875 C 8.394531 -0.179688 7.15625 0.25 5.65625 0.25 C 4.082031 0.25 2.8125 -0.175781 1.84375 -1.03125 Z M 4.171875 -5.84375 C 3.785156 -5.457031 3.59375 -4.960938 3.59375 -4.359375 C 3.59375 -3.753906 3.78125 -3.257812 4.15625 -2.875 C 4.53125 -2.5 5.019531 -2.3125 5.625 -2.3125 C 6.21875 -2.3125 6.703125 -2.503906 7.078125 -2.890625 C 7.460938 -3.273438 7.65625 -3.765625 7.65625 -4.359375 C 7.65625 -4.960938 7.457031 -5.457031 7.0625 -5.84375 C 6.675781 -6.226562 6.195312 -6.421875 5.625 -6.421875 C 5.050781 -6.421875 4.566406 -6.226562 4.171875 -5.84375 Z M 4.171875 -5.84375 "/></g></g></g><g fill="#ffffff" fill-opacity="1"><g transform="translate(135.09603, 15.557706)"><g><path d="M 3.859375 -8.734375 L 3.859375 -4.578125 C 3.859375 -3.710938 3.988281 -3.097656 4.25 -2.734375 C 4.507812 -2.367188 4.953125 -2.1875 5.578125 -2.1875 C 6.203125 -2.1875 6.644531 -2.367188 6.90625 -2.734375 C 7.164062 -3.097656 7.296875 -3.710938 7.296875 -4.578125 L 7.296875 -8.734375 L 10.3125 -8.734375 L 10.3125 -3.84375 C 10.3125 -2.394531 9.929688 -1.347656 9.171875 -0.703125 C 8.421875 -0.0664062 7.222656 0.25 5.578125 0.25 C 3.929688 0.25 2.726562 -0.0664062 1.96875 -0.703125 C 1.21875 -1.347656 0.84375 -2.394531 0.84375 -3.84375 L 0.84375 -8.734375 Z M 3.859375 -8.734375 "/></g></g></g><g fill="#ffffff" fill-opacity="1"><g transform="translate(146.261954, 15.557706)"><g><path d="M 5.671875 -6.515625 C 5.097656 -6.515625 4.609375 -6.304688 4.203125 -5.890625 C 3.796875 -5.472656 3.59375 -4.96875 3.59375 -4.375 C 3.59375 -3.769531 3.796875 -3.257812 4.203125 -2.84375 C 4.609375 -2.425781 5.097656 -2.21875 5.671875 -2.21875 C 5.941406 -2.21875 6.195312 -2.25 6.4375 -2.3125 C 6.6875 -2.382812 6.863281 -2.453125 6.96875 -2.515625 L 7.125 -2.625 L 8.15625 -0.53125 C 8.070312 -0.46875 7.957031 -0.394531 7.8125 -0.3125 C 7.675781 -0.226562 7.351562 -0.113281 6.84375 0.03125 C 6.34375 0.175781 5.800781 0.25 5.21875 0.25 C 3.9375 0.25 2.8125 -0.195312 1.84375 -1.09375 C 0.875 -2 0.390625 -3.082031 0.390625 -4.34375 C 0.390625 -5.613281 0.875 -6.703125 1.84375 -7.609375 C 2.8125 -8.523438 3.9375 -8.984375 5.21875 -8.984375 C 5.800781 -8.984375 6.335938 -8.914062 6.828125 -8.78125 C 7.316406 -8.644531 7.660156 -8.507812 7.859375 -8.375 L 8.15625 -8.171875 L 7.125 -6.109375 C 6.75 -6.378906 6.265625 -6.515625 5.671875 -6.515625 Z M 5.671875 -6.515625 "/></g></g></g><g clip-path="url(#97cf64d4df)"><g fill="#ffffff" fill-opacity="1"><g transform="translate(154.619371, 15.557706)"><g><path d="M 1.015625 0 L 1.015625 -14.640625 L 4.03125 -14.640625 L 4.03125 -7.8125 L 4.0625 -7.8125 C 4.84375 -8.59375 5.675781 -8.984375 6.5625 -8.984375 C 7 -8.984375 7.425781 -8.925781 7.84375 -8.8125 C 8.269531 -8.695312 8.679688 -8.519531 9.078125 -8.28125 C 9.472656 -8.039062 9.789062 -7.703125 10.03125 -7.265625 C 10.269531 -6.835938 10.390625 -6.332031 10.390625 -5.75 L 10.390625 0 L 7.390625 0 L 7.390625 -4.9375 C 7.390625 -5.382812 7.242188 -5.78125 6.953125 -6.125 C 6.660156 -6.46875 6.28125 -6.640625 5.8125 -6.640625 C 5.363281 -6.640625 4.953125 -6.460938 4.578125 -6.109375 C 4.210938 -5.753906 4.03125 -5.363281 4.03125 -4.9375 L 4.03125 0 Z M 1.015625 0 "/></g></g></g></g><g fill="#ffffff" fill-opacity="1"><g transform="translate(165.870389, 15.557706)"><g><path d="M 9.859375 -3.953125 L 3.515625 -3.953125 C 3.515625 -3.335938 3.710938 -2.878906 4.109375 -2.578125 C 4.515625 -2.285156 4.945312 -2.140625 5.40625 -2.140625 C 5.894531 -2.140625 6.28125 -2.203125 6.5625 -2.328125 C 6.851562 -2.460938 7.175781 -2.722656 7.53125 -3.109375 L 9.71875 -2.03125 C 8.8125 -0.507812 7.300781 0.25 5.1875 0.25 C 3.875 0.25 2.742188 -0.195312 1.796875 -1.09375 C 0.859375 -2 0.390625 -3.085938 0.390625 -4.359375 C 0.390625 -5.628906 0.859375 -6.71875 1.796875 -7.625 C 2.742188 -8.53125 3.875 -8.984375 5.1875 -8.984375 C 6.570312 -8.984375 7.695312 -8.582031 8.5625 -7.78125 C 9.4375 -6.976562 9.875 -5.835938 9.875 -4.359375 C 9.875 -4.148438 9.867188 -4.015625 9.859375 -3.953125 Z M 3.609375 -5.609375 L 6.921875 -5.609375 C 6.859375 -6.066406 6.679688 -6.414062 6.390625 -6.65625 C 6.097656 -6.90625 5.726562 -7.03125 5.28125 -7.03125 C 4.78125 -7.03125 4.378906 -6.898438 4.078125 -6.640625 C 3.785156 -6.378906 3.628906 -6.035156 3.609375 -5.609375 Z M 3.609375 -5.609375 "/></g></g></g><g clip-path="url(#c85f8ed3dd)"><g fill="#ffffff" fill-opacity="1"><g transform="translate(176.100144, 15.557706)"><g><path d="M 1.015625 0 L 1.015625 -8.734375 L 4.03125 -8.734375 L 4.03125 -7.46875 L 4.0625 -7.46875 C 4.082031 -7.507812 4.117188 -7.5625 4.171875 -7.625 C 4.222656 -7.695312 4.332031 -7.816406 4.5 -7.984375 C 4.675781 -8.160156 4.859375 -8.316406 5.046875 -8.453125 C 5.242188 -8.585938 5.492188 -8.707031 5.796875 -8.8125 C 6.109375 -8.925781 6.421875 -8.984375 6.734375 -8.984375 C 7.066406 -8.984375 7.390625 -8.9375 7.703125 -8.84375 C 8.023438 -8.757812 8.257812 -8.671875 8.40625 -8.578125 L 8.640625 -8.4375 L 7.390625 -5.890625 C 7.015625 -6.203125 6.488281 -6.359375 5.8125 -6.359375 C 5.457031 -6.359375 5.144531 -6.28125 4.875 -6.125 C 4.613281 -5.96875 4.429688 -5.773438 4.328125 -5.546875 C 4.222656 -5.316406 4.144531 -5.125 4.09375 -4.96875 C 4.050781 -4.8125 4.03125 -4.6875 4.03125 -4.59375 L 4.03125 0 Z M 1.015625 0 "/></g></g></g></g></g></g></g></g></g></svg>