<svg xmlns="http://www.w3.org/2000/svg" xmlns:xlink="http://www.w3.org/1999/xlink" width="1746" zoomAndPan="magnify" viewBox="0 0 1309.5 782.999999" height="1044" preserveAspectRatio="xMidYMid meet" version="1.0"><defs><g/><clipPath id="b8cbcc650f"><path d="M 2.0625 142 L 390 142 L 390 418.800781 L 2.0625 418.800781 Z M 2.0625 142 " clip-rule="nonzero"/></clipPath><clipPath id="db572b3b12"><path d="M 410 142 L 562.140625 142 L 562.140625 418.800781 L 410 418.800781 Z M 410 142 " clip-rule="nonzero"/></clipPath><clipPath id="8936cad057"><path d="M 269 1.59375 L 531 1.59375 L 531 123 L 269 123 Z M 269 1.59375 " clip-rule="nonzero"/></clipPath><clipPath id="0093ad5a8a"><path d="M 577 23 L 1140.4375 23 L 1140.4375 499 L 577 499 Z M 577 23 " clip-rule="nonzero"/></clipPath><clipPath id="163deebbb7"><rect x="0" width="564" y="0" height="476"/></clipPath><clipPath id="d4d1ecbbcd"><path d="M 27 472 L 1111 472 L 1111 597.550781 L 27 597.550781 Z M 27 472 " clip-rule="nonzero"/></clipPath><clipPath id="1d97d4998f"><rect x="0" width="1084" y="0" height="126"/></clipPath><clipPath id="9158c86669"><rect x="0" width="1141" y="0" height="598"/></clipPath></defs><g transform="matrix(1, 0, 0, 1, 20, 130)"><g clip-path="url(#9158c86669)"><g clip-path="url(#b8cbcc650f)"><path fill="#1a56db" d="M 13.410156 142.449219 C 13.074219 142.449219 12.738281 142.492188 12.414062 142.578125 C 12.085938 142.664062 11.773438 142.789062 11.480469 142.953125 C 11.183594 143.121094 10.914062 143.324219 10.671875 143.558594 C 10.429688 143.796875 10.222656 144.058594 10.046875 144.347656 C 9.871094 144.636719 9.738281 144.945312 9.640625 145.269531 C 9.546875 145.597656 9.496094 145.929688 9.484375 146.265625 C 9.476562 146.605469 9.511719 146.9375 9.589844 147.269531 C 9.667969 147.597656 9.785156 147.914062 9.945312 148.210938 L 21.761719 170.40625 C 22.695312 172.152344 23.402344 173.988281 23.882812 175.90625 C 24.363281 177.828125 24.605469 179.777344 24.605469 181.757812 C 24.605469 183.738281 24.363281 185.6875 23.882812 187.609375 C 23.402344 189.53125 22.695312 191.363281 21.761719 193.109375 L 2.515625 229.253906 C 2.210938 229.828125 2.0625 230.4375 2.0625 231.089844 C 2.0625 231.738281 2.210938 232.347656 2.515625 232.921875 L 21.785156 269.132812 C 22.714844 270.875 23.417969 272.703125 23.898438 274.617188 C 24.375 276.53125 24.613281 278.476562 24.613281 280.449219 C 24.613281 282.425781 24.375 284.367188 23.898438 286.285156 C 23.417969 288.199219 22.714844 290.027344 21.785156 291.769531 L 2.515625 327.976562 C 2.210938 328.554688 2.0625 329.167969 2.0625 329.816406 C 2.0625 330.46875 2.210938 331.082031 2.515625 331.660156 L 21.785156 367.878906 C 22.714844 369.621094 23.417969 371.449219 23.898438 373.363281 C 24.375 375.28125 24.613281 377.222656 24.613281 379.199219 C 24.613281 381.171875 24.375 383.117188 23.898438 385.03125 C 23.417969 386.945312 22.714844 388.773438 21.785156 390.515625 L 9.96875 412.726562 C 9.8125 413.023438 9.695312 413.335938 9.617188 413.664062 C 9.542969 413.992188 9.507812 414.324219 9.515625 414.660156 C 9.523438 414.996094 9.578125 415.324219 9.671875 415.648438 C 9.765625 415.972656 9.898438 416.277344 10.070312 416.566406 C 10.246094 416.855469 10.453125 417.117188 10.691406 417.351562 C 10.933594 417.585938 11.199219 417.789062 11.492188 417.953125 C 11.785156 418.121094 12.09375 418.246094 12.417969 418.332031 C 12.746094 418.417969 13.074219 418.464844 13.410156 418.464844 L 389.941406 418.464844 L 389.941406 142.449219 Z M 189.972656 353.0625 C 189.054688 353.980469 188.089844 354.851562 187.085938 355.675781 C 186.082031 356.5 185.039062 357.273438 183.957031 357.996094 C 182.875 358.71875 181.761719 359.386719 180.613281 360 C 179.46875 360.609375 178.292969 361.164062 177.09375 361.664062 C 175.890625 362.160156 174.667969 362.597656 173.425781 362.976562 C 172.179688 363.351562 170.921875 363.667969 169.644531 363.921875 C 168.371094 364.175781 167.085938 364.363281 165.792969 364.492188 C 164.496094 364.621094 163.199219 364.683594 161.902344 364.683594 C 160.601562 364.683594 159.304688 364.617188 158.011719 364.492188 C 156.714844 364.363281 155.429688 364.171875 154.15625 363.917969 C 152.882812 363.664062 151.621094 363.347656 150.378906 362.972656 C 149.132812 362.59375 147.910156 362.15625 146.710938 361.660156 C 145.507812 361.160156 144.335938 360.605469 143.1875 359.992188 C 142.042969 359.378906 140.929688 358.710938 139.847656 357.988281 C 138.765625 357.265625 137.722656 356.492188 136.71875 355.667969 C 135.714844 354.84375 134.75 353.972656 133.832031 353.050781 C 132.914062 352.132812 132.039062 351.171875 131.214844 350.164062 C 130.390625 349.160156 129.617188 348.117188 128.894531 347.035156 C 128.171875 345.953125 127.503906 344.839844 126.894531 343.695312 C 126.28125 342.546875 125.726562 341.375 125.226562 340.171875 C 124.730469 338.972656 124.292969 337.75 123.914062 336.503906 C 123.539062 335.261719 123.222656 334 122.96875 332.726562 C 122.714844 331.449219 122.523438 330.167969 122.398438 328.871094 C 122.269531 327.578125 122.207031 326.28125 122.207031 324.980469 C 122.207031 323.679688 122.269531 322.382812 122.398438 321.089844 C 122.523438 319.796875 122.714844 318.511719 122.96875 317.238281 C 123.222656 315.960938 123.539062 314.703125 123.914062 313.457031 C 124.292969 312.214844 124.730469 310.992188 125.226562 309.789062 C 125.726562 308.589844 126.28125 307.414062 126.894531 306.269531 C 127.503906 305.121094 128.171875 304.007812 128.894531 302.925781 C 129.617188 301.84375 130.390625 300.800781 131.214844 299.796875 C 132.039062 298.792969 132.914062 297.828125 133.832031 296.910156 C 134.75 295.992188 135.714844 295.117188 136.71875 294.292969 C 137.722656 293.46875 138.765625 292.695312 139.847656 291.972656 C 140.929688 291.25 142.042969 290.582031 143.1875 289.96875 C 144.335938 289.355469 145.507812 288.800781 146.710938 288.304688 C 147.910156 287.804688 149.132812 287.367188 150.378906 286.992188 C 151.621094 286.613281 152.882812 286.296875 154.15625 286.042969 C 155.429688 285.789062 156.714844 285.597656 158.011719 285.472656 C 159.304688 285.34375 160.601562 285.28125 161.902344 285.28125 C 163.199219 285.28125 164.496094 285.34375 165.792969 285.472656 C 167.085938 285.597656 168.371094 285.789062 169.644531 286.042969 C 170.921875 286.296875 172.179688 286.609375 173.425781 286.988281 C 174.667969 287.363281 175.890625 287.800781 177.09375 288.300781 C 178.292969 288.796875 179.46875 289.351562 180.613281 289.964844 C 181.761719 290.578125 182.875 291.246094 183.957031 291.964844 C 185.039062 292.6875 186.082031 293.460938 187.085938 294.285156 C 188.089844 295.109375 189.054688 295.984375 189.972656 296.902344 C 190.898438 297.816406 191.777344 298.773438 192.609375 299.773438 C 193.441406 300.773438 194.222656 301.8125 194.953125 302.890625 C 195.683594 303.96875 196.355469 305.082031 196.976562 306.226562 C 197.59375 307.371094 198.15625 308.542969 198.660156 309.742188 C 199.160156 310.941406 199.605469 312.164062 199.988281 313.410156 C 200.367188 314.652344 200.6875 315.914062 200.945312 317.1875 C 201.203125 318.464844 201.398438 319.75 201.527344 321.042969 C 201.660156 322.339844 201.726562 323.636719 201.726562 324.9375 C 201.730469 326.238281 201.667969 327.539062 201.539062 328.832031 C 201.414062 330.128906 201.222656 331.414062 200.972656 332.691406 C 200.71875 333.964844 200.402344 335.226562 200.023438 336.472656 C 199.644531 337.71875 199.207031 338.941406 198.707031 340.140625 C 198.207031 341.34375 197.648438 342.519531 197.035156 343.664062 C 196.417969 344.8125 195.746094 345.925781 195.023438 347.003906 C 194.296875 348.085938 193.519531 349.128906 192.691406 350.128906 C 191.863281 351.132812 190.984375 352.09375 190.0625 353.011719 Z M 277.445312 351.597656 C 276.980469 352.066406 276.46875 352.484375 275.917969 352.851562 C 275.367188 353.21875 274.785156 353.53125 274.175781 353.785156 C 273.5625 354.035156 272.933594 354.226562 272.28125 354.355469 C 271.632812 354.484375 270.976562 354.550781 270.316406 354.550781 C 269.652344 354.550781 268.996094 354.484375 268.347656 354.355469 C 267.699219 354.226562 267.066406 354.035156 266.457031 353.785156 C 265.84375 353.53125 265.261719 353.21875 264.710938 352.851562 C 264.160156 352.484375 263.652344 352.066406 263.183594 351.597656 L 135.367188 223.640625 C 134.925781 223.167969 134.539062 222.65625 134.195312 222.105469 C 133.855469 221.558594 133.570312 220.980469 133.339844 220.378906 C 133.113281 219.773438 132.941406 219.15625 132.832031 218.519531 C 132.71875 217.882812 132.671875 217.242188 132.683594 216.597656 C 132.695312 215.949219 132.769531 215.3125 132.90625 214.679688 C 133.039062 214.046875 133.234375 213.433594 133.484375 212.839844 C 133.738281 212.246094 134.046875 211.683594 134.40625 211.148438 C 134.769531 210.609375 135.175781 210.113281 135.632812 209.660156 C 136.089844 209.203125 136.585938 208.792969 137.121094 208.429688 C 137.65625 208.070312 138.21875 207.761719 138.816406 207.507812 C 139.410156 207.253906 140.019531 207.058594 140.652344 206.925781 C 141.285156 206.789062 141.921875 206.714844 142.570312 206.703125 C 143.214844 206.6875 143.855469 206.738281 144.492188 206.847656 C 145.128906 206.957031 145.746094 207.128906 146.351562 207.355469 C 146.957031 207.585938 147.53125 207.871094 148.082031 208.210938 C 148.628906 208.550781 149.140625 208.941406 149.617188 209.378906 L 277.535156 337.269531 C 278.003906 337.738281 278.421875 338.25 278.792969 338.800781 C 279.160156 339.351562 279.472656 339.933594 279.726562 340.546875 C 279.980469 341.160156 280.171875 341.789062 280.300781 342.441406 C 280.429688 343.089844 280.496094 343.746094 280.496094 344.410156 C 280.496094 345.074219 280.429688 345.730469 280.300781 346.378906 C 280.171875 347.03125 279.980469 347.660156 279.726562 348.273438 C 279.472656 348.886719 279.160156 349.46875 278.792969 350.019531 C 278.421875 350.570312 278.003906 351.078125 277.535156 351.546875 Z M 278.910156 264.125 C 278.375 264.660156 277.824219 265.179688 277.257812 265.6875 C 276.691406 266.191406 276.109375 266.679688 275.515625 267.148438 C 274.921875 267.621094 274.316406 268.074219 273.695312 268.511719 C 273.078125 268.949219 272.445312 269.367188 271.800781 269.769531 C 271.15625 270.167969 270.5 270.550781 269.835938 270.914062 C 269.171875 271.277344 268.496094 271.621094 267.808594 271.945312 C 267.125 272.269531 266.429688 272.574219 265.726562 272.859375 C 265.023438 273.144531 264.3125 273.40625 263.59375 273.652344 C 262.878906 273.894531 262.152344 274.117188 261.421875 274.320312 C 260.691406 274.523438 259.953125 274.703125 259.214844 274.863281 C 258.472656 275.023438 257.726562 275.164062 256.976562 275.28125 C 256.230469 275.398438 255.476562 275.492188 254.722656 275.570312 C 253.96875 275.644531 253.210938 275.695312 252.453125 275.726562 C 251.695312 275.757812 250.9375 275.765625 250.179688 275.753906 C 249.421875 275.742188 248.664062 275.707031 247.910156 275.652344 C 247.152344 275.597656 246.398438 275.519531 245.644531 275.421875 C 244.894531 275.324219 244.144531 275.203125 243.402344 275.0625 C 242.65625 274.917969 241.914062 274.757812 241.179688 274.570312 C 240.445312 274.386719 239.714844 274.183594 238.992188 273.957031 C 238.265625 273.730469 237.550781 273.484375 236.839844 273.21875 C 236.132812 272.949219 235.429688 272.664062 234.734375 272.355469 C 234.042969 272.046875 233.359375 271.722656 232.683594 271.375 C 232.007812 271.027344 231.34375 270.664062 230.691406 270.277344 C 230.039062 269.894531 229.394531 269.492188 228.765625 269.070312 C 228.136719 268.648438 227.515625 268.210938 226.910156 267.753906 C 226.304688 267.296875 225.714844 266.824219 225.136719 266.332031 C 224.558594 265.84375 223.992188 265.335938 223.445312 264.8125 C 222.894531 264.289062 222.359375 263.753906 221.84375 263.199219 C 221.324219 262.644531 220.820312 262.078125 220.335938 261.496094 C 219.851562 260.914062 219.382812 260.316406 218.929688 259.710938 C 218.476562 259.101562 218.042969 258.480469 217.628906 257.84375 C 217.210938 257.210938 216.8125 256.566406 216.433594 255.910156 C 216.054688 255.253906 215.695312 254.585938 215.355469 253.910156 C 215.011719 253.230469 214.691406 252.542969 214.390625 251.847656 C 214.085938 251.152344 213.804688 250.449219 213.542969 249.738281 C 213.285156 249.027344 213.042969 248.308594 212.820312 247.582031 C 212.601562 246.855469 212.402344 246.125 212.222656 245.386719 C 212.046875 244.648438 211.890625 243.910156 211.753906 243.164062 C 211.617188 242.417969 211.503906 241.667969 211.410156 240.914062 C 211.316406 240.160156 211.246094 239.40625 211.195312 238.652344 C 211.144531 237.894531 211.117188 237.136719 211.113281 236.378906 C 211.105469 235.621094 211.121094 234.863281 211.15625 234.105469 C 211.195312 233.347656 211.253906 232.589844 211.335938 231.835938 C 211.414062 231.082031 211.515625 230.332031 211.640625 229.585938 C 211.761719 228.835938 211.90625 228.09375 212.074219 227.351562 C 212.238281 226.613281 212.425781 225.878906 212.636719 225.148438 C 212.84375 224.417969 213.070312 223.695312 213.320312 222.980469 C 213.570312 222.265625 213.839844 221.554688 214.128906 220.855469 C 214.421875 220.15625 214.730469 219.460938 215.058594 218.78125 C 215.390625 218.097656 215.738281 217.425781 216.105469 216.761719 C 216.476562 216.097656 216.863281 215.445312 217.269531 214.804688 C 217.671875 214.164062 218.097656 213.535156 218.539062 212.917969 C 218.980469 212.304688 219.4375 211.699219 219.914062 211.109375 C 220.390625 210.519531 220.882812 209.945312 221.394531 209.382812 C 221.902344 208.820312 222.425781 208.273438 222.96875 207.742188 C 223.507812 207.210938 224.0625 206.691406 224.632812 206.191406 C 225.203125 205.691406 225.789062 205.210938 226.386719 204.742188 C 226.984375 204.277344 227.59375 203.828125 228.21875 203.394531 C 228.839844 202.964844 229.476562 202.550781 230.121094 202.15625 C 230.769531 201.757812 231.429688 201.382812 232.097656 201.027344 C 232.765625 200.667969 233.445312 200.328125 234.132812 200.011719 C 234.820312 199.691406 235.515625 199.394531 236.222656 199.113281 C 236.925781 198.835938 237.640625 198.578125 238.359375 198.339844 C 239.078125 198.101562 239.804688 197.882812 240.539062 197.6875 C 241.269531 197.492188 242.007812 197.316406 242.75 197.164062 C 243.492188 197.007812 244.238281 196.875 244.988281 196.765625 C 245.738281 196.652344 246.492188 196.5625 247.246094 196.496094 C 248.003906 196.425781 248.757812 196.378906 249.515625 196.355469 C 250.273438 196.328125 251.03125 196.328125 251.792969 196.34375 C 252.550781 196.363281 253.304688 196.402344 254.0625 196.464844 C 254.816406 196.527344 255.570312 196.609375 256.324219 196.714844 C 257.074219 196.820312 257.820312 196.945312 258.566406 197.09375 C 259.308594 197.242188 260.046875 197.410156 260.78125 197.601562 C 261.515625 197.792969 262.242188 198.003906 262.964844 198.234375 C 263.6875 198.464844 264.402344 198.71875 265.109375 198.992188 C 265.816406 199.265625 266.515625 199.558594 267.207031 199.871094 C 267.898438 200.183594 268.578125 200.515625 269.25 200.867188 C 269.921875 201.21875 270.582031 201.589844 271.234375 201.980469 C 271.886719 202.367188 272.523438 202.777344 273.152344 203.203125 C 273.777344 203.628906 274.390625 204.074219 274.992188 204.535156 C 275.597656 204.996094 276.183594 205.476562 276.757812 205.96875 C 277.332031 206.464844 277.890625 206.976562 278.4375 207.503906 C 278.980469 208.03125 279.511719 208.574219 280.027344 209.132812 C 280.539062 209.6875 281.035156 210.261719 281.519531 210.847656 C 282 211.433594 282.464844 212.03125 282.910156 212.644531 C 283.355469 213.257812 283.785156 213.882812 284.195312 214.519531 C 284.609375 215.15625 285 215.804688 285.375 216.464844 C 285.75 217.125 286.101562 217.792969 286.4375 218.476562 C 286.773438 219.15625 287.089844 219.84375 287.386719 220.542969 C 287.683594 221.238281 287.957031 221.945312 288.214844 222.660156 C 288.46875 223.375 288.703125 224.09375 288.917969 224.820312 C 289.132812 225.550781 289.324219 226.28125 289.5 227.019531 C 289.671875 227.757812 289.820312 228.503906 289.953125 229.25 C 290.082031 229.996094 290.191406 230.746094 290.277344 231.5 C 290.363281 232.253906 290.429688 233.007812 290.472656 233.765625 C 290.515625 234.523438 290.539062 235.28125 290.539062 236.039062 C 290.542969 238.640625 290.296875 241.214844 289.796875 243.769531 C 289.296875 246.320312 288.550781 248.800781 287.558594 251.207031 C 286.570312 253.609375 285.355469 255.894531 283.914062 258.0625 C 282.472656 260.226562 280.835938 262.230469 279 264.074219 Z M 278.910156 264.125 " fill-opacity="1" fill-rule="nonzero"/></g><g clip-path="url(#db572b3b12)"><path fill="#1a56db" d="M 501.996094 219.289062 C 500.628906 220.855469 499.316406 222.46875 498.058594 224.121094 C 496.796875 225.777344 495.597656 227.472656 494.449219 229.207031 C 493.304688 230.941406 492.21875 232.710938 491.195312 234.519531 C 490.167969 236.328125 489.203125 238.167969 488.300781 240.042969 C 487.394531 241.914062 486.558594 243.816406 485.78125 245.742188 C 485.003906 247.671875 484.296875 249.625 483.648438 251.601562 C 483.003906 253.578125 482.425781 255.574219 481.917969 257.589844 C 481.40625 259.605469 480.960938 261.632812 480.585938 263.679688 C 480.210938 265.722656 479.90625 267.777344 479.667969 269.84375 C 479.429688 271.910156 479.265625 273.980469 479.164062 276.054688 C 479.066406 278.132812 479.039062 280.210938 479.078125 282.289062 C 479.121094 284.367188 479.230469 286.441406 479.410156 288.515625 C 479.589844 290.585938 479.839844 292.648438 480.15625 294.703125 C 480.476562 296.757812 480.863281 298.796875 481.316406 300.828125 C 481.773438 302.855469 482.292969 304.867188 482.882812 306.859375 C 483.472656 308.851562 484.128906 310.824219 484.851562 312.773438 C 485.574219 314.722656 486.359375 316.648438 487.210938 318.542969 C 488.0625 320.441406 488.976562 322.308594 489.949219 324.144531 C 490.925781 325.976562 491.964844 327.777344 493.058594 329.546875 C 494.15625 331.3125 495.3125 333.039062 496.523438 334.726562 C 497.734375 336.417969 499.003906 338.0625 500.328125 339.667969 C 501.648438 341.269531 503.023438 342.828125 504.453125 344.339844 C 505.878906 345.851562 507.355469 347.3125 508.878906 348.726562 C 510.40625 350.140625 511.976562 351.5 513.59375 352.804688 C 515.207031 354.113281 516.867188 355.367188 518.566406 356.5625 C 520.265625 357.757812 522.003906 358.894531 523.78125 359.976562 C 525.558594 361.054688 527.371094 362.074219 529.214844 363.035156 C 531.058594 363.992188 532.933594 364.886719 534.839844 365.71875 C 536.742188 366.550781 538.675781 367.320312 540.632812 368.023438 C 542.585938 368.726562 544.566406 369.363281 546.5625 369.933594 C 548.5625 370.503906 550.578125 371.007812 552.613281 371.445312 C 554.644531 371.878906 556.691406 372.246094 558.746094 372.546875 C 559.210938 372.621094 559.648438 372.777344 560.054688 373.007812 C 560.464844 373.242188 560.820312 373.539062 561.121094 373.898438 C 561.425781 374.257812 561.65625 374.65625 561.816406 375.097656 C 561.976562 375.542969 562.054688 375.996094 562.050781 376.46875 L 562.050781 414.542969 C 562.050781 414.804688 562.027344 415.0625 561.976562 415.320312 C 561.921875 415.578125 561.847656 415.824219 561.746094 416.066406 C 561.648438 416.308594 561.523438 416.539062 561.378906 416.757812 C 561.234375 416.972656 561.070312 417.175781 560.882812 417.359375 C 560.699219 417.546875 560.496094 417.710938 560.28125 417.855469 C 560.0625 418 559.832031 418.125 559.589844 418.222656 C 559.347656 418.324219 559.101562 418.398438 558.84375 418.449219 C 558.585938 418.5 558.328125 418.527344 558.066406 418.527344 L 410.121094 418.527344 L 410.121094 142.449219 L 558.027344 142.449219 C 558.289062 142.449219 558.550781 142.476562 558.804688 142.527344 C 559.0625 142.578125 559.3125 142.65625 559.554688 142.757812 C 559.796875 142.855469 560.027344 142.980469 560.242188 143.125 C 560.460938 143.273438 560.664062 143.4375 560.847656 143.625 C 561.03125 143.808594 561.195312 144.011719 561.34375 144.230469 C 561.488281 144.445312 561.609375 144.675781 561.710938 144.917969 C 561.8125 145.160156 561.886719 145.410156 561.9375 145.667969 C 561.988281 145.925781 562.011719 146.183594 562.011719 146.445312 L 562.011719 184.457031 C 562.015625 184.925781 561.9375 185.382812 561.777344 185.824219 C 561.617188 186.265625 561.386719 186.667969 561.082031 187.027344 C 560.78125 187.386719 560.425781 187.679688 560.015625 187.914062 C 559.609375 188.144531 559.171875 188.300781 558.710938 188.378906 C 553.253906 189.171875 547.914062 190.441406 542.683594 192.183594 C 537.457031 193.925781 532.421875 196.113281 527.582031 198.753906 C 522.742188 201.390625 518.175781 204.433594 513.875 207.882812 C 509.578125 211.332031 505.617188 215.136719 501.996094 219.289062 Z M 501.996094 219.289062 " fill-opacity="1" fill-rule="nonzero"/></g><path fill="#1a56db" d="M 270.449219 235.988281 C 270.449219 236.734375 270.40625 237.476562 270.320312 238.21875 C 270.234375 238.960938 270.105469 239.695312 269.9375 240.421875 C 269.769531 241.148438 269.558594 241.863281 269.308594 242.566406 C 269.054688 243.269531 268.765625 243.953125 268.433594 244.625 C 268.105469 245.292969 267.738281 245.941406 267.332031 246.570312 C 266.929688 247.195312 266.492188 247.796875 266.015625 248.375 C 265.542969 248.953125 265.039062 249.5 264.503906 250.019531 C 263.964844 250.539062 263.402344 251.023438 262.808594 251.476562 C 262.21875 251.933594 261.601562 252.351562 260.960938 252.734375 C 260.320312 253.117188 259.664062 253.464844 258.984375 253.773438 C 258.304688 254.082031 257.609375 254.347656 256.898438 254.578125 C 256.1875 254.804688 255.464844 254.992188 254.734375 255.136719 C 254 255.285156 253.265625 255.386719 252.519531 255.449219 C 251.777344 255.507812 251.03125 255.527344 250.285156 255.503906 C 249.539062 255.476562 248.796875 255.410156 248.058594 255.300781 C 247.320312 255.191406 246.59375 255.042969 245.871094 254.847656 C 245.152344 254.65625 244.441406 254.421875 243.75 254.148438 C 243.054688 253.871094 242.378906 253.558594 241.722656 253.207031 C 241.0625 252.855469 240.425781 252.46875 239.8125 252.042969 C 239.199219 251.617188 238.613281 251.160156 238.050781 250.667969 C 237.492188 250.175781 236.960938 249.652344 236.457031 249.101562 C 235.957031 248.546875 235.488281 247.96875 235.054688 247.359375 C 234.621094 246.753906 234.222656 246.125 233.859375 245.472656 C 233.496094 244.820312 233.171875 244.148438 232.886719 243.460938 C 232.601562 242.769531 232.355469 242.066406 232.152344 241.347656 C 231.945312 240.632812 231.785156 239.90625 231.664062 239.167969 C 231.542969 238.433594 231.460938 237.691406 231.425781 236.945312 C 231.390625 236.199219 231.394531 235.457031 231.445312 234.710938 C 231.492188 233.964844 231.585938 233.226562 231.71875 232.492188 C 231.851562 231.757812 232.027344 231.035156 232.242188 230.320312 C 232.460938 229.605469 232.71875 228.90625 233.015625 228.222656 C 233.3125 227.539062 233.648438 226.871094 234.019531 226.226562 C 234.394531 225.578125 234.800781 224.957031 235.246094 224.359375 C 235.691406 223.757812 236.167969 223.1875 236.679688 222.640625 C 237.1875 222.097656 237.730469 221.582031 238.296875 221.101562 C 238.867188 220.617188 239.460938 220.171875 240.082031 219.753906 C 240.703125 219.339844 241.34375 218.964844 242.007812 218.621094 C 242.671875 218.28125 243.355469 217.980469 244.054688 217.71875 C 244.75 217.453125 245.460938 217.234375 246.1875 217.050781 C 246.910156 216.871094 247.640625 216.730469 248.382812 216.632812 C 249.121094 216.535156 249.863281 216.480469 250.609375 216.46875 C 251.355469 216.457031 252.101562 216.488281 252.84375 216.5625 C 253.585938 216.636719 254.324219 216.75 255.050781 216.910156 C 255.78125 217.066406 256.5 217.265625 257.207031 217.507812 C 257.914062 217.746094 258.601562 218.027344 259.277344 218.34375 C 259.953125 218.664062 260.605469 219.019531 261.238281 219.414062 C 261.875 219.808594 262.480469 220.238281 263.066406 220.703125 C 263.652344 221.167969 264.207031 221.664062 264.734375 222.191406 C 265.644531 223.09375 266.453125 224.078125 267.167969 225.144531 C 267.878906 226.210938 268.480469 227.332031 268.972656 228.519531 C 269.460938 229.703125 269.832031 230.921875 270.078125 232.179688 C 270.328125 233.4375 270.449219 234.707031 270.449219 235.988281 Z M 270.449219 235.988281 " fill-opacity="1" fill-rule="nonzero"/><path fill="#1a56db" d="M 181.511719 324.925781 C 181.511719 325.667969 181.46875 326.410156 181.382812 327.152344 C 181.296875 327.890625 181.167969 328.621094 181 329.347656 C 180.828125 330.074219 180.621094 330.785156 180.367188 331.488281 C 180.117188 332.1875 179.828125 332.871094 179.496094 333.539062 C 179.167969 334.207031 178.800781 334.855469 178.394531 335.480469 C 177.992188 336.105469 177.554688 336.707031 177.082031 337.28125 C 176.609375 337.855469 176.105469 338.402344 175.570312 338.917969 C 175.035156 339.4375 174.472656 339.921875 173.878906 340.375 C 173.289062 340.828125 172.675781 341.246094 172.035156 341.628906 C 171.398438 342.011719 170.738281 342.355469 170.058594 342.664062 C 169.382812 342.96875 168.6875 343.238281 167.980469 343.464844 C 167.269531 343.691406 166.550781 343.878906 165.820312 344.023438 C 165.089844 344.167969 164.351562 344.269531 163.609375 344.332031 C 162.871094 344.390625 162.125 344.410156 161.382812 344.386719 C 160.636719 344.359375 159.898438 344.292969 159.160156 344.183594 C 158.425781 344.074219 157.695312 343.921875 156.976562 343.730469 C 156.257812 343.539062 155.550781 343.304688 154.859375 343.03125 C 154.167969 342.757812 153.492188 342.445312 152.835938 342.09375 C 152.179688 341.742188 151.546875 341.355469 150.933594 340.929688 C 150.320312 340.507812 149.734375 340.050781 149.175781 339.558594 C 148.617188 339.066406 148.085938 338.546875 147.585938 337.992188 C 147.085938 337.441406 146.621094 336.863281 146.1875 336.257812 C 145.753906 335.652344 145.355469 335.023438 144.992188 334.375 C 144.632812 333.722656 144.308594 333.054688 144.023438 332.367188 C 143.738281 331.679688 143.496094 330.976562 143.289062 330.261719 C 143.085938 329.542969 142.921875 328.820312 142.800781 328.085938 C 142.679688 327.347656 142.601562 326.609375 142.566406 325.867188 C 142.527344 325.121094 142.535156 324.378906 142.582031 323.636719 C 142.632812 322.894531 142.722656 322.15625 142.855469 321.421875 C 142.988281 320.691406 143.164062 319.96875 143.378906 319.257812 C 143.597656 318.542969 143.851562 317.84375 144.148438 317.164062 C 144.445312 316.480469 144.777344 315.816406 145.152344 315.171875 C 145.523438 314.527344 145.929688 313.902344 146.375 313.304688 C 146.816406 312.707031 147.292969 312.136719 147.804688 311.59375 C 148.3125 311.050781 148.851562 310.539062 149.417969 310.054688 C 149.984375 309.574219 150.578125 309.125 151.199219 308.710938 C 151.816406 308.296875 152.457031 307.921875 153.121094 307.582031 C 153.78125 307.242188 154.460938 306.941406 155.160156 306.675781 C 155.855469 306.414062 156.566406 306.191406 157.289062 306.011719 C 158.007812 305.832031 158.738281 305.691406 159.476562 305.59375 C 160.214844 305.496094 160.957031 305.441406 161.703125 305.429688 C 162.445312 305.417969 163.1875 305.445312 163.929688 305.519531 C 164.671875 305.59375 165.40625 305.707031 166.132812 305.863281 C 166.863281 306.023438 167.578125 306.21875 168.28125 306.457031 C 168.988281 306.699219 169.675781 306.976562 170.351562 307.292969 C 171.023438 307.613281 171.675781 307.96875 172.308594 308.359375 C 172.941406 308.753906 173.550781 309.183594 174.132812 309.644531 C 174.714844 310.105469 175.269531 310.601562 175.796875 311.128906 C 176.707031 312.03125 177.515625 313.015625 178.230469 314.082031 C 178.945312 315.144531 179.546875 316.269531 180.035156 317.453125 C 180.527344 318.636719 180.894531 319.859375 181.144531 321.117188 C 181.390625 322.375 181.515625 323.644531 181.511719 324.925781 Z M 181.511719 324.925781 " fill-opacity="1" fill-rule="nonzero"/><g clip-path="url(#8936cad057)"><path fill="#1a56db" d="M 513.332031 19.070312 C 511.984375 17.71875 510.570312 16.441406 509.097656 15.230469 C 507.621094 14.019531 506.089844 12.886719 504.503906 11.824219 C 502.914062 10.765625 501.28125 9.785156 499.597656 8.886719 C 497.914062 7.988281 496.191406 7.171875 494.429688 6.441406 C 492.664062 5.710938 490.871094 5.070312 489.046875 4.515625 C 487.21875 3.960938 485.371094 3.5 483.5 3.125 C 481.625 2.753906 479.742188 2.476562 477.84375 2.289062 C 475.941406 2.101562 474.039062 2.007812 472.132812 2.007812 C 470.222656 2.007812 468.320312 2.101562 466.421875 2.289062 C 464.519531 2.476562 462.636719 2.753906 460.765625 3.125 C 458.890625 3.5 457.042969 3.960938 455.21875 4.515625 C 453.390625 5.070312 451.597656 5.710938 449.832031 6.441406 C 448.070312 7.171875 446.347656 7.988281 444.664062 8.886719 C 442.980469 9.785156 441.347656 10.765625 439.761719 11.824219 C 438.171875 12.886719 436.640625 14.019531 435.167969 15.230469 C 433.691406 16.441406 432.277344 17.71875 430.929688 19.070312 C 419 31 407.722656 64.09375 400.03125 91.234375 C 392.351562 64.09375 381.113281 31 369.132812 19.070312 C 367.789062 17.703125 366.378906 16.410156 364.902344 15.183594 C 363.429688 13.957031 361.898438 12.804688 360.3125 11.730469 C 358.726562 10.65625 357.089844 9.660156 355.40625 8.746094 C 353.71875 7.835938 351.992188 7.003906 350.226562 6.261719 C 348.457031 5.519531 346.660156 4.863281 344.828125 4.300781 C 342.996094 3.734375 341.140625 3.257812 339.261719 2.875 C 337.382812 2.496094 335.492188 2.207031 333.585938 2.007812 C 331.679688 1.8125 329.765625 1.710938 327.847656 1.707031 C 325.933594 1.699219 324.019531 1.785156 322.109375 1.96875 C 320.203125 2.148438 318.308594 2.425781 316.425781 2.792969 C 314.546875 3.164062 312.6875 3.621094 310.851562 4.175781 C 309.015625 4.726562 307.210938 5.367188 305.4375 6.097656 C 303.667969 6.828125 301.933594 7.644531 300.242188 8.546875 C 298.550781 9.445312 296.90625 10.429688 295.3125 11.492188 C 293.71875 12.554688 292.179688 13.695312 290.695312 14.910156 C 289.214844 16.125 287.796875 17.410156 286.4375 18.765625 C 285.082031 20.121094 283.796875 21.542969 282.582031 23.023438 C 281.367188 24.507812 280.226562 26.042969 279.164062 27.640625 C 278.101562 29.234375 277.117188 30.878906 276.214844 32.570312 C 275.3125 34.261719 274.5 35.992188 273.769531 37.765625 C 273.039062 39.539062 272.394531 41.339844 271.84375 43.175781 C 271.289062 45.011719 270.828125 46.871094 270.460938 48.753906 C 270.089844 50.632812 269.816406 52.527344 269.632812 54.4375 C 269.453125 56.34375 269.363281 58.257812 269.371094 60.175781 C 269.378906 62.089844 269.480469 64.003906 269.675781 65.910156 C 269.871094 67.816406 270.160156 69.710938 270.539062 71.589844 C 270.921875 73.46875 271.398438 75.320312 271.960938 77.152344 C 272.527344 78.984375 273.183594 80.785156 273.925781 82.550781 C 274.667969 84.320312 275.496094 86.046875 276.410156 87.730469 C 277.324219 89.417969 278.316406 91.050781 279.390625 92.640625 C 280.464844 94.226562 281.617188 95.757812 282.84375 97.230469 C 284.070312 98.707031 285.363281 100.113281 286.730469 101.460938 C 294.15625 108.890625 309.78125 116.050781 327.085938 122.269531 L 473 122.269531 C 490.277344 116.050781 505.90625 108.890625 513.359375 101.460938 C 514.707031 100.113281 515.988281 98.699219 517.199219 97.222656 C 518.40625 95.75 519.542969 94.21875 520.601562 92.632812 C 521.664062 91.046875 522.640625 89.410156 523.542969 87.726562 C 524.441406 86.046875 525.253906 84.324219 525.984375 82.558594 C 526.714844 80.796875 527.359375 79.003906 527.910156 77.175781 C 528.464844 75.351562 528.929688 73.503906 529.300781 71.628906 C 529.671875 69.757812 529.953125 67.875 530.140625 65.976562 C 530.324219 64.078125 530.417969 62.171875 530.417969 60.265625 C 530.417969 58.355469 530.324219 56.453125 530.140625 54.554688 C 529.953125 52.65625 529.671875 50.769531 529.300781 48.898438 C 528.929688 47.027344 528.464844 45.179688 527.910156 43.355469 C 527.359375 41.527344 526.714844 39.734375 525.984375 37.972656 C 525.253906 36.207031 524.441406 34.484375 523.542969 32.800781 C 522.640625 31.121094 521.664062 29.484375 520.601562 27.898438 C 519.542969 26.3125 518.40625 24.78125 517.199219 23.304688 C 515.988281 21.832031 514.707031 20.417969 513.359375 19.070312 Z M 300.953125 87.195312 C 300.074219 86.316406 299.238281 85.390625 298.445312 84.425781 C 297.65625 83.464844 296.914062 82.460938 296.222656 81.425781 C 295.53125 80.386719 294.890625 79.320312 294.300781 78.21875 C 293.714844 77.121094 293.183594 75.992188 292.707031 74.839844 C 292.230469 73.6875 291.808594 72.515625 291.449219 71.324219 C 291.085938 70.128906 290.785156 68.921875 290.542969 67.699219 C 290.300781 66.472656 290.117188 65.242188 289.996094 64 C 289.871094 62.761719 289.8125 61.515625 289.8125 60.269531 C 289.8125 59.023438 289.875 57.777344 289.996094 56.539062 C 290.121094 55.296875 290.300781 54.0625 290.546875 52.839844 C 290.789062 51.617188 291.09375 50.410156 291.453125 49.214844 C 291.816406 48.023438 292.234375 46.851562 292.714844 45.699219 C 293.191406 44.546875 293.722656 43.421875 294.3125 42.320312 C 294.898438 41.222656 295.539062 40.152344 296.234375 39.117188 C 296.925781 38.078125 297.667969 37.078125 298.457031 36.113281 C 299.25 35.152344 300.085938 34.226562 300.96875 33.347656 C 301.851562 32.464844 302.773438 31.628906 303.738281 30.835938 C 304.699219 30.046875 305.699219 29.304688 306.738281 28.609375 C 307.773438 27.917969 308.84375 27.277344 309.941406 26.691406 C 311.042969 26.101562 312.167969 25.570312 313.320312 25.09375 C 314.472656 24.613281 315.644531 24.195312 316.839844 23.832031 C 318.03125 23.46875 319.238281 23.167969 320.460938 22.925781 C 321.6875 22.679688 322.917969 22.496094 324.160156 22.375 C 325.398438 22.253906 326.644531 22.191406 327.890625 22.191406 C 329.136719 22.191406 330.382812 22.25 331.621094 22.375 C 332.863281 22.496094 334.097656 22.675781 335.320312 22.921875 C 336.542969 23.164062 337.75 23.464844 338.945312 23.828125 C 340.136719 24.1875 341.308594 24.609375 342.460938 25.085938 C 343.613281 25.5625 344.742188 26.09375 345.839844 26.679688 C 346.941406 27.269531 348.007812 27.910156 349.046875 28.601562 C 350.082031 29.292969 351.085938 30.035156 352.050781 30.824219 C 353.011719 31.617188 353.9375 32.453125 354.820312 33.332031 C 365.199219 43.726562 378.339844 86.300781 386.4375 118.8125 C 353.921875 110.71875 311.398438 97.589844 300.953125 87.195312 Z M 507.292969 74.839844 C 505.351562 79.507812 502.589844 83.628906 499.007812 87.195312 C 488.628906 97.589844 446.039062 110.71875 413.523438 118.8125 C 421.621094 86.265625 434.75 43.726562 445.15625 33.332031 C 445.925781 32.5625 446.730469 31.828125 447.566406 31.128906 C 448.402344 30.429688 449.265625 29.765625 450.160156 29.140625 C 451.050781 28.515625 451.96875 27.929688 452.910156 27.378906 C 453.855469 26.832031 454.820312 26.328125 455.804688 25.863281 C 456.792969 25.398438 457.796875 24.976562 458.816406 24.597656 C 459.839844 24.222656 460.878906 23.886719 461.929688 23.597656 C 462.980469 23.308594 464.039062 23.066406 465.113281 22.867188 C 466.183594 22.667969 467.261719 22.515625 468.347656 22.410156 C 469.433594 22.304688 470.519531 22.246094 471.609375 22.234375 C 472.699219 22.222656 473.789062 22.253906 474.875 22.335938 C 475.964844 22.417969 477.042969 22.542969 478.121094 22.71875 C 479.195312 22.890625 480.261719 23.113281 481.320312 23.378906 C 482.378906 23.640625 483.421875 23.953125 484.453125 24.308594 C 485.484375 24.664062 486.496094 25.0625 487.492188 25.503906 C 488.488281 25.945312 489.464844 26.429688 490.421875 26.953125 C 491.375 27.480469 492.304688 28.046875 493.214844 28.652344 C 494.121094 29.257812 495 29.898438 495.851562 30.578125 C 496.699219 31.261719 497.523438 31.976562 498.3125 32.726562 C 499.101562 33.480469 499.855469 34.261719 500.578125 35.078125 C 501.300781 35.894531 501.988281 36.742188 502.640625 37.617188 C 503.289062 38.492188 503.898438 39.394531 504.472656 40.320312 C 505.046875 41.246094 505.578125 42.199219 506.070312 43.171875 C 506.558594 44.144531 507.007812 45.136719 507.414062 46.148438 C 507.820312 47.160156 508.183594 48.1875 508.5 49.230469 C 508.816406 50.273438 509.089844 51.328125 509.316406 52.394531 C 509.546875 53.460938 509.726562 54.535156 509.863281 55.613281 C 509.996094 56.695312 510.085938 57.78125 510.128906 58.871094 C 510.167969 59.960938 510.164062 61.050781 510.113281 62.136719 C 510.0625 63.226562 509.964844 64.3125 509.820312 65.394531 C 509.675781 66.472656 509.484375 67.546875 509.25 68.609375 C 509.011719 69.671875 508.730469 70.726562 508.402344 71.765625 C 508.078125 72.804688 507.707031 73.828125 507.292969 74.839844 Z M 507.292969 74.839844 " fill-opacity="1" fill-rule="nonzero"/></g><g clip-path="url(#0093ad5a8a)"><g transform="matrix(1, 0, 0, 1, 577, 23)"><g clip-path="url(#163deebbb7)"><g fill="#1a56db" fill-opacity="1"><g transform="translate(0.959354, 396.663562)"><g><path d="M 172.828125 0 L 11.078125 0 L 11.078125 -276.84375 L 162.546875 -276.84375 C 183.109375 -276.84375 201.164062 -274.269531 216.71875 -269.125 C 232.28125 -263.988281 244.476562 -256.273438 253.3125 -245.984375 C 262.144531 -235.703125 266.5625 -222.785156 266.5625 -207.234375 C 266.5625 -187.722656 259.375 -172.429688 245 -161.359375 C 230.632812 -150.285156 210.269531 -144.75 183.90625 -144.75 L 183.90625 -138.421875 C 213.695312 -138.421875 236.632812 -133.34375 252.71875 -123.1875 C 268.800781 -113.039062 276.84375 -97.289062 276.84375 -75.9375 C 276.84375 -52.207031 267.484375 -33.617188 248.765625 -20.171875 C 230.046875 -6.722656 204.734375 0 172.828125 0 Z M 100.84375 -174.015625 L 100.84375 -149.5 L 153.046875 -149.5 C 159.898438 -149.5 165.304688 -150.484375 169.265625 -152.453125 C 173.222656 -154.429688 175.203125 -157.53125 175.203125 -161.75 C 175.203125 -165.96875 173.023438 -169.066406 168.671875 -171.046875 C 164.328125 -173.023438 158.722656 -174.015625 151.859375 -174.015625 Z M 100.84375 -130.515625 L 100.84375 -103.609375 L 156.609375 -103.609375 C 171.898438 -103.609375 179.546875 -108.09375 179.546875 -117.0625 C 179.546875 -126.03125 171.898438 -130.515625 156.609375 -130.515625 Z M 100.84375 -130.515625 "/></g></g></g><g fill="#1a56db" fill-opacity="1"><g transform="translate(266.323906, 396.663562)"><g><path d="M 201.703125 0 L 89.78125 0 L -4.75 -276.84375 L 117.859375 -276.84375 L 142.765625 -123.390625 L 149.09375 -123.390625 L 172.828125 -276.84375 L 295.828125 -276.84375 Z M 201.703125 0 "/></g></g></g></g></g></g><g clip-path="url(#d4d1ecbbcd)"><g transform="matrix(1, 0, 0, 1, 27, 472)"><g clip-path="url(#1d97d4998f)"><g fill="#1a56db" fill-opacity="1"><g transform="translate(0.726884, 90.283966)"><g><path d="M 49.828125 -16.96875 C 52.679688 -16.96875 55.457031 -17.398438 58.15625 -18.265625 C 60.851562 -19.128906 62.832031 -19.960938 64.09375 -20.765625 L 66 -22.0625 L 73.984375 -6.09375 C 73.710938 -5.894531 73.34375 -5.628906 72.875 -5.296875 C 72.414062 -4.960938 71.335938 -4.34375 69.640625 -3.4375 C 67.941406 -2.539062 66.125 -1.757812 64.1875 -1.09375 C 62.257812 -0.425781 59.734375 0.171875 56.609375 0.703125 C 53.484375 1.234375 50.253906 1.5 46.921875 1.5 C 39.265625 1.5 32.007812 -0.378906 25.15625 -4.140625 C 18.300781 -7.898438 12.773438 -13.070312 8.578125 -19.65625 C 4.390625 -26.25 2.296875 -33.375 2.296875 -41.03125 C 2.296875 -46.820312 3.523438 -52.378906 5.984375 -57.703125 C 8.453125 -63.035156 11.734375 -67.597656 15.828125 -71.390625 C 19.921875 -75.179688 24.695312 -78.207031 30.15625 -80.46875 C 35.613281 -82.738281 41.203125 -83.875 46.921875 -83.875 C 52.242188 -83.875 57.148438 -83.238281 61.640625 -81.96875 C 66.140625 -80.707031 69.320312 -79.441406 71.1875 -78.171875 L 73.984375 -76.28125 L 66 -60.3125 C 65.53125 -60.707031 64.828125 -61.1875 63.890625 -61.75 C 62.960938 -62.320312 61.097656 -63.070312 58.296875 -64 C 55.503906 -64.925781 52.679688 -65.390625 49.828125 -65.390625 C 45.296875 -65.390625 41.234375 -64.65625 37.640625 -63.1875 C 34.046875 -61.726562 31.195312 -59.800781 29.09375 -57.40625 C 27 -55.007812 25.40625 -52.429688 24.3125 -49.671875 C 23.21875 -46.910156 22.671875 -44.097656 22.671875 -41.234375 C 22.671875 -34.972656 25.015625 -29.363281 29.703125 -24.40625 C 34.398438 -19.445312 41.109375 -16.96875 49.828125 -16.96875 Z M 49.828125 -16.96875 "/></g></g></g><g fill="#1a56db" fill-opacity="1"><g transform="translate(75.906945, 90.283966)"><g><path d="M 9.484375 -6.328125 C 4.691406 -11.554688 2.296875 -17.960938 2.296875 -25.546875 C 2.296875 -33.140625 4.691406 -39.566406 9.484375 -44.828125 C 14.273438 -50.085938 20.363281 -52.71875 27.75 -52.71875 C 34.539062 -52.71875 40.132812 -50.585938 44.53125 -46.328125 L 44.53125 -51.21875 L 62.203125 -51.21875 L 62.203125 0 L 44.734375 0 L 44.734375 -5.796875 L 44.53125 -5.796875 C 40.132812 -0.929688 34.539062 1.5 27.75 1.5 C 20.363281 1.5 14.273438 -1.109375 9.484375 -6.328125 Z M 24.5 -34.25 C 22.207031 -31.988281 21.0625 -29.09375 21.0625 -25.5625 C 21.0625 -22.03125 22.160156 -19.148438 24.359375 -16.921875 C 26.554688 -14.691406 29.453125 -13.578125 33.046875 -13.578125 C 36.503906 -13.578125 39.347656 -14.707031 41.578125 -16.96875 C 43.804688 -19.238281 44.921875 -22.101562 44.921875 -25.5625 C 44.921875 -29.09375 43.773438 -31.988281 41.484375 -34.25 C 39.191406 -36.507812 36.378906 -37.640625 33.046875 -37.640625 C 29.648438 -37.640625 26.800781 -36.507812 24.5 -34.25 Z M 24.5 -34.25 "/></g></g></g><g fill="#1a56db" fill-opacity="1"><g transform="translate(144.098159, 90.283966)"><g><path d="M 5.984375 0 L 5.984375 -51.21875 L 23.65625 -51.21875 L 23.65625 -43.828125 L 23.859375 -43.828125 C 23.992188 -44.097656 24.207031 -44.429688 24.5 -44.828125 C 24.800781 -45.222656 25.453125 -45.921875 26.453125 -46.921875 C 27.453125 -47.921875 28.515625 -48.820312 29.640625 -49.625 C 30.773438 -50.425781 32.242188 -51.140625 34.046875 -51.765625 C 35.847656 -52.398438 37.675781 -52.71875 39.53125 -52.71875 C 41.46875 -52.71875 43.367188 -52.453125 45.234375 -51.921875 C 47.097656 -51.390625 48.460938 -50.859375 49.328125 -50.328125 L 50.71875 -49.515625 L 43.328125 -34.546875 C 41.128906 -36.410156 38.066406 -37.34375 34.140625 -37.34375 C 32.015625 -37.34375 30.1875 -36.875 28.65625 -35.9375 C 27.125 -35.007812 26.039062 -33.878906 25.40625 -32.546875 C 24.78125 -31.210938 24.332031 -30.078125 24.0625 -29.140625 C 23.789062 -28.210938 23.65625 -27.484375 23.65625 -26.953125 L 23.65625 0 Z M 5.984375 0 "/></g></g></g><g fill="#1a56db" fill-opacity="1"><g transform="translate(193.818832, 90.283966)"><g><path d="M 8.984375 -51.21875 L 8.984375 -70.296875 L 26.65625 -70.296875 L 26.65625 -51.21875 L 37.4375 -51.21875 L 37.4375 -37.734375 L 26.65625 -37.734375 L 26.65625 -21.46875 C 26.65625 -16.738281 27.988281 -14.375 30.65625 -14.375 C 31.320312 -14.375 32.019531 -14.503906 32.75 -14.765625 C 33.476562 -15.035156 34.046875 -15.304688 34.453125 -15.578125 L 35.046875 -15.96875 L 39.4375 -1.703125 C 35.644531 0.429688 31.316406 1.5 26.453125 1.5 C 23.128906 1.5 20.269531 0.914062 17.875 -0.25 C 15.476562 -1.414062 13.660156 -2.976562 12.421875 -4.9375 C 11.191406 -6.90625 10.3125 -8.96875 9.78125 -11.125 C 9.25 -13.289062 8.984375 -15.609375 8.984375 -18.078125 L 8.984375 -37.734375 L 1.59375 -37.734375 L 1.59375 -51.21875 Z M 8.984375 -51.21875 "/></g></g></g><g fill="#1a56db" fill-opacity="1"><g transform="translate(233.255903, 90.283966)"><g><path d="M 57.8125 -23.15625 L 20.671875 -23.15625 C 20.671875 -19.5625 21.832031 -16.898438 24.15625 -15.171875 C 26.488281 -13.441406 29.019531 -12.578125 31.75 -12.578125 C 34.613281 -12.578125 36.875 -12.957031 38.53125 -13.71875 C 40.195312 -14.488281 42.097656 -16.003906 44.234375 -18.265625 L 57.015625 -11.875 C 51.679688 -2.957031 42.828125 1.5 30.453125 1.5 C 22.734375 1.5 16.109375 -1.144531 10.578125 -6.4375 C 5.054688 -11.726562 2.296875 -18.101562 2.296875 -25.5625 C 2.296875 -33.019531 5.054688 -39.410156 10.578125 -44.734375 C 16.109375 -50.054688 22.734375 -52.71875 30.453125 -52.71875 C 38.578125 -52.71875 45.179688 -50.367188 50.265625 -45.671875 C 55.359375 -40.984375 57.90625 -34.28125 57.90625 -25.5625 C 57.90625 -24.363281 57.875 -23.5625 57.8125 -23.15625 Z M 21.171875 -32.953125 L 40.640625 -32.953125 C 40.234375 -35.609375 39.179688 -37.648438 37.484375 -39.078125 C 35.785156 -40.515625 33.609375 -41.234375 30.953125 -41.234375 C 28.023438 -41.234375 25.691406 -40.46875 23.953125 -38.9375 C 22.222656 -37.40625 21.296875 -35.410156 21.171875 -32.953125 Z M 21.171875 -32.953125 "/></g></g></g><g fill="#1a56db" fill-opacity="1"><g transform="translate(293.260176, 90.283966)"><g><path d="M 5.984375 0 L 5.984375 -51.21875 L 23.65625 -51.21875 L 23.65625 -43.828125 L 23.859375 -43.828125 C 23.992188 -44.097656 24.207031 -44.429688 24.5 -44.828125 C 24.800781 -45.222656 25.453125 -45.921875 26.453125 -46.921875 C 27.453125 -47.921875 28.515625 -48.820312 29.640625 -49.625 C 30.773438 -50.425781 32.242188 -51.140625 34.046875 -51.765625 C 35.847656 -52.398438 37.675781 -52.71875 39.53125 -52.71875 C 41.46875 -52.71875 43.367188 -52.453125 45.234375 -51.921875 C 47.097656 -51.390625 48.460938 -50.859375 49.328125 -50.328125 L 50.71875 -49.515625 L 43.328125 -34.546875 C 41.128906 -36.410156 38.066406 -37.34375 34.140625 -37.34375 C 32.015625 -37.34375 30.1875 -36.875 28.65625 -35.9375 C 27.125 -35.007812 26.039062 -33.878906 25.40625 -32.546875 C 24.78125 -31.210938 24.332031 -30.078125 24.0625 -29.140625 C 23.789062 -28.210938 23.65625 -27.484375 23.65625 -26.953125 L 23.65625 0 Z M 5.984375 0 "/></g></g></g><g fill="#1a56db" fill-opacity="1"><g transform="translate(342.980849, 90.283966)"><g/></g></g><g fill="#1a56db" fill-opacity="1"><g transform="translate(370.237361, 90.283966)"><g><path d="M 5.984375 -82.375 L 31.546875 -82.375 C 39.265625 -82.375 45.421875 -80.722656 50.015625 -77.421875 C 54.609375 -74.128906 56.90625 -68.789062 56.90625 -61.40625 C 56.90625 -53.144531 53.476562 -47.253906 46.625 -43.734375 C 58.34375 -41.671875 64.203125 -34.75 64.203125 -22.96875 C 64.203125 -16.039062 61.804688 -10.476562 57.015625 -6.28125 C 52.222656 -2.09375 45.628906 0 37.234375 0 L 5.984375 0 Z M 24.765625 -50.125 L 26.265625 -50.125 C 30.453125 -50.125 33.578125 -50.851562 35.640625 -52.3125 C 37.703125 -53.78125 38.734375 -56.175781 38.734375 -59.5 C 38.734375 -65.09375 34.578125 -67.890625 26.265625 -67.890625 L 24.765625 -67.890625 Z M 24.765625 -14.484375 L 30.65625 -14.484375 C 39.84375 -14.484375 44.4375 -17.539062 44.4375 -23.65625 C 44.4375 -27.320312 43.285156 -29.953125 40.984375 -31.546875 C 38.691406 -33.148438 35.25 -33.953125 30.65625 -33.953125 L 24.765625 -33.953125 Z M 24.765625 -14.484375 "/></g></g></g><g fill="#1a56db" fill-opacity="1"><g transform="translate(436.731275, 90.283966)"><g><path d="M 9.484375 -6.328125 C 4.691406 -11.554688 2.296875 -17.960938 2.296875 -25.546875 C 2.296875 -33.140625 4.691406 -39.566406 9.484375 -44.828125 C 14.273438 -50.085938 20.363281 -52.71875 27.75 -52.71875 C 34.539062 -52.71875 40.132812 -50.585938 44.53125 -46.328125 L 44.53125 -51.21875 L 62.203125 -51.21875 L 62.203125 0 L 44.734375 0 L 44.734375 -5.796875 L 44.53125 -5.796875 C 40.132812 -0.929688 34.539062 1.5 27.75 1.5 C 20.363281 1.5 14.273438 -1.109375 9.484375 -6.328125 Z M 24.5 -34.25 C 22.207031 -31.988281 21.0625 -29.09375 21.0625 -25.5625 C 21.0625 -22.03125 22.160156 -19.148438 24.359375 -16.921875 C 26.554688 -14.691406 29.453125 -13.578125 33.046875 -13.578125 C 36.503906 -13.578125 39.347656 -14.707031 41.578125 -16.96875 C 43.804688 -19.238281 44.921875 -22.101562 44.921875 -25.5625 C 44.921875 -29.09375 43.773438 -31.988281 41.484375 -34.25 C 39.191406 -36.507812 36.378906 -37.640625 33.046875 -37.640625 C 29.648438 -37.640625 26.800781 -36.507812 24.5 -34.25 Z M 24.5 -34.25 "/></g></g></g><g fill="#1a56db" fill-opacity="1"><g transform="translate(504.9225, 90.283966)"><g><path d="M 5.984375 0 L 5.984375 -51.21875 L 23.65625 -51.21875 L 23.65625 -45.828125 L 23.859375 -45.828125 C 28.453125 -50.421875 33.347656 -52.71875 38.546875 -52.71875 C 41.066406 -52.71875 43.578125 -52.382812 46.078125 -51.71875 C 48.578125 -51.050781 50.972656 -50.019531 53.265625 -48.625 C 55.566406 -47.226562 57.429688 -45.25 58.859375 -42.6875 C 60.285156 -40.125 61 -37.144531 61 -33.75 L 61 0 L 43.328125 0 L 43.328125 -28.953125 C 43.328125 -31.617188 42.476562 -33.945312 40.78125 -35.9375 C 39.082031 -37.9375 36.867188 -38.9375 34.140625 -38.9375 C 31.484375 -38.9375 29.070312 -37.90625 26.90625 -35.84375 C 24.738281 -33.78125 23.65625 -31.484375 23.65625 -28.953125 L 23.65625 0 Z M 5.984375 0 "/></g></g></g><g fill="#1a56db" fill-opacity="1"><g transform="translate(570.917207, 90.283966)"><g><path d="M 64.5 -51.21875 L 40.140625 -26.765625 L 66.890625 0 L 44.125 0 L 23.65625 -20.46875 L 23.65625 0 L 5.984375 0 L 5.984375 -85.859375 L 23.65625 -85.859375 L 23.65625 -33.34375 L 41.53125 -51.21875 Z M 64.5 -51.21875 "/></g></g></g><g fill="#1a56db" fill-opacity="1"><g transform="translate(635.414318, 90.283966)"><g/></g></g><g fill="#1a56db" fill-opacity="1"><g transform="translate(654.183837, 90.283966)"><g><path d="M 31.75 0 L -2.796875 -82.375 L 18.375 -82.375 L 39.140625 -28.25 L 59.90625 -82.375 L 81.078125 -82.375 L 46.53125 0 Z M 31.75 0 "/></g></g></g><g fill="#1a56db" fill-opacity="1"><g transform="translate(725.469644, 90.283966)"><g><path d="M 10.828125 -6.078125 C 5.140625 -11.140625 2.296875 -17.628906 2.296875 -25.546875 C 2.296875 -33.472656 5.253906 -39.984375 11.171875 -45.078125 C 17.097656 -50.171875 24.421875 -52.71875 33.140625 -52.71875 C 41.734375 -52.71875 48.972656 -50.15625 54.859375 -45.03125 C 60.753906 -39.90625 63.703125 -33.414062 63.703125 -25.5625 C 63.703125 -17.707031 60.820312 -11.234375 55.0625 -6.140625 C 49.300781 -1.046875 41.992188 1.5 33.140625 1.5 C 23.960938 1.5 16.523438 -1.023438 10.828125 -6.078125 Z M 24.5 -34.25 C 22.207031 -31.988281 21.0625 -29.09375 21.0625 -25.5625 C 21.0625 -22.03125 22.160156 -19.148438 24.359375 -16.921875 C 26.554688 -14.691406 29.453125 -13.578125 33.046875 -13.578125 C 36.503906 -13.578125 39.347656 -14.707031 41.578125 -16.96875 C 43.804688 -19.238281 44.921875 -22.101562 44.921875 -25.5625 C 44.921875 -29.09375 43.773438 -31.988281 41.484375 -34.25 C 39.191406 -36.507812 36.378906 -37.640625 33.046875 -37.640625 C 29.648438 -37.640625 26.800781 -36.507812 24.5 -34.25 Z M 24.5 -34.25 "/></g></g></g><g fill="#1a56db" fill-opacity="1"><g transform="translate(791.464397, 90.283966)"><g><path d="M 22.671875 -51.21875 L 22.671875 -26.859375 C 22.671875 -21.796875 23.429688 -18.195312 24.953125 -16.0625 C 26.484375 -13.9375 29.078125 -12.875 32.734375 -12.875 C 36.398438 -12.875 39 -13.9375 40.53125 -16.0625 C 42.0625 -18.195312 42.828125 -21.796875 42.828125 -26.859375 L 42.828125 -51.21875 L 60.5 -51.21875 L 60.5 -22.5625 C 60.5 -14.039062 58.285156 -7.898438 53.859375 -4.140625 C 49.429688 -0.378906 42.390625 1.5 32.734375 1.5 C 23.085938 1.5 16.050781 -0.378906 11.625 -4.140625 C 7.195312 -7.898438 4.984375 -14.039062 4.984375 -22.5625 L 4.984375 -51.21875 Z M 22.671875 -51.21875 "/></g></g></g><g fill="#1a56db" fill-opacity="1"><g transform="translate(856.959921, 90.283966)"><g><path d="M 33.25 -38.234375 C 29.914062 -38.234375 27.050781 -37.003906 24.65625 -34.546875 C 22.257812 -32.085938 21.0625 -29.125 21.0625 -25.65625 C 21.0625 -22.132812 22.257812 -19.140625 24.65625 -16.671875 C 27.050781 -14.210938 29.914062 -12.984375 33.25 -12.984375 C 34.84375 -12.984375 36.351562 -13.179688 37.78125 -13.578125 C 39.21875 -13.972656 40.269531 -14.375 40.9375 -14.78125 L 41.828125 -15.375 L 47.828125 -3.09375 C 47.359375 -2.757812 46.707031 -2.34375 45.875 -1.84375 C 45.039062 -1.34375 43.144531 -0.660156 40.1875 0.203125 C 37.226562 1.066406 34.050781 1.5 30.65625 1.5 C 23.132812 1.5 16.523438 -1.144531 10.828125 -6.4375 C 5.140625 -11.726562 2.296875 -18.066406 2.296875 -25.453125 C 2.296875 -32.910156 5.140625 -39.316406 10.828125 -44.671875 C 16.523438 -50.035156 23.132812 -52.71875 30.65625 -52.71875 C 34.050781 -52.71875 37.175781 -52.316406 40.03125 -51.515625 C 42.894531 -50.722656 44.925781 -49.925781 46.125 -49.125 L 47.828125 -47.921875 L 41.828125 -35.84375 C 39.640625 -37.4375 36.78125 -38.234375 33.25 -38.234375 Z M 33.25 -38.234375 "/></g></g></g><g fill="#1a56db" fill-opacity="1"><g transform="translate(905.981694, 90.283966)"><g><path d="M 5.984375 0 L 5.984375 -85.859375 L 23.65625 -85.859375 L 23.65625 -45.828125 L 23.859375 -45.828125 C 28.453125 -50.421875 33.347656 -52.71875 38.546875 -52.71875 C 41.066406 -52.71875 43.578125 -52.382812 46.078125 -51.71875 C 48.578125 -51.050781 50.972656 -50.019531 53.265625 -48.625 C 55.566406 -47.226562 57.429688 -45.25 58.859375 -42.6875 C 60.285156 -40.125 61 -37.144531 61 -33.75 L 61 0 L 43.328125 0 L 43.328125 -28.953125 C 43.328125 -31.617188 42.476562 -33.945312 40.78125 -35.9375 C 39.082031 -37.9375 36.867188 -38.9375 34.140625 -38.9375 C 31.484375 -38.9375 29.070312 -37.90625 26.90625 -35.84375 C 24.738281 -33.78125 23.65625 -31.484375 23.65625 -28.953125 L 23.65625 0 Z M 5.984375 0 "/></g></g></g><g fill="#1a56db" fill-opacity="1"><g transform="translate(971.976356, 90.283966)"><g><path d="M 57.8125 -23.15625 L 20.671875 -23.15625 C 20.671875 -19.5625 21.832031 -16.898438 24.15625 -15.171875 C 26.488281 -13.441406 29.019531 -12.578125 31.75 -12.578125 C 34.613281 -12.578125 36.875 -12.957031 38.53125 -13.71875 C 40.195312 -14.488281 42.097656 -16.003906 44.234375 -18.265625 L 57.015625 -11.875 C 51.679688 -2.957031 42.828125 1.5 30.453125 1.5 C 22.734375 1.5 16.109375 -1.144531 10.578125 -6.4375 C 5.054688 -11.726562 2.296875 -18.101562 2.296875 -25.5625 C 2.296875 -33.019531 5.054688 -39.410156 10.578125 -44.734375 C 16.109375 -50.054688 22.734375 -52.71875 30.453125 -52.71875 C 38.578125 -52.71875 45.179688 -50.367188 50.265625 -45.671875 C 55.359375 -40.984375 57.90625 -34.28125 57.90625 -25.5625 C 57.90625 -24.363281 57.875 -23.5625 57.8125 -23.15625 Z M 21.171875 -32.953125 L 40.640625 -32.953125 C 40.234375 -35.609375 39.179688 -37.648438 37.484375 -39.078125 C 35.785156 -40.515625 33.609375 -41.234375 30.953125 -41.234375 C 28.023438 -41.234375 25.691406 -40.46875 23.953125 -38.9375 C 22.222656 -37.40625 21.296875 -35.410156 21.171875 -32.953125 Z M 21.171875 -32.953125 "/></g></g></g><g fill="#1a56db" fill-opacity="1"><g transform="translate(1031.98063, 90.283966)"><g><path d="M 5.984375 0 L 5.984375 -51.21875 L 23.65625 -51.21875 L 23.65625 -43.828125 L 23.859375 -43.828125 C 23.992188 -44.097656 24.207031 -44.429688 24.5 -44.828125 C 24.800781 -45.222656 25.453125 -45.921875 26.453125 -46.921875 C 27.453125 -47.921875 28.515625 -48.820312 29.640625 -49.625 C 30.773438 -50.425781 32.242188 -51.140625 34.046875 -51.765625 C 35.847656 -52.398438 37.675781 -52.71875 39.53125 -52.71875 C 41.46875 -52.71875 43.367188 -52.453125 45.234375 -51.921875 C 47.097656 -51.390625 48.460938 -50.859375 49.328125 -50.328125 L 50.71875 -49.515625 L 43.328125 -34.546875 C 41.128906 -36.410156 38.066406 -37.34375 34.140625 -37.34375 C 32.015625 -37.34375 30.1875 -36.875 28.65625 -35.9375 C 27.125 -35.007812 26.039062 -33.878906 25.40625 -32.546875 C 24.78125 -31.210938 24.332031 -30.078125 24.0625 -29.140625 C 23.789062 -28.210938 23.65625 -27.484375 23.65625 -26.953125 L 23.65625 0 Z M 5.984375 0 "/></g></g></g></g></g></g></g></g></svg>