<svg xmlns="http://www.w3.org/2000/svg" xmlns:xlink="http://www.w3.org/1999/xlink" width="331" zoomAndPan="magnify" viewBox="0 0 248.25 233.249991" height="311" preserveAspectRatio="xMidYMid meet" version="1.0"><defs><g/><clipPath id="850c391f6f"><path d="M 0.0234375 0 L 232.125 0 L 232.125 232.101562 L 0.0234375 232.101562 Z M 0.0234375 0 " clip-rule="nonzero"/></clipPath><clipPath id="ba71d32109"><path d="M 74.785156 0 L 157.363281 0 C 177.191406 0 196.207031 7.875 210.226562 21.898438 C 224.25 35.917969 232.125 54.933594 232.125 74.757812 L 232.125 157.339844 C 232.125 177.167969 224.25 196.183594 210.226562 210.203125 C 196.207031 224.222656 177.191406 232.101562 157.363281 232.101562 L 74.785156 232.101562 C 54.957031 232.101562 35.941406 224.222656 21.921875 210.203125 C 7.902344 196.183594 0.0234375 177.167969 0.0234375 157.339844 L 0.0234375 74.757812 C 0.0234375 54.933594 7.902344 35.917969 21.921875 21.898438 C 35.941406 7.875 54.957031 0 74.785156 0 Z M 74.785156 0 " clip-rule="nonzero"/></clipPath><clipPath id="a776b29ff2"><path d="M 0.0234375 0 L 232.125 0 L 232.125 232.101562 L 0.0234375 232.101562 Z M 0.0234375 0 " clip-rule="nonzero"/></clipPath><clipPath id="cb3064900b"><path d="M 74.785156 0 L 157.363281 0 C 177.191406 0 196.207031 7.875 210.226562 21.898438 C 224.25 35.917969 232.125 54.933594 232.125 74.757812 L 232.125 157.339844 C 232.125 177.167969 224.25 196.183594 210.226562 210.203125 C 196.207031 224.222656 177.191406 232.101562 157.363281 232.101562 L 74.785156 232.101562 C 54.957031 232.101562 35.941406 224.222656 21.921875 210.203125 C 7.902344 196.183594 0.0234375 177.167969 0.0234375 157.339844 L 0.0234375 74.757812 C 0.0234375 54.933594 7.902344 35.917969 21.921875 21.898438 C 35.941406 7.875 54.957031 0 74.785156 0 Z M 74.785156 0 " clip-rule="nonzero"/></clipPath><clipPath id="f51256f98d"><rect x="0" width="233" y="0" height="233"/></clipPath><clipPath id="be2dddf64d"><path d="M 0.828125 26 L 72 26 L 72 76.828125 L 0.828125 76.828125 Z M 0.828125 26 " clip-rule="nonzero"/></clipPath><clipPath id="23c63cea6e"><path d="M 75 26 L 102.964844 26 L 102.964844 76.828125 L 75 76.828125 Z M 75 26 " clip-rule="nonzero"/></clipPath><clipPath id="1c1874346f"><path d="M 49 0.746094 L 98 0.746094 L 98 23 L 49 23 Z M 49 0.746094 " clip-rule="nonzero"/></clipPath><clipPath id="c8f946808d"><path d="M 105 4 L 208.59375 4 L 208.59375 91.480469 L 105 91.480469 Z M 105 4 " clip-rule="nonzero"/></clipPath><clipPath id="4866f0d6a6"><path d="M 48 22 L 103.59375 22 L 103.59375 73 L 48 73 Z M 48 22 " clip-rule="nonzero"/></clipPath><clipPath id="1548da77ca"><rect x="0" width="104" y="0" height="88"/></clipPath><clipPath id="b717ee1e96"><rect x="0" width="209" y="0" height="92"/></clipPath></defs><g clip-path="url(#850c391f6f)"><g clip-path="url(#ba71d32109)"><g transform="matrix(1, 0, 0, 1, 0, 0)"><g clip-path="url(#f51256f98d)"><g clip-path="url(#a776b29ff2)"><g clip-path="url(#cb3064900b)"><path fill="#1a56db" d="M 0.0234375 0 L 232.125 0 L 232.125 232.101562 L 0.0234375 232.101562 Z M 0.0234375 0 " fill-opacity="1" fill-rule="nonzero"/></g></g></g></g></g></g><g transform="matrix(1, 0, 0, 1, 12, 70)"><g clip-path="url(#b717ee1e96)"><g clip-path="url(#be2dddf64d)"><path fill="#ffffff" d="M 2.898438 26.433594 C 2.773438 26.433594 2.65625 26.464844 2.546875 26.527344 C 2.4375 26.589844 2.351562 26.671875 2.285156 26.78125 C 2.21875 26.886719 2.1875 27.003906 2.183594 27.128906 C 2.179688 27.253906 2.207031 27.375 2.265625 27.484375 L 4.421875 31.53125 C 4.765625 32.179688 4.941406 32.867188 4.941406 33.601562 C 4.941406 34.335938 4.765625 35.027344 4.421875 35.671875 L 0.910156 42.261719 C 0.792969 42.488281 0.792969 42.710938 0.910156 42.933594 L 4.425781 49.535156 C 4.769531 50.179688 4.941406 50.867188 4.941406 51.597656 C 4.941406 52.332031 4.769531 53.019531 4.425781 53.664062 L 0.910156 60.265625 C 0.792969 60.488281 0.792969 60.714844 0.910156 60.9375 L 4.425781 67.542969 C 4.769531 68.1875 4.941406 68.875 4.941406 69.605469 C 4.941406 70.339844 4.769531 71.027344 4.425781 71.671875 L 2.269531 75.722656 C 2.210938 75.832031 2.183594 75.949219 2.1875 76.074219 C 2.191406 76.199219 2.226562 76.3125 2.289062 76.421875 C 2.355469 76.527344 2.441406 76.613281 2.550781 76.675781 C 2.65625 76.734375 2.773438 76.765625 2.898438 76.765625 L 71.5625 76.765625 L 71.5625 26.433594 Z M 35.097656 64.839844 C 34.761719 65.175781 34.394531 65.476562 34 65.742188 C 33.605469 66.003906 33.1875 66.226562 32.746094 66.410156 C 32.308594 66.589844 31.855469 66.726562 31.390625 66.820312 C 30.921875 66.914062 30.453125 66.960938 29.976562 66.960938 C 29.5 66.960938 29.03125 66.914062 28.566406 66.820312 C 28.097656 66.726562 27.644531 66.589844 27.207031 66.410156 C 26.769531 66.226562 26.351562 66.003906 25.957031 65.738281 C 25.558594 65.476562 25.195312 65.175781 24.859375 64.839844 C 24.523438 64.503906 24.222656 64.136719 23.957031 63.742188 C 23.695312 63.347656 23.472656 62.929688 23.289062 62.492188 C 23.109375 62.050781 22.96875 61.597656 22.878906 61.132812 C 22.785156 60.667969 22.738281 60.195312 22.738281 59.71875 C 22.738281 59.246094 22.785156 58.773438 22.878906 58.308594 C 22.96875 57.839844 23.109375 57.390625 23.289062 56.949219 C 23.472656 56.511719 23.695312 56.09375 23.957031 55.699219 C 24.222656 55.304688 24.523438 54.9375 24.859375 54.601562 C 25.195312 54.265625 25.558594 53.964844 25.957031 53.699219 C 26.351562 53.4375 26.769531 53.214844 27.207031 53.03125 C 27.644531 52.851562 28.097656 52.710938 28.566406 52.621094 C 29.03125 52.527344 29.5 52.480469 29.976562 52.480469 C 30.453125 52.480469 30.921875 52.527344 31.390625 52.621094 C 31.855469 52.710938 32.308594 52.847656 32.746094 53.03125 C 33.1875 53.210938 33.605469 53.4375 34 53.699219 C 34.394531 53.964844 34.761719 54.261719 35.097656 54.597656 C 35.433594 54.933594 35.738281 55.296875 36.003906 55.691406 C 36.269531 56.085938 36.496094 56.503906 36.679688 56.941406 C 36.863281 57.378906 37.003906 57.832031 37.097656 58.300781 C 37.191406 58.765625 37.238281 59.238281 37.238281 59.710938 C 37.242188 60.1875 37.195312 60.660156 37.101562 61.125 C 37.007812 61.59375 36.871094 62.046875 36.6875 62.484375 C 36.507812 62.925781 36.28125 63.339844 36.015625 63.738281 C 35.75 64.132812 35.449219 64.496094 35.113281 64.832031 Z M 51.046875 64.574219 C 50.875 64.746094 50.675781 64.878906 50.453125 64.972656 C 50.226562 65.066406 49.992188 65.113281 49.746094 65.113281 C 49.503906 65.113281 49.269531 65.066406 49.042969 64.972656 C 48.816406 64.878906 48.621094 64.746094 48.445312 64.574219 L 25.136719 41.238281 C 24.976562 41.066406 24.855469 40.867188 24.769531 40.644531 C 24.683594 40.421875 24.644531 40.191406 24.648438 39.957031 C 24.652344 39.71875 24.703125 39.488281 24.796875 39.269531 C 24.886719 39.050781 25.019531 38.859375 25.1875 38.691406 C 25.355469 38.523438 25.546875 38.390625 25.765625 38.296875 C 25.984375 38.203125 26.214844 38.15625 26.453125 38.152344 C 26.6875 38.144531 26.917969 38.1875 27.140625 38.269531 C 27.363281 38.355469 27.5625 38.476562 27.738281 38.640625 L 51.0625 61.960938 C 51.238281 62.132812 51.371094 62.332031 51.464844 62.558594 C 51.558594 62.785156 51.605469 63.019531 51.605469 63.261719 C 51.605469 63.507812 51.558594 63.742188 51.464844 63.96875 C 51.371094 64.191406 51.238281 64.390625 51.0625 64.566406 Z M 51.316406 48.621094 C 50.921875 49.015625 50.488281 49.359375 50.019531 49.652344 C 49.546875 49.945312 49.046875 50.179688 48.523438 50.359375 C 47.996094 50.539062 47.457031 50.65625 46.902344 50.710938 C 46.351562 50.765625 45.800781 50.753906 45.25 50.683594 C 44.699219 50.609375 44.164062 50.476562 43.644531 50.28125 C 43.125 50.085938 42.632812 49.832031 42.171875 49.523438 C 41.707031 49.214844 41.289062 48.859375 40.90625 48.453125 C 40.527344 48.046875 40.199219 47.605469 39.921875 47.125 C 39.644531 46.644531 39.425781 46.136719 39.261719 45.605469 C 39.101562 45.074219 39.003906 44.53125 38.964844 43.976562 C 38.929688 43.421875 38.957031 42.871094 39.046875 42.324219 C 39.136719 41.777344 39.289062 41.246094 39.5 40.730469 C 39.714844 40.21875 39.980469 39.738281 40.304688 39.285156 C 40.628906 38.832031 41 38.425781 41.417969 38.058594 C 41.835938 37.691406 42.289062 37.378906 42.777344 37.117188 C 43.269531 36.855469 43.78125 36.652344 44.316406 36.507812 C 44.855469 36.363281 45.398438 36.28125 45.953125 36.265625 C 46.511719 36.246094 47.058594 36.289062 47.605469 36.398438 C 48.148438 36.507812 48.675781 36.675781 49.179688 36.90625 C 49.6875 37.132812 50.160156 37.417969 50.601562 37.753906 C 51.042969 38.09375 51.4375 38.476562 51.789062 38.90625 C 52.144531 39.335938 52.441406 39.800781 52.6875 40.296875 C 52.933594 40.796875 53.121094 41.316406 53.246094 41.855469 C 53.371094 42.398438 53.433594 42.945312 53.433594 43.5 C 53.4375 44.457031 53.257812 45.378906 52.890625 46.265625 C 52.527344 47.152344 52.007812 47.933594 51.332031 48.613281 Z M 51.316406 48.621094 " fill-opacity="1" fill-rule="nonzero"/></g><g clip-path="url(#23c63cea6e)"><path fill="#ffffff" d="M 91.996094 40.445312 C 90.992188 41.59375 90.160156 42.855469 89.5 44.230469 C 88.835938 45.605469 88.367188 47.042969 88.09375 48.542969 C 87.816406 50.042969 87.746094 51.550781 87.878906 53.070312 C 88.007812 54.589844 88.339844 56.0625 88.871094 57.492188 C 89.398438 58.925781 90.109375 60.257812 91 61.496094 C 91.886719 62.734375 92.925781 63.835938 94.109375 64.792969 C 95.296875 65.753906 96.589844 66.539062 97.984375 67.148438 C 99.382812 67.761719 100.835938 68.175781 102.34375 68.394531 C 102.519531 68.421875 102.664062 68.503906 102.777344 68.640625 C 102.894531 68.777344 102.949219 68.933594 102.949219 69.109375 L 102.949219 76.050781 C 102.949219 76.253906 102.875 76.425781 102.734375 76.566406 C 102.59375 76.707031 102.421875 76.777344 102.222656 76.777344 L 75.242188 76.777344 L 75.242188 26.433594 L 102.214844 26.433594 C 102.414062 26.433594 102.585938 26.503906 102.726562 26.648438 C 102.871094 26.789062 102.941406 26.960938 102.941406 27.164062 L 102.941406 34.09375 C 102.941406 34.269531 102.886719 34.425781 102.769531 34.5625 C 102.65625 34.699219 102.511719 34.78125 102.339844 34.808594 C 100.332031 35.101562 98.441406 35.730469 96.660156 36.703125 C 94.882812 37.671875 93.328125 38.917969 91.996094 40.445312 Z M 91.996094 40.445312 " fill-opacity="1" fill-rule="nonzero"/></g><path fill="#ffffff" d="M 49.773438 43.492188 C 49.773438 43.765625 49.742188 44.035156 49.679688 44.300781 C 49.617188 44.566406 49.523438 44.820312 49.40625 45.066406 C 49.285156 45.3125 49.136719 45.539062 48.964844 45.75 C 48.789062 45.960938 48.59375 46.148438 48.378906 46.316406 C 48.164062 46.484375 47.929688 46.621094 47.679688 46.734375 C 47.433594 46.847656 47.171875 46.929688 46.90625 46.984375 C 46.636719 47.035156 46.367188 47.058594 46.09375 47.050781 C 45.820312 47.042969 45.554688 47 45.289062 46.929688 C 45.027344 46.859375 44.773438 46.761719 44.53125 46.632812 C 44.292969 46.503906 44.070312 46.347656 43.863281 46.167969 C 43.660156 45.988281 43.476562 45.789062 43.316406 45.566406 C 43.160156 45.34375 43.027344 45.105469 42.921875 44.855469 C 42.816406 44.601562 42.742188 44.339844 42.699219 44.070312 C 42.65625 43.800781 42.640625 43.53125 42.660156 43.257812 C 42.675781 42.984375 42.726562 42.71875 42.804688 42.457031 C 42.882812 42.195312 42.992188 41.949219 43.128906 41.710938 C 43.265625 41.476562 43.425781 41.257812 43.613281 41.058594 C 43.800781 40.859375 44.007812 40.683594 44.234375 40.53125 C 44.460938 40.378906 44.703125 40.253906 44.957031 40.160156 C 45.214844 40.0625 45.476562 39.996094 45.746094 39.960938 C 46.019531 39.925781 46.289062 39.921875 46.5625 39.949219 C 46.832031 39.976562 47.097656 40.035156 47.355469 40.121094 C 47.617188 40.210938 47.859375 40.324219 48.09375 40.46875 C 48.324219 40.613281 48.535156 40.78125 48.730469 40.976562 C 49.425781 41.667969 49.773438 42.507812 49.773438 43.492188 Z M 49.773438 43.492188 " fill-opacity="1" fill-rule="nonzero"/><path fill="#ffffff" d="M 33.554688 59.710938 C 33.554688 59.980469 33.523438 60.25 33.460938 60.515625 C 33.398438 60.78125 33.304688 61.035156 33.1875 61.28125 C 33.066406 61.523438 32.917969 61.753906 32.746094 61.964844 C 32.574219 62.171875 32.378906 62.363281 32.160156 62.527344 C 31.945312 62.691406 31.714844 62.832031 31.464844 62.945312 C 31.21875 63.058594 30.960938 63.140625 30.691406 63.191406 C 30.425781 63.246094 30.15625 63.269531 29.882812 63.257812 C 29.609375 63.25 29.34375 63.210938 29.078125 63.140625 C 28.816406 63.070312 28.566406 62.96875 28.324219 62.839844 C 28.085938 62.710938 27.863281 62.558594 27.65625 62.378906 C 27.453125 62.199219 27.269531 62 27.113281 61.777344 C 26.953125 61.554688 26.820312 61.320312 26.71875 61.066406 C 26.613281 60.816406 26.539062 60.554688 26.496094 60.285156 C 26.449219 60.015625 26.4375 59.746094 26.453125 59.476562 C 26.472656 59.203125 26.519531 58.9375 26.601562 58.675781 C 26.679688 58.414062 26.785156 58.167969 26.921875 57.929688 C 27.058594 57.695312 27.21875 57.476562 27.40625 57.277344 C 27.59375 57.078125 27.800781 56.90625 28.027344 56.753906 C 28.253906 56.601562 28.492188 56.476562 28.746094 56.382812 C 29.003906 56.285156 29.265625 56.21875 29.535156 56.183594 C 29.804688 56.148438 30.074219 56.144531 30.347656 56.171875 C 30.617188 56.199219 30.882812 56.253906 31.140625 56.34375 C 31.398438 56.429688 31.644531 56.546875 31.875 56.6875 C 32.105469 56.832031 32.320312 57 32.511719 57.195312 C 33.207031 57.886719 33.554688 58.726562 33.554688 59.710938 Z M 33.554688 59.710938 " fill-opacity="1" fill-rule="nonzero"/><g clip-path="url(#1c1874346f)"><path fill="#ffffff" d="M 94.0625 3.933594 C 93.570312 3.441406 93.035156 3 92.453125 2.613281 C 91.875 2.226562 91.261719 1.898438 90.617188 1.632812 C 89.972656 1.363281 89.308594 1.164062 88.621094 1.027344 C 87.9375 0.890625 87.246094 0.824219 86.550781 0.824219 C 85.851562 0.824219 85.160156 0.890625 84.476562 1.027344 C 83.792969 1.164062 83.128906 1.363281 82.484375 1.632812 C 81.839844 1.898438 81.226562 2.226562 80.648438 2.613281 C 80.066406 3 79.53125 3.441406 79.035156 3.933594 C 76.859375 6.109375 74.804688 12.144531 73.402344 17.09375 C 72 12.144531 69.953125 6.109375 67.769531 3.933594 C 67.277344 3.433594 66.738281 2.988281 66.160156 2.597656 C 65.578125 2.203125 64.964844 1.871094 64.320312 1.597656 C 63.671875 1.328125 63.007812 1.121094 62.320312 0.980469 C 61.632812 0.84375 60.941406 0.769531 60.238281 0.769531 C 59.539062 0.765625 58.84375 0.832031 58.15625 0.964844 C 57.46875 1.101562 56.800781 1.300781 56.152344 1.570312 C 55.503906 1.835938 54.890625 2.164062 54.304688 2.554688 C 53.722656 2.941406 53.183594 3.382812 52.6875 3.878906 C 52.191406 4.375 51.75 4.914062 51.359375 5.496094 C 50.972656 6.082031 50.644531 6.695312 50.378906 7.34375 C 50.109375 7.992188 49.910156 8.660156 49.773438 9.347656 C 49.640625 10.035156 49.574219 10.730469 49.574219 11.429688 C 49.578125 12.132812 49.648438 12.824219 49.789062 13.511719 C 49.929688 14.199219 50.132812 14.863281 50.40625 15.511719 C 50.675781 16.15625 51.007812 16.769531 51.402344 17.351562 C 51.796875 17.929688 52.242188 18.46875 52.742188 18.960938 C 54.09375 20.3125 56.945312 21.621094 60.101562 22.753906 L 86.707031 22.753906 C 89.859375 21.621094 92.710938 20.3125 94.066406 18.960938 C 94.5625 18.464844 95 17.929688 95.390625 17.347656 C 95.777344 16.769531 96.105469 16.15625 96.371094 15.511719 C 96.636719 14.867188 96.839844 14.203125 96.976562 13.519531 C 97.113281 12.835938 97.179688 12.144531 97.179688 11.445312 C 97.179688 10.75 97.113281 10.058594 96.976562 9.375 C 96.839844 8.691406 96.636719 8.027344 96.371094 7.382812 C 96.105469 6.738281 95.777344 6.125 95.390625 5.542969 C 95 4.964844 94.5625 4.429688 94.066406 3.933594 Z M 55.335938 16.359375 C 55.011719 16.035156 54.726562 15.683594 54.472656 15.304688 C 54.21875 14.925781 54.003906 14.527344 53.832031 14.105469 C 53.65625 13.683594 53.523438 13.25 53.4375 12.800781 C 53.347656 12.355469 53.304688 11.902344 53.304688 11.449219 C 53.304688 10.992188 53.347656 10.539062 53.4375 10.09375 C 53.527344 9.644531 53.65625 9.210938 53.832031 8.789062 C 54.007812 8.371094 54.21875 7.96875 54.472656 7.589844 C 54.726562 7.210938 55.015625 6.859375 55.335938 6.539062 C 55.660156 6.214844 56.011719 5.929688 56.390625 5.675781 C 56.769531 5.421875 57.167969 5.207031 57.589844 5.03125 C 58.011719 4.859375 58.445312 4.726562 58.890625 4.636719 C 59.339844 4.546875 59.789062 4.503906 60.246094 4.503906 C 60.703125 4.503906 61.152344 4.546875 61.601562 4.636719 C 62.046875 4.726562 62.484375 4.855469 62.902344 5.03125 C 63.324219 5.207031 63.726562 5.417969 64.105469 5.671875 C 64.484375 5.925781 64.835938 6.214844 65.15625 6.535156 C 67.050781 8.429688 69.445312 16.195312 70.921875 22.125 C 64.992188 20.648438 57.238281 18.253906 55.335938 16.359375 Z M 92.960938 14.105469 C 92.609375 14.957031 92.105469 15.707031 91.449219 16.359375 C 89.558594 18.253906 81.792969 20.648438 75.863281 22.125 C 77.339844 16.1875 79.734375 8.429688 81.628906 6.535156 C 82.199219 5.96875 82.847656 5.515625 83.574219 5.171875 C 84.300781 4.832031 85.0625 4.621094 85.859375 4.542969 C 86.660156 4.464844 87.449219 4.523438 88.226562 4.71875 C 89.003906 4.914062 89.726562 5.234375 90.394531 5.683594 C 91.0625 6.128906 91.636719 6.671875 92.113281 7.316406 C 92.59375 7.960938 92.949219 8.667969 93.183594 9.433594 C 93.417969 10.203125 93.515625 10.988281 93.476562 11.789062 C 93.4375 12.589844 93.265625 13.363281 92.960938 14.105469 Z M 92.960938 14.105469 " fill-opacity="1" fill-rule="nonzero"/></g><g clip-path="url(#c8f946808d)"><g transform="matrix(1, 0, 0, 1, 105, 4)"><g clip-path="url(#1548da77ca)"><g fill="#ffffff" fill-opacity="1"><g transform="translate(0.848794, 72.986161)"><g><path d="M 31.515625 0 L 2.015625 0 L 2.015625 -50.484375 L 29.640625 -50.484375 C 33.390625 -50.484375 36.679688 -50.015625 39.515625 -49.078125 C 42.359375 -48.140625 44.582031 -46.734375 46.1875 -44.859375 C 47.800781 -42.984375 48.609375 -40.628906 48.609375 -37.796875 C 48.609375 -34.234375 47.296875 -31.441406 44.671875 -29.421875 C 42.054688 -27.398438 38.34375 -26.390625 33.53125 -26.390625 L 33.53125 -25.25 C 38.96875 -25.25 43.148438 -24.320312 46.078125 -22.46875 C 49.015625 -20.613281 50.484375 -17.738281 50.484375 -13.84375 C 50.484375 -9.519531 48.773438 -6.128906 45.359375 -3.671875 C 41.953125 -1.222656 37.335938 0 31.515625 0 Z M 18.390625 -31.734375 L 18.390625 -27.265625 L 27.90625 -27.265625 C 29.15625 -27.265625 30.140625 -27.441406 30.859375 -27.796875 C 31.585938 -28.160156 31.953125 -28.726562 31.953125 -29.5 C 31.953125 -30.269531 31.554688 -30.832031 30.765625 -31.1875 C 29.972656 -31.550781 28.953125 -31.734375 27.703125 -31.734375 Z M 18.390625 -23.796875 L 18.390625 -18.890625 L 28.5625 -18.890625 C 31.351562 -18.890625 32.75 -19.707031 32.75 -21.34375 C 32.75 -22.976562 31.351562 -23.796875 28.5625 -23.796875 Z M 18.390625 -23.796875 "/></g></g></g><g clip-path="url(#4866f0d6a6)"><g fill="#ffffff" fill-opacity="1"><g transform="translate(49.240152, 72.986161)"><g><path d="M 36.78125 0 L 16.375 0 L -0.859375 -50.484375 L 21.5 -50.484375 L 26.03125 -22.5 L 27.1875 -22.5 L 31.515625 -50.484375 L 53.953125 -50.484375 Z M 36.78125 0 "/></g></g></g></g></g></g></g></g></g></svg>