<svg xmlns="http://www.w3.org/2000/svg" xmlns:xlink="http://www.w3.org/1999/xlink" width="1145" zoomAndPan="magnify" viewBox="0 125 1145 510" height="510" preserveAspectRatio="xMidYMid meet" version="1.0"><defs><g/><clipPath id="3be5168818"><path d="M 0 142 L 388 142 L 388 418.832031 L 0 418.832031 Z M 0 142 " clip-rule="nonzero"/></clipPath><clipPath id="501307feb2"><path d="M 408 142 L 560.183594 142 L 560.183594 418.832031 L 408 418.832031 Z M 408 142 " clip-rule="nonzero"/></clipPath><clipPath id="780f86bd5d"><path d="M 267 1.546875 L 529 1.546875 L 529 123 L 267 123 Z M 267 1.546875 " clip-rule="nonzero"/></clipPath><clipPath id="ba8583548c"><path d="M 575 23 L 1138.578125 23 L 1138.578125 498.992188 L 575 498.992188 Z M 575 23 " clip-rule="nonzero"/></clipPath><clipPath id="86cdf92232"><rect x="0" width="564" y="0" height="476"/></clipPath><clipPath id="01ab1c5aba"><rect x="0" width="1139" y="0" height="499"/></clipPath></defs><g transform="matrix(1, 0, 0, 1, 0, 130)"><g clip-path="url(#01ab1c5aba)"><g clip-path="url(#3be5168818)"><path fill="#1a56db" d="M 11.351562 142.425781 C 11.015625 142.425781 10.679688 142.46875 10.351562 142.554688 C 10.023438 142.640625 9.714844 142.765625 9.417969 142.933594 C 9.125 143.097656 8.855469 143.300781 8.613281 143.535156 C 8.371094 143.773438 8.160156 144.035156 7.984375 144.328125 C 7.8125 144.617188 7.675781 144.925781 7.582031 145.25 C 7.488281 145.574219 7.433594 145.90625 7.425781 146.246094 C 7.417969 146.582031 7.453125 146.917969 7.527344 147.246094 C 7.605469 147.578125 7.726562 147.890625 7.882812 148.191406 L 19.703125 170.390625 C 20.636719 172.136719 21.34375 173.972656 21.828125 175.890625 C 22.308594 177.8125 22.546875 179.761719 22.546875 181.742188 C 22.546875 183.722656 22.308594 185.675781 21.828125 187.59375 C 21.34375 189.515625 20.636719 191.351562 19.703125 193.097656 L 0.453125 229.246094 C 0.152344 229.820312 0 230.433594 0 231.082031 C 0 231.730469 0.152344 232.34375 0.453125 232.917969 L 19.726562 269.132812 C 20.65625 270.875 21.359375 272.703125 21.839844 274.617188 C 22.316406 276.535156 22.558594 278.480469 22.558594 280.453125 C 22.558594 282.429688 22.316406 284.371094 21.839844 286.289062 C 21.359375 288.203125 20.65625 290.03125 19.726562 291.773438 L 0.453125 327.988281 C 0.152344 328.566406 0 329.179688 0 329.832031 C 0 330.480469 0.152344 331.097656 0.453125 331.671875 L 19.726562 367.898438 C 20.65625 369.640625 21.359375 371.46875 21.839844 373.386719 C 22.316406 375.300781 22.558594 377.246094 22.558594 379.21875 C 22.558594 381.195312 22.316406 383.140625 21.839844 385.054688 C 21.359375 386.96875 20.65625 388.800781 19.726562 390.542969 L 7.910156 412.753906 C 7.75 413.050781 7.632812 413.363281 7.558594 413.691406 C 7.480469 414.019531 7.445312 414.351562 7.457031 414.6875 C 7.464844 415.023438 7.515625 415.355469 7.609375 415.679688 C 7.707031 416 7.839844 416.308594 8.011719 416.59375 C 8.183594 416.882812 8.390625 417.144531 8.632812 417.382812 C 8.875 417.617188 9.140625 417.816406 9.433594 417.984375 C 9.726562 418.148438 10.035156 418.277344 10.359375 418.363281 C 10.683594 418.449219 11.015625 418.492188 11.351562 418.492188 L 387.953125 418.492188 L 387.953125 142.425781 Z M 187.945312 353.078125 C 187.027344 353.996094 186.066406 354.871094 185.058594 355.695312 C 184.054688 356.519531 183.011719 357.292969 181.929688 358.015625 C 180.847656 358.738281 179.734375 359.402344 178.585938 360.015625 C 177.441406 360.628906 176.265625 361.183594 175.0625 361.683594 C 173.863281 362.179688 172.640625 362.617188 171.394531 362.992188 C 170.152344 363.371094 168.890625 363.6875 167.617188 363.941406 C 166.339844 364.195312 165.054688 364.382812 163.761719 364.511719 C 162.46875 364.636719 161.167969 364.703125 159.871094 364.703125 C 158.570312 364.703125 157.273438 364.636719 155.976562 364.511719 C 154.683594 364.382812 153.398438 364.191406 152.125 363.9375 C 150.847656 363.683594 149.589844 363.367188 148.34375 362.992188 C 147.097656 362.613281 145.875 362.175781 144.675781 361.675781 C 143.472656 361.179688 142.300781 360.625 141.152344 360.011719 C 140.007812 359.398438 138.890625 358.730469 137.8125 358.007812 C 136.730469 357.285156 135.6875 356.511719 134.683594 355.6875 C 133.675781 354.859375 132.714844 353.988281 131.796875 353.070312 C 130.875 352.148438 130.003906 351.1875 129.179688 350.183594 C 128.355469 349.175781 127.582031 348.132812 126.859375 347.050781 C 126.136719 345.972656 125.46875 344.855469 124.855469 343.710938 C 124.242188 342.5625 123.6875 341.390625 123.1875 340.1875 C 122.691406 338.984375 122.253906 337.761719 121.875 336.519531 C 121.5 335.273438 121.183594 334.015625 120.929688 332.738281 C 120.675781 331.464844 120.484375 330.179688 120.359375 328.886719 C 120.230469 327.589844 120.167969 326.292969 120.167969 324.992188 C 120.167969 323.691406 120.230469 322.394531 120.359375 321.101562 C 120.484375 319.808594 120.675781 318.523438 120.929688 317.246094 C 121.183594 315.972656 121.5 314.710938 121.875 313.46875 C 122.253906 312.222656 122.691406 311 123.1875 309.800781 C 123.6875 308.597656 124.242188 307.421875 124.855469 306.277344 C 125.46875 305.128906 126.136719 304.015625 126.859375 302.933594 C 127.582031 301.851562 128.355469 300.808594 129.179688 299.804688 C 130.003906 298.800781 130.875 297.835938 131.796875 296.917969 C 132.714844 295.996094 133.675781 295.125 134.683594 294.300781 C 135.6875 293.476562 136.730469 292.703125 137.8125 291.980469 C 138.890625 291.257812 140.007812 290.589844 141.152344 289.976562 C 142.300781 289.363281 143.472656 288.808594 144.675781 288.308594 C 145.875 287.8125 147.097656 287.375 148.34375 286.996094 C 149.589844 286.617188 150.847656 286.300781 152.125 286.046875 C 153.398438 285.792969 154.683594 285.605469 155.976562 285.476562 C 157.273438 285.347656 158.570312 285.285156 159.871094 285.285156 C 161.167969 285.285156 162.46875 285.347656 163.761719 285.476562 C 165.054688 285.601562 166.339844 285.792969 167.617188 286.046875 C 168.890625 286.300781 170.152344 286.613281 171.394531 286.992188 C 172.640625 287.371094 173.863281 287.808594 175.0625 288.304688 C 176.265625 288.800781 177.441406 289.355469 178.585938 289.96875 C 179.734375 290.582031 180.847656 291.25 181.929688 291.972656 C 183.011719 292.695312 184.054688 293.46875 185.058594 294.292969 C 186.066406 295.117188 187.027344 295.988281 187.945312 296.910156 C 188.875 297.824219 189.753906 298.78125 190.585938 299.78125 C 191.417969 300.78125 192.199219 301.820312 192.925781 302.898438 C 193.65625 303.976562 194.332031 305.089844 194.949219 306.234375 C 195.570312 307.378906 196.128906 308.550781 196.632812 309.75 C 197.136719 310.953125 197.578125 312.175781 197.960938 313.417969 C 198.34375 314.664062 198.664062 315.921875 198.921875 317.199219 C 199.179688 318.472656 199.375 319.757812 199.503906 321.054688 C 199.636719 322.351562 199.699219 323.648438 199.703125 324.949219 C 199.707031 326.25 199.644531 327.550781 199.515625 328.84375 C 199.390625 330.140625 199.199219 331.425781 198.945312 332.703125 C 198.691406 333.980469 198.375 335.242188 198 336.488281 C 197.621094 337.730469 197.179688 338.957031 196.679688 340.15625 C 196.183594 341.359375 195.625 342.535156 195.007812 343.679688 C 194.394531 344.828125 193.722656 345.941406 192.996094 347.019531 C 192.269531 348.101562 191.492188 349.144531 190.664062 350.148438 C 189.835938 351.152344 188.960938 352.109375 188.035156 353.027344 Z M 275.4375 351.613281 C 274.96875 352.082031 274.457031 352.5 273.910156 352.867188 C 273.355469 353.238281 272.777344 353.546875 272.164062 353.800781 C 271.550781 354.054688 270.921875 354.246094 270.273438 354.375 C 269.621094 354.503906 268.964844 354.566406 268.304688 354.566406 C 267.640625 354.566406 266.984375 354.503906 266.335938 354.375 C 265.6875 354.246094 265.054688 354.054688 264.445312 353.800781 C 263.832031 353.546875 263.25 353.238281 262.699219 352.867188 C 262.148438 352.5 261.640625 352.082031 261.171875 351.613281 L 133.328125 223.632812 C 132.890625 223.160156 132.5 222.648438 132.160156 222.101562 C 131.820312 221.550781 131.535156 220.972656 131.304688 220.371094 C 131.074219 219.765625 130.90625 219.148438 130.792969 218.511719 C 130.683594 217.875 130.632812 217.234375 130.648438 216.585938 C 130.660156 215.941406 130.734375 215.304688 130.867188 214.671875 C 131.003906 214.039062 131.195312 213.425781 131.449219 212.832031 C 131.703125 212.238281 132.007812 211.671875 132.371094 211.136719 C 132.730469 210.601562 133.140625 210.105469 133.597656 209.648438 C 134.054688 209.191406 134.550781 208.78125 135.085938 208.421875 C 135.621094 208.058594 136.183594 207.75 136.777344 207.496094 C 137.371094 207.246094 137.984375 207.050781 138.617188 206.914062 C 139.25 206.777344 139.886719 206.703125 140.535156 206.691406 C 141.179688 206.679688 141.820312 206.726562 142.457031 206.835938 C 143.09375 206.949219 143.714844 207.117188 144.316406 207.347656 C 144.921875 207.574219 145.496094 207.859375 146.046875 208.199219 C 146.597656 208.539062 147.109375 208.929688 147.582031 209.367188 L 275.527344 337.285156 C 275.996094 337.753906 276.414062 338.265625 276.78125 338.816406 C 277.152344 339.367188 277.460938 339.949219 277.714844 340.5625 C 277.96875 341.171875 278.160156 341.804688 278.289062 342.453125 C 278.421875 343.105469 278.484375 343.761719 278.484375 344.425781 C 278.484375 345.089844 278.421875 345.746094 278.289062 346.394531 C 278.160156 347.046875 277.96875 347.675781 277.714844 348.289062 C 277.460938 348.902344 277.152344 349.484375 276.78125 350.035156 C 276.414062 350.585938 275.996094 351.097656 275.527344 351.566406 Z M 276.898438 264.125 C 276.363281 264.660156 275.8125 265.183594 275.246094 265.6875 C 274.679688 266.191406 274.101562 266.679688 273.507812 267.152344 C 272.914062 267.621094 272.304688 268.078125 271.6875 268.515625 C 271.066406 268.949219 270.433594 269.371094 269.789062 269.769531 C 269.144531 270.171875 268.492188 270.550781 267.824219 270.914062 C 267.160156 271.277344 266.484375 271.621094 265.796875 271.945312 C 265.113281 272.269531 264.417969 272.574219 263.714844 272.859375 C 263.011719 273.144531 262.300781 273.410156 261.582031 273.652344 C 260.863281 273.898438 260.140625 274.121094 259.410156 274.324219 C 258.679688 274.523438 257.941406 274.707031 257.199219 274.867188 C 256.460938 275.027344 255.714844 275.164062 254.964844 275.28125 C 254.214844 275.402344 253.464844 275.496094 252.707031 275.570312 C 251.953125 275.644531 251.199219 275.699219 250.441406 275.730469 C 249.683594 275.761719 248.921875 275.769531 248.164062 275.757812 C 247.40625 275.746094 246.648438 275.710938 245.894531 275.65625 C 245.136719 275.601562 244.382812 275.523438 243.628906 275.425781 C 242.878906 275.324219 242.128906 275.203125 241.386719 275.0625 C 240.640625 274.921875 239.898438 274.757812 239.164062 274.574219 C 238.429688 274.390625 237.699219 274.183594 236.972656 273.957031 C 236.25 273.734375 235.53125 273.488281 234.824219 273.21875 C 234.113281 272.953125 233.410156 272.664062 232.71875 272.359375 C 232.023438 272.050781 231.339844 271.722656 230.664062 271.378906 C 229.992188 271.03125 229.328125 270.664062 228.671875 270.28125 C 228.019531 269.894531 227.378906 269.492188 226.746094 269.074219 C 226.117188 268.652344 225.496094 268.210938 224.890625 267.753906 C 224.285156 267.296875 223.695312 266.824219 223.117188 266.335938 C 222.539062 265.84375 221.972656 265.335938 221.425781 264.8125 C 220.875 264.292969 220.339844 263.753906 219.824219 263.199219 C 219.304688 262.644531 218.800781 262.078125 218.316406 261.496094 C 217.828125 260.914062 217.359375 260.316406 216.910156 259.707031 C 216.457031 259.101562 216.023438 258.476562 215.605469 257.84375 C 215.191406 257.210938 214.792969 256.566406 214.414062 255.90625 C 214.035156 255.25 213.671875 254.585938 213.332031 253.90625 C 212.992188 253.230469 212.667969 252.542969 212.367188 251.847656 C 212.066406 251.152344 211.785156 250.445312 211.523438 249.734375 C 211.261719 249.023438 211.019531 248.304688 210.800781 247.578125 C 210.578125 246.851562 210.378906 246.121094 210.203125 245.382812 C 210.023438 244.648438 209.867188 243.90625 209.730469 243.160156 C 209.59375 242.414062 209.480469 241.664062 209.386719 240.910156 C 209.292969 240.15625 209.222656 239.402344 209.171875 238.644531 C 209.125 237.890625 209.097656 237.132812 209.089844 236.375 C 209.082031 235.613281 209.097656 234.855469 209.136719 234.097656 C 209.171875 233.34375 209.230469 232.585938 209.3125 231.832031 C 209.390625 231.078125 209.492188 230.328125 209.617188 229.578125 C 209.742188 228.828125 209.886719 228.085938 210.050781 227.34375 C 210.21875 226.605469 210.40625 225.871094 210.613281 225.140625 C 210.820312 224.414062 211.050781 223.6875 211.300781 222.972656 C 211.550781 222.257812 211.820312 221.546875 212.109375 220.847656 C 212.398438 220.148438 212.710938 219.453125 213.039062 218.773438 C 213.367188 218.089844 213.71875 217.414062 214.085938 216.753906 C 214.453125 216.089844 214.839844 215.4375 215.246094 214.796875 C 215.652344 214.15625 216.078125 213.527344 216.519531 212.910156 C 216.960938 212.292969 217.417969 211.691406 217.894531 211.101562 C 218.371094 210.511719 218.863281 209.933594 219.371094 209.371094 C 219.882812 208.808594 220.40625 208.261719 220.949219 207.730469 C 221.488281 207.199219 222.042969 206.683594 222.613281 206.183594 C 223.183594 205.683594 223.769531 205.199219 224.367188 204.730469 C 224.964844 204.265625 225.574219 203.816406 226.199219 203.382812 C 226.820312 202.953125 227.457031 202.539062 228.105469 202.144531 C 228.75 201.75 229.410156 201.371094 230.078125 201.015625 C 230.746094 200.65625 231.425781 200.320312 232.113281 200 C 232.800781 199.679688 233.5 199.382812 234.203125 199.101562 C 234.910156 198.824219 235.621094 198.566406 236.34375 198.328125 C 237.0625 198.089844 237.789062 197.871094 238.523438 197.675781 C 239.253906 197.480469 239.992188 197.304688 240.734375 197.148438 C 241.476562 196.996094 242.222656 196.863281 242.972656 196.75 C 243.722656 196.640625 244.476562 196.550781 245.230469 196.480469 C 245.988281 196.414062 246.742188 196.367188 247.503906 196.34375 C 248.261719 196.316406 249.019531 196.3125 249.777344 196.332031 C 250.535156 196.351562 251.292969 196.390625 252.046875 196.453125 C 252.804688 196.515625 253.558594 196.597656 254.308594 196.703125 C 255.058594 196.808594 255.808594 196.933594 256.550781 197.082031 C 257.296875 197.230469 258.035156 197.398438 258.769531 197.589844 C 259.503906 197.78125 260.230469 197.992188 260.953125 198.222656 C 261.675781 198.453125 262.390625 198.707031 263.097656 198.980469 C 263.804688 199.253906 264.503906 199.546875 265.195312 199.859375 C 265.886719 200.171875 266.566406 200.503906 267.238281 200.855469 C 267.910156 201.207031 268.574219 201.578125 269.222656 201.96875 C 269.875 202.359375 270.511719 202.765625 271.140625 203.191406 C 271.765625 203.617188 272.382812 204.0625 272.984375 204.523438 C 273.585938 204.984375 274.171875 205.464844 274.75 205.960938 C 275.324219 206.453125 275.882812 206.964844 276.425781 207.492188 C 276.972656 208.019531 277.503906 208.5625 278.015625 209.121094 C 278.53125 209.679688 279.027344 210.25 279.507812 210.835938 C 279.992188 211.421875 280.453125 212.023438 280.902344 212.636719 C 281.347656 213.25 281.777344 213.875 282.1875 214.511719 C 282.601562 215.148438 282.992188 215.796875 283.367188 216.457031 C 283.738281 217.117188 284.09375 217.785156 284.429688 218.464844 C 284.765625 219.148438 285.082031 219.835938 285.378906 220.535156 C 285.675781 221.234375 285.949219 221.9375 286.207031 222.652344 C 286.460938 223.367188 286.695312 224.085938 286.910156 224.816406 C 287.125 225.542969 287.320312 226.277344 287.492188 227.015625 C 287.664062 227.753906 287.8125 228.496094 287.945312 229.242188 C 288.074219 229.992188 288.183594 230.742188 288.269531 231.496094 C 288.355469 232.246094 288.421875 233.003906 288.464844 233.761719 C 288.507812 234.515625 288.53125 235.273438 288.53125 236.035156 C 288.539062 238.636719 288.289062 241.210938 287.789062 243.765625 C 287.289062 246.320312 286.542969 248.796875 285.550781 251.203125 C 284.5625 253.609375 283.347656 255.894531 281.90625 258.0625 C 280.464844 260.226562 278.824219 262.230469 276.988281 264.074219 Z M 276.898438 264.125 " fill-opacity="1" fill-rule="nonzero"/></g><g clip-path="url(#501307feb2)"><path fill="#1a56db" d="M 500.027344 219.28125 C 498.660156 220.847656 497.347656 222.460938 496.089844 224.113281 C 494.828125 225.769531 493.628906 227.464844 492.480469 229.199219 C 491.335938 230.9375 490.25 232.707031 489.222656 234.515625 C 488.195312 236.324219 487.230469 238.164062 486.328125 240.039062 C 485.425781 241.910156 484.585938 243.8125 483.808594 245.742188 C 483.035156 247.667969 482.324219 249.621094 481.679688 251.597656 C 481.035156 253.574219 480.457031 255.570312 479.945312 257.585938 C 479.433594 259.601562 478.992188 261.632812 478.617188 263.679688 C 478.242188 265.722656 477.933594 267.78125 477.695312 269.84375 C 477.460938 271.910156 477.292969 273.980469 477.191406 276.058594 C 477.09375 278.136719 477.066406 280.214844 477.105469 282.292969 C 477.148438 284.371094 477.257812 286.449219 477.4375 288.519531 C 477.617188 290.589844 477.867188 292.652344 478.183594 294.707031 C 478.503906 296.761719 478.890625 298.804688 479.34375 300.835938 C 479.800781 302.863281 480.324219 304.875 480.914062 306.867188 C 481.503906 308.863281 482.160156 310.835938 482.878906 312.785156 C 483.601562 314.734375 484.390625 316.65625 485.242188 318.554688 C 486.089844 320.453125 487.003906 322.320312 487.980469 324.15625 C 488.957031 325.992188 489.992188 327.792969 491.089844 329.558594 C 492.1875 331.324219 493.34375 333.050781 494.554688 334.742188 C 495.765625 336.429688 497.035156 338.078125 498.359375 339.679688 C 499.679688 341.285156 501.054688 342.84375 502.484375 344.355469 C 503.910156 345.867188 505.386719 347.328125 506.914062 348.742188 C 508.4375 350.15625 510.011719 351.515625 511.625 352.824219 C 513.242188 354.132812 514.902344 355.382812 516.601562 356.578125 C 518.304688 357.777344 520.042969 358.914062 521.820312 359.996094 C 523.59375 361.074219 525.40625 362.09375 527.253906 363.050781 C 529.097656 364.011719 530.972656 364.90625 532.878906 365.738281 C 534.78125 366.570312 536.714844 367.339844 538.671875 368.042969 C 540.628906 368.746094 542.605469 369.382812 544.605469 369.957031 C 546.605469 370.527344 548.621094 371.03125 550.652344 371.464844 C 552.6875 371.902344 554.730469 372.269531 556.789062 372.566406 C 557.253906 372.644531 557.691406 372.796875 558.097656 373.03125 C 558.507812 373.261719 558.863281 373.558594 559.167969 373.917969 C 559.46875 374.277344 559.699219 374.679688 559.859375 375.121094 C 560.019531 375.5625 560.097656 376.019531 560.09375 376.488281 L 560.09375 414.570312 C 560.09375 414.832031 560.070312 415.089844 560.019531 415.347656 C 559.96875 415.605469 559.890625 415.855469 559.792969 416.097656 C 559.691406 416.339844 559.570312 416.566406 559.421875 416.785156 C 559.277344 417.003906 559.113281 417.203125 558.925781 417.390625 C 558.742188 417.574219 558.542969 417.738281 558.324219 417.886719 C 558.105469 418.03125 557.875 418.152344 557.632812 418.253906 C 557.390625 418.355469 557.144531 418.429688 556.886719 418.480469 C 556.628906 418.53125 556.371094 418.558594 556.109375 418.558594 L 408.136719 418.558594 L 408.136719 142.425781 L 556.070312 142.425781 C 556.332031 142.425781 556.59375 142.453125 556.847656 142.503906 C 557.105469 142.558594 557.355469 142.632812 557.597656 142.734375 C 557.839844 142.835938 558.070312 142.957031 558.285156 143.105469 C 558.503906 143.25 558.707031 143.417969 558.890625 143.601562 C 559.074219 143.789062 559.242188 143.988281 559.386719 144.207031 C 559.53125 144.425781 559.652344 144.65625 559.753906 144.898438 C 559.855469 145.140625 559.929688 145.390625 559.980469 145.644531 C 560.03125 145.902344 560.058594 146.164062 560.058594 146.425781 L 560.058594 184.441406 C 560.058594 184.914062 559.980469 185.367188 559.820312 185.808594 C 559.660156 186.25 559.429688 186.652344 559.125 187.011719 C 558.824219 187.371094 558.46875 187.667969 558.058594 187.898438 C 557.652344 188.132812 557.214844 188.289062 556.753906 188.367188 C 551.296875 189.160156 545.953125 190.425781 540.722656 192.167969 C 535.496094 193.910156 530.460938 196.101562 525.621094 198.742188 C 520.777344 201.378906 516.210938 204.421875 511.910156 207.875 C 507.609375 211.324219 503.648438 215.128906 500.027344 219.28125 Z M 500.027344 219.28125 " fill-opacity="1" fill-rule="nonzero"/></g><path fill="#1a56db" d="M 268.4375 235.984375 C 268.4375 236.730469 268.394531 237.472656 268.308594 238.214844 C 268.222656 238.957031 268.097656 239.691406 267.925781 240.417969 C 267.757812 241.144531 267.546875 241.859375 267.296875 242.5625 C 267.042969 243.265625 266.753906 243.949219 266.421875 244.621094 C 266.09375 245.289062 265.726562 245.9375 265.320312 246.566406 C 264.917969 247.191406 264.476562 247.796875 264.003906 248.371094 C 263.53125 248.949219 263.027344 249.496094 262.492188 250.015625 C 261.953125 250.535156 261.390625 251.023438 260.796875 251.476562 C 260.207031 251.929688 259.589844 252.351562 258.949219 252.734375 C 258.308594 253.117188 257.648438 253.464844 256.96875 253.769531 C 256.289062 254.078125 255.59375 254.347656 254.882812 254.574219 C 254.171875 254.804688 253.453125 254.992188 252.71875 255.136719 C 251.988281 255.28125 251.25 255.386719 250.503906 255.445312 C 249.761719 255.507812 249.015625 255.527344 248.269531 255.5 C 247.523438 255.476562 246.78125 255.410156 246.042969 255.300781 C 245.304688 255.191406 244.578125 255.039062 243.855469 254.847656 C 243.132812 254.652344 242.425781 254.417969 241.734375 254.144531 C 241.039062 253.871094 240.363281 253.558594 239.703125 253.207031 C 239.046875 252.855469 238.410156 252.464844 237.796875 252.039062 C 237.183594 251.617188 236.59375 251.15625 236.035156 250.664062 C 235.472656 250.171875 234.941406 249.652344 234.441406 249.097656 C 233.941406 248.542969 233.472656 247.964844 233.035156 247.359375 C 232.601562 246.75 232.203125 246.121094 231.839844 245.46875 C 231.480469 244.816406 231.15625 244.144531 230.871094 243.457031 C 230.582031 242.765625 230.339844 242.0625 230.132812 241.34375 C 229.929688 240.628906 229.765625 239.898438 229.644531 239.164062 C 229.523438 238.425781 229.445312 237.6875 229.40625 236.941406 C 229.371094 236.195312 229.375 235.449219 229.425781 234.707031 C 229.476562 233.960938 229.566406 233.222656 229.699219 232.488281 C 229.832031 231.753906 230.007812 231.027344 230.226562 230.3125 C 230.441406 229.601562 230.699219 228.902344 230.996094 228.214844 C 231.292969 227.53125 231.628906 226.867188 232 226.21875 C 232.375 225.574219 232.785156 224.949219 233.230469 224.351562 C 233.671875 223.75 234.152344 223.179688 234.660156 222.632812 C 235.171875 222.089844 235.710938 221.578125 236.28125 221.09375 C 236.851562 220.609375 237.445312 220.164062 238.066406 219.746094 C 238.6875 219.332031 239.328125 218.957031 239.992188 218.613281 C 240.65625 218.273438 241.339844 217.972656 242.035156 217.710938 C 242.734375 217.445312 243.445312 217.222656 244.171875 217.042969 C 244.894531 216.863281 245.625 216.722656 246.367188 216.625 C 247.105469 216.527344 247.851562 216.472656 248.597656 216.460938 C 249.34375 216.449219 250.085938 216.480469 250.828125 216.554688 C 251.574219 216.628906 252.308594 216.742188 253.039062 216.902344 C 253.769531 217.058594 254.484375 217.257812 255.191406 217.496094 C 255.898438 217.738281 256.589844 218.019531 257.265625 218.335938 C 257.9375 218.65625 258.59375 219.011719 259.226562 219.40625 C 259.859375 219.800781 260.46875 220.230469 261.054688 220.695312 C 261.640625 221.160156 262.195312 221.65625 262.722656 222.183594 C 263.628906 223.089844 264.441406 224.074219 265.15625 225.136719 C 265.867188 226.203125 266.46875 227.328125 266.960938 228.511719 C 267.449219 229.695312 267.820312 230.917969 268.070312 232.175781 C 268.316406 233.433594 268.441406 234.703125 268.4375 235.984375 Z M 268.4375 235.984375 " fill-opacity="1" fill-rule="nonzero"/><path fill="#1a56db" d="M 179.484375 324.9375 C 179.484375 325.679688 179.441406 326.421875 179.355469 327.164062 C 179.269531 327.902344 179.140625 328.636719 178.972656 329.359375 C 178.800781 330.085938 178.589844 330.800781 178.339844 331.5 C 178.089844 332.199219 177.796875 332.886719 177.46875 333.554688 C 177.136719 334.222656 176.773438 334.867188 176.367188 335.492188 C 175.964844 336.117188 175.527344 336.71875 175.054688 337.292969 C 174.582031 337.871094 174.074219 338.417969 173.539062 338.933594 C 173.003906 339.453125 172.441406 339.9375 171.851562 340.390625 C 171.261719 340.84375 170.644531 341.261719 170.007812 341.644531 C 169.367188 342.027344 168.707031 342.371094 168.03125 342.679688 C 167.351562 342.984375 166.65625 343.253906 165.949219 343.480469 C 165.238281 343.707031 164.519531 343.894531 163.789062 344.039062 C 163.058594 344.183594 162.324219 344.285156 161.582031 344.347656 C 160.835938 344.40625 160.09375 344.425781 159.351562 344.402344 C 158.605469 344.375 157.867188 344.308594 157.128906 344.199219 C 156.390625 344.089844 155.664062 343.9375 154.945312 343.746094 C 154.226562 343.554688 153.519531 343.320312 152.828125 343.046875 C 152.136719 342.773438 151.460938 342.460938 150.804688 342.109375 C 150.148438 341.757812 149.511719 341.371094 148.898438 340.945312 C 148.289062 340.523438 147.703125 340.0625 147.140625 339.574219 C 146.582031 339.082031 146.050781 338.558594 145.550781 338.007812 C 145.050781 337.457031 144.585938 336.878906 144.152344 336.273438 C 143.71875 335.667969 143.320312 335.039062 142.957031 334.386719 C 142.597656 333.738281 142.273438 333.066406 141.988281 332.378906 C 141.703125 331.691406 141.460938 330.988281 141.253906 330.273438 C 141.050781 329.558594 140.886719 328.832031 140.765625 328.097656 C 140.644531 327.363281 140.566406 326.621094 140.53125 325.878906 C 140.492188 325.136719 140.5 324.390625 140.546875 323.648438 C 140.597656 322.90625 140.6875 322.167969 140.820312 321.433594 C 140.953125 320.703125 141.128906 319.980469 141.34375 319.265625 C 141.5625 318.554688 141.816406 317.855469 142.113281 317.171875 C 142.410156 316.488281 142.746094 315.824219 143.117188 315.179688 C 143.488281 314.535156 143.898438 313.914062 144.339844 313.316406 C 144.785156 312.71875 145.261719 312.148438 145.769531 311.601562 C 146.277344 311.058594 146.816406 310.546875 147.382812 310.066406 C 147.953125 309.582031 148.546875 309.136719 149.164062 308.722656 C 149.785156 308.308594 150.425781 307.929688 151.085938 307.589844 C 151.75 307.25 152.429688 306.949219 153.125 306.683594 C 153.824219 306.421875 154.53125 306.203125 155.253906 306.019531 C 155.976562 305.839844 156.707031 305.699219 157.445312 305.601562 C 158.183594 305.503906 158.925781 305.449219 159.671875 305.4375 C 160.414062 305.425781 161.15625 305.457031 161.898438 305.527344 C 162.640625 305.601562 163.375 305.714844 164.101562 305.871094 C 164.832031 306.03125 165.546875 306.226562 166.253906 306.46875 C 166.957031 306.707031 167.648438 306.984375 168.320312 307.304688 C 168.992188 307.621094 169.648438 307.976562 170.28125 308.371094 C 170.910156 308.761719 171.519531 309.191406 172.105469 309.652344 C 172.6875 310.117188 173.242188 310.609375 173.769531 311.136719 C 174.675781 312.042969 175.488281 313.027344 176.203125 314.089844 C 176.914062 315.15625 177.515625 316.28125 178.007812 317.464844 C 178.496094 318.648438 178.867188 319.871094 179.117188 321.128906 C 179.363281 322.386719 179.488281 323.65625 179.484375 324.9375 Z M 179.484375 324.9375 " fill-opacity="1" fill-rule="nonzero"/><g clip-path="url(#780f86bd5d)"><path fill="#1a56db" d="M 511.367188 19.023438 C 510.019531 17.675781 508.605469 16.394531 507.128906 15.183594 C 505.652344 13.972656 504.121094 12.839844 502.535156 11.777344 C 500.949219 10.71875 499.3125 9.738281 497.628906 8.839844 C 495.945312 7.9375 494.222656 7.125 492.460938 6.394531 C 490.695312 5.664062 488.902344 5.019531 487.074219 4.46875 C 485.25 3.914062 483.398438 3.449219 481.527344 3.078125 C 479.65625 2.707031 477.769531 2.425781 475.871094 2.238281 C 473.96875 2.050781 472.066406 1.957031 470.15625 1.957031 C 468.25 1.957031 466.34375 2.050781 464.445312 2.238281 C 462.546875 2.425781 460.660156 2.707031 458.789062 3.078125 C 456.917969 3.449219 455.066406 3.914062 453.242188 4.46875 C 451.414062 5.019531 449.621094 5.664062 447.855469 6.394531 C 446.09375 7.125 444.371094 7.9375 442.6875 8.839844 C 441.003906 9.738281 439.367188 10.71875 437.78125 11.777344 C 436.191406 12.839844 434.660156 13.972656 433.1875 15.183594 C 431.710938 16.394531 430.296875 17.675781 428.949219 19.023438 C 417.015625 30.957031 405.738281 64.054688 398.042969 91.199219 C 390.363281 64.054688 379.125 30.957031 367.140625 19.023438 C 365.792969 17.660156 364.382812 16.363281 362.910156 15.136719 C 361.4375 13.910156 359.90625 12.757812 358.320312 11.683594 C 356.730469 10.609375 355.09375 9.613281 353.410156 8.699219 C 351.722656 7.785156 349.996094 6.957031 348.230469 6.214844 C 346.460938 5.472656 344.664062 4.816406 342.832031 4.25 C 341 3.683594 339.144531 3.210938 337.265625 2.828125 C 335.386719 2.445312 333.492188 2.15625 331.585938 1.960938 C 329.679688 1.765625 327.765625 1.664062 325.847656 1.65625 C 323.929688 1.648438 322.019531 1.738281 320.109375 1.917969 C 318.199219 2.101562 316.304688 2.375 314.425781 2.746094 C 312.542969 3.113281 310.683594 3.574219 308.847656 4.125 C 307.011719 4.679688 305.207031 5.320312 303.433594 6.050781 C 301.660156 6.78125 299.929688 7.597656 298.238281 8.5 C 296.546875 9.398438 294.902344 10.382812 293.304688 11.445312 C 291.710938 12.511719 290.171875 13.648438 288.6875 14.863281 C 287.207031 16.082031 285.785156 17.367188 284.429688 18.722656 C 283.074219 20.078125 281.789062 21.496094 280.574219 22.980469 C 279.359375 24.460938 278.21875 26 277.152344 27.59375 C 276.089844 29.191406 275.109375 30.835938 274.207031 32.527344 C 273.304688 34.21875 272.488281 35.949219 271.757812 37.722656 C 271.027344 39.496094 270.386719 41.300781 269.832031 43.136719 C 269.28125 44.972656 268.820312 46.832031 268.449219 48.710938 C 268.082031 50.59375 267.804688 52.488281 267.621094 54.398438 C 267.441406 56.304688 267.351562 58.21875 267.359375 60.136719 C 267.367188 62.054688 267.46875 63.964844 267.664062 65.875 C 267.859375 67.78125 268.148438 69.675781 268.53125 71.554688 C 268.910156 73.433594 269.386719 75.289062 269.953125 77.121094 C 270.515625 78.953125 271.171875 80.75 271.914062 82.519531 C 272.65625 84.285156 273.484375 86.011719 274.398438 87.699219 C 275.3125 89.382812 276.308594 91.019531 277.382812 92.609375 C 278.457031 94.195312 279.609375 95.726562 280.832031 97.199219 C 282.058594 98.675781 283.355469 100.085938 284.722656 101.429688 C 292.152344 108.859375 307.777344 116.023438 325.085938 122.242188 L 471.027344 122.242188 C 488.308594 116.023438 503.9375 108.859375 511.394531 101.429688 C 512.742188 100.082031 514.023438 98.667969 515.230469 97.195312 C 516.441406 95.71875 517.578125 94.1875 518.636719 92.601562 C 519.699219 91.011719 520.679688 89.378906 521.578125 87.695312 C 522.476562 86.011719 523.292969 84.289062 524.023438 82.527344 C 524.753906 80.761719 525.394531 78.96875 525.949219 77.140625 C 526.503906 75.316406 526.964844 73.46875 527.335938 71.59375 C 527.710938 69.722656 527.988281 67.839844 528.175781 65.9375 C 528.363281 64.039062 528.457031 62.136719 528.457031 60.226562 C 528.457031 58.320312 528.363281 56.414062 528.175781 54.515625 C 527.988281 52.617188 527.710938 50.730469 527.335938 48.859375 C 526.964844 46.988281 526.503906 45.140625 525.949219 43.3125 C 525.394531 41.488281 524.753906 39.691406 524.023438 37.929688 C 523.292969 36.164062 522.476562 34.441406 521.578125 32.757812 C 520.679688 31.078125 519.699219 29.441406 518.636719 27.855469 C 517.578125 26.269531 516.441406 24.738281 515.230469 23.261719 C 514.023438 21.785156 512.742188 20.375 511.394531 19.023438 Z M 298.949219 87.164062 C 298.066406 86.28125 297.230469 85.359375 296.441406 84.394531 C 295.648438 83.429688 294.910156 82.429688 294.214844 81.390625 C 293.523438 80.355469 292.882812 79.285156 292.296875 78.183594 C 291.707031 77.085938 291.175781 75.957031 290.699219 74.804688 C 290.222656 73.652344 289.804688 72.480469 289.441406 71.285156 C 289.078125 70.09375 288.777344 68.882812 288.535156 67.660156 C 288.292969 66.4375 288.109375 65.207031 287.988281 63.964844 C 287.867188 62.722656 287.804688 61.480469 287.804688 60.230469 C 287.804688 58.984375 287.867188 57.738281 287.988281 56.5 C 288.113281 55.257812 288.292969 54.023438 288.539062 52.800781 C 288.78125 51.578125 289.085938 50.371094 289.445312 49.175781 C 289.808594 47.984375 290.230469 46.808594 290.707031 45.660156 C 291.183594 44.507812 291.714844 43.378906 292.304688 42.28125 C 292.894531 41.179688 293.535156 40.113281 294.226562 39.074219 C 294.917969 38.039062 295.660156 37.035156 296.453125 36.074219 C 297.242188 35.109375 298.082031 34.1875 298.960938 33.304688 C 299.84375 32.421875 300.765625 31.585938 301.730469 30.792969 C 302.695312 30.003906 303.695312 29.261719 304.734375 28.566406 C 305.769531 27.875 306.839844 27.234375 307.9375 26.644531 C 309.039062 26.058594 310.164062 25.523438 311.316406 25.046875 C 312.46875 24.570312 313.640625 24.148438 314.835938 23.789062 C 316.027344 23.425781 317.238281 23.121094 318.460938 22.878906 C 319.683594 22.636719 320.917969 22.453125 322.15625 22.332031 C 323.398438 22.207031 324.644531 22.144531 325.890625 22.144531 C 327.136719 22.144531 328.382812 22.207031 329.621094 22.328125 C 330.863281 22.449219 332.097656 22.632812 333.320312 22.875 C 334.542969 23.117188 335.75 23.421875 336.945312 23.78125 C 338.140625 24.144531 339.3125 24.5625 340.464844 25.039062 C 341.617188 25.515625 342.742188 26.050781 343.84375 26.636719 C 344.945312 27.226562 346.011719 27.863281 347.050781 28.558594 C 348.085938 29.25 349.089844 29.992188 350.054688 30.78125 C 351.015625 31.574219 351.941406 32.410156 352.824219 33.289062 C 363.203125 43.683594 376.347656 86.269531 384.445312 118.789062 C 351.929688 110.6875 309.394531 97.558594 298.949219 87.164062 Z M 505.324219 74.804688 C 503.382812 79.472656 500.621094 83.59375 497.039062 87.164062 C 486.65625 97.558594 444.058594 110.6875 411.542969 118.789062 C 419.640625 86.230469 432.769531 43.683594 443.175781 33.289062 C 443.949219 32.519531 444.753906 31.785156 445.589844 31.085938 C 446.425781 30.386719 447.289062 29.722656 448.183594 29.097656 C 449.074219 28.472656 449.992188 27.882812 450.933594 27.335938 C 451.878906 26.789062 452.84375 26.285156 453.828125 25.820312 C 454.816406 25.355469 455.820312 24.933594 456.84375 24.554688 C 457.863281 24.175781 458.902344 23.84375 459.953125 23.554688 C 461.003906 23.265625 462.066406 23.019531 463.136719 22.820312 C 464.210938 22.625 465.289062 22.472656 466.375 22.367188 C 467.457031 22.257812 468.546875 22.199219 469.636719 22.1875 C 470.726562 22.175781 471.816406 22.210938 472.902344 22.292969 C 473.992188 22.371094 475.070312 22.5 476.148438 22.671875 C 477.226562 22.847656 478.292969 23.066406 479.347656 23.332031 C 480.40625 23.597656 481.449219 23.90625 482.480469 24.261719 C 483.511719 24.617188 484.527344 25.015625 485.523438 25.457031 C 486.519531 25.898438 487.496094 26.382812 488.449219 26.910156 C 489.40625 27.433594 490.335938 28 491.242188 28.605469 C 492.148438 29.210938 493.03125 29.855469 493.878906 30.535156 C 494.730469 31.21875 495.554688 31.933594 496.34375 32.683594 C 497.132812 33.4375 497.890625 34.21875 498.613281 35.035156 C 499.335938 35.851562 500.019531 36.699219 500.671875 37.574219 C 501.320312 38.449219 501.933594 39.351562 502.503906 40.277344 C 503.078125 41.207031 503.609375 42.15625 504.101562 43.128906 C 504.59375 44.105469 505.042969 45.097656 505.449219 46.109375 C 505.855469 47.121094 506.214844 48.148438 506.535156 49.191406 C 506.851562 50.234375 507.125 51.289062 507.351562 52.355469 C 507.578125 53.421875 507.761719 54.496094 507.894531 55.578125 C 508.03125 56.660156 508.121094 57.742188 508.160156 58.832031 C 508.203125 59.921875 508.199219 61.011719 508.148438 62.101562 C 508.097656 63.191406 508 64.273438 507.855469 65.355469 C 507.710938 66.4375 507.519531 67.507812 507.28125 68.574219 C 507.046875 69.636719 506.765625 70.691406 506.4375 71.730469 C 506.109375 72.769531 505.738281 73.792969 505.324219 74.804688 Z M 505.324219 74.804688 " fill-opacity="1" fill-rule="nonzero"/></g><g clip-path="url(#ba8583548c)"><g transform="matrix(1, 0, 0, 1, 575, 23)"><g clip-path="url(#86cdf92232)"><g fill="#1a56db" fill-opacity="1"><g transform="translate(1.005925, 396.693242)"><g><path d="M 172.859375 0 L 11.078125 0 L 11.078125 -276.890625 L 162.5625 -276.890625 C 183.132812 -276.890625 201.195312 -274.316406 216.75 -269.171875 C 232.3125 -264.023438 244.507812 -256.3125 253.34375 -246.03125 C 262.175781 -235.75 266.59375 -222.828125 266.59375 -207.265625 C 266.59375 -187.753906 259.40625 -172.457031 245.03125 -161.375 C 230.664062 -150.300781 210.296875 -144.765625 183.921875 -144.765625 L 183.921875 -138.4375 C 213.722656 -138.4375 236.664062 -133.359375 252.75 -123.203125 C 268.84375 -113.054688 276.890625 -97.300781 276.890625 -75.9375 C 276.890625 -52.207031 267.523438 -33.617188 248.796875 -20.171875 C 230.078125 -6.722656 204.765625 0 172.859375 0 Z M 100.859375 -174.046875 L 100.859375 -149.515625 L 153.078125 -149.515625 C 159.929688 -149.515625 165.335938 -150.503906 169.296875 -152.484375 C 173.253906 -154.460938 175.234375 -157.5625 175.234375 -161.78125 C 175.234375 -166 173.054688 -169.097656 168.703125 -171.078125 C 164.347656 -173.054688 158.742188 -174.046875 151.890625 -174.046875 Z M 100.859375 -130.53125 L 100.859375 -103.640625 L 156.640625 -103.640625 C 171.929688 -103.640625 179.578125 -108.117188 179.578125 -117.078125 C 179.578125 -126.046875 171.929688 -130.53125 156.640625 -130.53125 Z M 100.859375 -130.53125 "/></g></g></g><g fill="#1a56db" fill-opacity="1"><g transform="translate(266.420273, 396.693242)"><g><path d="M 201.734375 0 L 89.796875 0 L -4.75 -276.890625 L 117.875 -276.890625 L 142.796875 -123.40625 L 149.125 -123.40625 L 172.859375 -276.890625 L 295.875 -276.890625 Z M 201.734375 0 "/></g></g></g></g></g></g></g></g></svg>