<svg xmlns="http://www.w3.org/2000/svg" xmlns:xlink="http://www.w3.org/1999/xlink" width="1694" zoomAndPan="magnify" viewBox="0 0 1270.5 136.499996" height="182" preserveAspectRatio="xMidYMid meet" version="1.0"><defs><g/><clipPath id="16e658d018"><path d="M 2.070312 22 L 197 22 L 197 108 L 2.070312 108 Z M 2.070312 22 " clip-rule="nonzero"/></clipPath><clipPath id="36dd25f150"><path d="M 0.0703125 24 L 67 24 L 67 71.496094 L 0.0703125 71.496094 Z M 0.0703125 24 " clip-rule="nonzero"/></clipPath><clipPath id="55dc1607fc"><path d="M 69 24 L 95.511719 24 L 95.511719 71.496094 L 69 71.496094 Z M 69 24 " clip-rule="nonzero"/></clipPath><clipPath id="4e2fed607c"><path d="M 45 0.398438 L 91 0.398438 L 91 21 L 45 21 Z M 45 0.398438 " clip-rule="nonzero"/></clipPath><clipPath id="506111a078"><path d="M 98 4 L 194.238281 4 L 194.238281 85.128906 L 98 85.128906 Z M 98 4 " clip-rule="nonzero"/></clipPath><clipPath id="b76d7a0103"><rect x="0" width="97" y="0" height="82"/></clipPath><clipPath id="a97d7e45f7"><rect x="0" width="195" y="0" height="86"/></clipPath></defs><g clip-path="url(#16e658d018)"><g transform="matrix(1, 0, 0, 1, 2, 22)"><g clip-path="url(#a97d7e45f7)"><g clip-path="url(#36dd25f150)"><path fill="#1a56db" d="M 2.003906 24.402344 C 1.886719 24.402344 1.777344 24.429688 1.675781 24.488281 C 1.570312 24.546875 1.492188 24.625 1.429688 24.726562 C 1.371094 24.828125 1.335938 24.933594 1.335938 25.050781 C 1.332031 25.167969 1.359375 25.28125 1.414062 25.382812 L 3.425781 29.167969 C 3.75 29.769531 3.910156 30.414062 3.910156 31.101562 C 3.910156 31.785156 3.75 32.429688 3.425781 33.035156 L 0.148438 39.195312 C 0.0351562 39.402344 0.0351562 39.609375 0.148438 39.820312 L 3.429688 45.988281 C 3.75 46.59375 3.914062 47.234375 3.914062 47.917969 C 3.914062 48.601562 3.75 49.246094 3.429688 49.847656 L 0.148438 56.015625 C 0.0351562 56.226562 0.0351562 56.4375 0.148438 56.644531 L 3.429688 62.816406 C 3.75 63.417969 3.914062 64.0625 3.914062 64.746094 C 3.914062 65.429688 3.75 66.070312 3.429688 66.675781 L 1.417969 70.460938 C 1.363281 70.5625 1.335938 70.671875 1.339844 70.789062 C 1.34375 70.90625 1.375 71.011719 1.433594 71.113281 C 1.496094 71.214844 1.574219 71.292969 1.675781 71.351562 C 1.777344 71.40625 1.886719 71.4375 2.003906 71.4375 L 66.167969 71.4375 L 66.167969 24.402344 Z M 32.089844 60.292969 C 31.777344 60.605469 31.433594 60.886719 31.066406 61.132812 C 30.695312 61.378906 30.304688 61.585938 29.894531 61.757812 C 29.484375 61.925781 29.0625 62.054688 28.628906 62.140625 C 28.191406 62.230469 27.75 62.273438 27.308594 62.273438 C 26.863281 62.273438 26.421875 62.230469 25.988281 62.140625 C 25.550781 62.054688 25.128906 61.925781 24.71875 61.757812 C 24.308594 61.585938 23.917969 61.378906 23.550781 61.132812 C 23.179688 60.886719 22.839844 60.605469 22.523438 60.289062 C 22.210938 59.976562 21.929688 59.632812 21.683594 59.265625 C 21.4375 58.894531 21.226562 58.507812 21.058594 58.09375 C 20.886719 57.683594 20.757812 57.261719 20.671875 56.828125 C 20.585938 56.390625 20.542969 55.949219 20.542969 55.507812 C 20.542969 55.0625 20.585938 54.621094 20.671875 54.1875 C 20.757812 53.75 20.886719 53.328125 21.058594 52.917969 C 21.226562 52.507812 21.4375 52.117188 21.683594 51.75 C 21.929688 51.378906 22.210938 51.039062 22.523438 50.722656 C 22.839844 50.410156 23.179688 50.128906 23.550781 49.882812 C 23.917969 49.636719 24.308594 49.425781 24.71875 49.257812 C 25.128906 49.085938 25.550781 48.957031 25.988281 48.871094 C 26.421875 48.785156 26.863281 48.742188 27.308594 48.742188 C 27.75 48.742188 28.191406 48.785156 28.628906 48.871094 C 29.0625 48.957031 29.484375 49.085938 29.894531 49.257812 C 30.304688 49.425781 30.695312 49.632812 31.066406 49.878906 C 31.433594 50.128906 31.777344 50.40625 32.089844 50.722656 C 32.40625 51.035156 32.691406 51.375 32.941406 51.742188 C 33.1875 52.109375 33.398438 52.5 33.570312 52.910156 C 33.742188 53.320312 33.871094 53.742188 33.960938 54.179688 C 34.050781 54.613281 34.09375 55.054688 34.09375 55.5 C 34.09375 55.945312 34.050781 56.382812 33.964844 56.820312 C 33.878906 57.257812 33.75 57.679688 33.578125 58.089844 C 33.410156 58.5 33.199219 58.890625 32.953125 59.261719 C 32.703125 59.628906 32.421875 59.96875 32.105469 60.285156 Z M 46.996094 60.042969 C 46.835938 60.203125 46.648438 60.328125 46.441406 60.414062 C 46.230469 60.503906 46.007812 60.546875 45.78125 60.546875 C 45.554688 60.546875 45.335938 60.503906 45.125 60.414062 C 44.914062 60.328125 44.726562 60.203125 44.566406 60.042969 L 22.785156 38.238281 C 22.632812 38.074219 22.519531 37.890625 22.441406 37.683594 C 22.363281 37.472656 22.324219 37.257812 22.328125 37.039062 C 22.332031 36.816406 22.378906 36.601562 22.464844 36.398438 C 22.550781 36.191406 22.675781 36.011719 22.832031 35.855469 C 22.988281 35.699219 23.167969 35.574219 23.375 35.488281 C 23.578125 35.402344 23.789062 35.355469 24.011719 35.351562 C 24.234375 35.347656 24.449219 35.382812 24.65625 35.460938 C 24.863281 35.542969 25.050781 35.65625 25.214844 35.808594 L 47.011719 57.601562 C 47.171875 57.761719 47.296875 57.949219 47.386719 58.160156 C 47.472656 58.371094 47.515625 58.589844 47.515625 58.816406 C 47.515625 59.046875 47.472656 59.265625 47.386719 59.476562 C 47.296875 59.6875 47.171875 59.871094 47.011719 60.035156 Z M 47.246094 45.136719 C 46.878906 45.503906 46.476562 45.824219 46.035156 46.097656 C 45.59375 46.371094 45.128906 46.59375 44.636719 46.757812 C 44.144531 46.925781 43.640625 47.035156 43.125 47.085938 C 42.609375 47.136719 42.09375 47.128906 41.578125 47.0625 C 41.0625 46.992188 40.5625 46.867188 40.078125 46.6875 C 39.589844 46.503906 39.132812 46.269531 38.703125 45.980469 C 38.269531 45.691406 37.875 45.359375 37.523438 44.980469 C 37.167969 44.601562 36.859375 44.1875 36.601562 43.738281 C 36.339844 43.285156 36.136719 42.8125 35.984375 42.316406 C 35.832031 41.820312 35.742188 41.3125 35.707031 40.796875 C 35.671875 40.277344 35.699219 39.761719 35.78125 39.25 C 35.867188 38.738281 36.007812 38.242188 36.207031 37.761719 C 36.40625 37.285156 36.65625 36.832031 36.957031 36.410156 C 37.261719 35.988281 37.605469 35.605469 37.996094 35.265625 C 38.386719 34.921875 38.8125 34.628906 39.269531 34.382812 C 39.726562 34.140625 40.207031 33.949219 40.707031 33.816406 C 41.207031 33.679688 41.71875 33.605469 42.238281 33.585938 C 42.757812 33.570312 43.269531 33.613281 43.78125 33.714844 C 44.289062 33.816406 44.78125 33.972656 45.253906 34.1875 C 45.726562 34.402344 46.167969 34.664062 46.578125 34.980469 C 46.992188 35.296875 47.363281 35.65625 47.691406 36.058594 C 48.019531 36.457031 48.300781 36.890625 48.53125 37.355469 C 48.757812 37.824219 48.933594 38.308594 49.050781 38.8125 C 49.167969 39.320312 49.226562 39.832031 49.226562 40.351562 C 49.230469 41.246094 49.0625 42.105469 48.71875 42.933594 C 48.378906 43.761719 47.894531 44.492188 47.261719 45.128906 Z M 47.246094 45.136719 " fill-opacity="1" fill-rule="nonzero"/></g><g clip-path="url(#55dc1607fc)"><path fill="#1a56db" d="M 85.261719 37.496094 C 84.324219 38.570312 83.546875 39.75 82.929688 41.03125 C 82.308594 42.316406 81.871094 43.660156 81.613281 45.058594 C 81.355469 46.460938 81.289062 47.871094 81.414062 49.292969 C 81.535156 50.710938 81.84375 52.089844 82.339844 53.425781 C 82.835938 54.761719 83.5 56.011719 84.328125 57.167969 C 85.160156 58.324219 86.128906 59.351562 87.238281 60.25 C 88.347656 61.144531 89.554688 61.878906 90.859375 62.449219 C 92.164062 63.019531 93.523438 63.40625 94.933594 63.613281 C 95.097656 63.640625 95.230469 63.714844 95.335938 63.84375 C 95.445312 63.96875 95.496094 64.113281 95.496094 64.28125 L 95.496094 70.769531 C 95.496094 70.957031 95.429688 71.117188 95.296875 71.25 C 95.164062 71.382812 95.003906 71.449219 94.816406 71.449219 L 69.605469 71.449219 L 69.605469 24.402344 L 94.808594 24.402344 C 95 24.402344 95.160156 24.46875 95.289062 24.601562 C 95.421875 24.734375 95.488281 24.894531 95.488281 25.082031 L 95.488281 31.558594 C 95.488281 31.726562 95.4375 31.871094 95.332031 32 C 95.222656 32.125 95.089844 32.203125 94.925781 32.230469 C 93.054688 32.5 91.285156 33.089844 89.621094 33.996094 C 87.960938 34.902344 86.507812 36.070312 85.261719 37.496094 Z M 85.261719 37.496094 " fill-opacity="1" fill-rule="nonzero"/></g><path fill="#1a56db" d="M 45.804688 40.339844 C 45.804688 40.597656 45.777344 40.847656 45.71875 41.097656 C 45.660156 41.347656 45.574219 41.585938 45.460938 41.8125 C 45.347656 42.042969 45.210938 42.253906 45.050781 42.453125 C 44.886719 42.648438 44.707031 42.824219 44.503906 42.980469 C 44.300781 43.136719 44.082031 43.265625 43.851562 43.371094 C 43.617188 43.476562 43.375 43.554688 43.125 43.605469 C 42.875 43.65625 42.625 43.675781 42.367188 43.667969 C 42.113281 43.660156 41.863281 43.621094 41.617188 43.554688 C 41.371094 43.488281 41.132812 43.394531 40.910156 43.277344 C 40.683594 43.15625 40.476562 43.011719 40.285156 42.84375 C 40.09375 42.675781 39.921875 42.488281 39.773438 42.28125 C 39.625 42.074219 39.5 41.851562 39.402344 41.613281 C 39.304688 41.378906 39.238281 41.136719 39.195312 40.882812 C 39.152344 40.632812 39.140625 40.378906 39.15625 40.125 C 39.175781 39.871094 39.21875 39.621094 39.292969 39.375 C 39.367188 39.132812 39.46875 38.898438 39.597656 38.679688 C 39.722656 38.457031 39.875 38.253906 40.050781 38.066406 C 40.222656 37.882812 40.417969 37.71875 40.628906 37.574219 C 40.84375 37.433594 41.066406 37.316406 41.304688 37.226562 C 41.546875 37.136719 41.792969 37.078125 42.042969 37.042969 C 42.296875 37.011719 42.550781 37.007812 42.804688 37.03125 C 43.058594 37.054688 43.304688 37.109375 43.546875 37.191406 C 43.789062 37.273438 44.019531 37.382812 44.234375 37.519531 C 44.453125 37.652344 44.652344 37.808594 44.832031 37.992188 C 45.480469 38.640625 45.808594 39.421875 45.804688 40.339844 Z M 45.804688 40.339844 " fill-opacity="1" fill-rule="nonzero"/><path fill="#1a56db" d="M 30.648438 55.496094 C 30.648438 55.75 30.621094 56.003906 30.5625 56.25 C 30.503906 56.5 30.417969 56.738281 30.304688 56.964844 C 30.191406 57.195312 30.054688 57.40625 29.894531 57.601562 C 29.734375 57.800781 29.550781 57.976562 29.347656 58.128906 C 29.148438 58.285156 28.929688 58.414062 28.699219 58.519531 C 28.464844 58.625 28.226562 58.703125 27.976562 58.75 C 27.726562 58.800781 27.472656 58.820312 27.21875 58.8125 C 26.964844 58.804688 26.714844 58.769531 26.46875 58.703125 C 26.222656 58.636719 25.988281 58.542969 25.761719 58.421875 C 25.539062 58.304688 25.332031 58.160156 25.140625 57.992188 C 24.949219 57.824219 24.777344 57.636719 24.628906 57.429688 C 24.480469 57.222656 24.359375 57 24.261719 56.765625 C 24.164062 56.53125 24.09375 56.285156 24.050781 56.035156 C 24.011719 55.785156 24 55.53125 24.015625 55.277344 C 24.03125 55.023438 24.078125 54.773438 24.152344 54.53125 C 24.226562 54.289062 24.324219 54.054688 24.453125 53.835938 C 24.582031 53.613281 24.730469 53.410156 24.90625 53.226562 C 25.078125 53.039062 25.273438 52.875 25.484375 52.734375 C 25.695312 52.59375 25.921875 52.476562 26.160156 52.386719 C 26.398438 52.296875 26.640625 52.238281 26.894531 52.203125 C 27.148438 52.167969 27.398438 52.164062 27.652344 52.191406 C 27.90625 52.214844 28.152344 52.269531 28.394531 52.351562 C 28.636719 52.433594 28.863281 52.539062 29.082031 52.675781 C 29.296875 52.808594 29.496094 52.964844 29.675781 53.144531 C 30.328125 53.792969 30.652344 54.578125 30.648438 55.496094 Z M 30.648438 55.496094 " fill-opacity="1" fill-rule="nonzero"/><g clip-path="url(#4e2fed607c)"><path fill="#1a56db" d="M 87.195312 3.378906 C 86.734375 2.917969 86.230469 2.503906 85.6875 2.144531 C 85.148438 1.78125 84.574219 1.476562 83.972656 1.226562 C 83.371094 0.976562 82.75 0.789062 82.109375 0.660156 C 81.46875 0.53125 80.824219 0.46875 80.171875 0.46875 C 79.519531 0.46875 78.875 0.53125 78.234375 0.660156 C 77.597656 0.789062 76.976562 0.976562 76.375 1.226562 C 75.769531 1.476562 75.199219 1.78125 74.65625 2.144531 C 74.113281 2.503906 73.613281 2.917969 73.152344 3.378906 C 71.117188 5.410156 69.199219 11.050781 67.886719 15.675781 C 66.578125 11.050781 64.664062 5.410156 62.621094 3.378906 C 62.160156 2.910156 61.660156 2.492188 61.117188 2.125 C 60.574219 1.757812 60.003906 1.449219 59.398438 1.195312 C 58.796875 0.941406 58.171875 0.75 57.53125 0.617188 C 56.890625 0.488281 56.242188 0.421875 55.585938 0.417969 C 54.929688 0.414062 54.28125 0.476562 53.640625 0.605469 C 52.996094 0.730469 52.371094 0.917969 51.765625 1.167969 C 51.160156 1.417969 50.585938 1.722656 50.042969 2.085938 C 49.496094 2.449219 48.992188 2.863281 48.53125 3.324219 C 48.066406 3.789062 47.652344 4.292969 47.289062 4.835938 C 46.925781 5.382812 46.621094 5.957031 46.371094 6.5625 C 46.121094 7.167969 45.933594 7.792969 45.808594 8.433594 C 45.679688 9.078125 45.617188 9.726562 45.621094 10.382812 C 45.625 11.035156 45.691406 11.683594 45.820312 12.328125 C 45.949219 12.96875 46.144531 13.589844 46.398438 14.195312 C 46.652344 14.796875 46.960938 15.371094 47.328125 15.914062 C 47.695312 16.457031 48.113281 16.957031 48.578125 17.417969 C 49.84375 18.683594 52.507812 19.902344 55.457031 20.964844 L 80.320312 20.964844 C 83.265625 19.902344 85.929688 18.683594 87.199219 17.417969 C 87.660156 16.957031 88.070312 16.453125 88.433594 15.914062 C 88.792969 15.371094 89.101562 14.796875 89.351562 14.195312 C 89.597656 13.59375 89.789062 12.972656 89.914062 12.332031 C 90.042969 11.695312 90.105469 11.050781 90.105469 10.398438 C 90.105469 9.746094 90.042969 9.101562 89.914062 8.460938 C 89.789062 7.820312 89.597656 7.199219 89.351562 6.597656 C 89.101562 5.996094 88.792969 5.421875 88.433594 4.882812 C 88.070312 4.339844 87.660156 3.839844 87.199219 3.378906 Z M 51.003906 14.988281 C 50.703125 14.683594 50.433594 14.355469 50.195312 14.003906 C 49.960938 13.648438 49.761719 13.273438 49.597656 12.882812 C 49.433594 12.488281 49.3125 12.082031 49.230469 11.664062 C 49.144531 11.246094 49.105469 10.824219 49.105469 10.398438 C 49.105469 9.972656 49.144531 9.550781 49.230469 9.132812 C 49.3125 8.714844 49.4375 8.308594 49.597656 7.914062 C 49.761719 7.519531 49.960938 7.148438 50.199219 6.792969 C 50.433594 6.4375 50.703125 6.109375 51.003906 5.808594 C 51.304688 5.507812 51.632812 5.238281 51.988281 5.003906 C 52.34375 4.765625 52.714844 4.566406 53.109375 4.402344 C 53.503906 4.242188 53.910156 4.117188 54.328125 4.035156 C 54.746094 3.949219 55.167969 3.910156 55.59375 3.910156 C 56.019531 3.910156 56.441406 3.949219 56.859375 4.035156 C 57.277344 4.117188 57.683594 4.238281 58.078125 4.402344 C 58.46875 4.566406 58.84375 4.765625 59.199219 5 C 59.550781 5.238281 59.878906 5.507812 60.183594 5.808594 C 61.949219 7.578125 64.191406 14.835938 65.570312 20.375 C 60.03125 18.996094 52.78125 16.757812 51.003906 14.988281 Z M 86.164062 12.878906 C 85.832031 13.675781 85.363281 14.378906 84.753906 14.988281 C 82.984375 16.757812 75.726562 18.996094 70.1875 20.375 C 71.566406 14.828125 73.804688 7.578125 75.574219 5.808594 C 76.105469 5.277344 76.710938 4.855469 77.390625 4.535156 C 78.070312 4.214844 78.78125 4.019531 79.527344 3.945312 C 80.273438 3.875 81.011719 3.929688 81.738281 4.109375 C 82.464844 4.292969 83.140625 4.59375 83.765625 5.011719 C 84.390625 5.425781 84.925781 5.9375 85.371094 6.539062 C 85.820312 7.140625 86.152344 7.800781 86.371094 8.515625 C 86.589844 9.234375 86.679688 9.96875 86.644531 10.714844 C 86.609375 11.464844 86.449219 12.1875 86.164062 12.878906 Z M 86.164062 12.878906 " fill-opacity="1" fill-rule="nonzero"/></g><g clip-path="url(#506111a078)"><g transform="matrix(1, 0, 0, 1, 98, 4)"><g clip-path="url(#b76d7a0103)"><g fill="#1a56db" fill-opacity="1"><g transform="translate(0.206821, 67.641445)"><g><path d="M 29.453125 0 L 1.890625 0 L 1.890625 -47.171875 L 27.703125 -47.171875 C 31.203125 -47.171875 34.273438 -46.734375 36.921875 -45.859375 C 39.578125 -44.984375 41.65625 -43.664062 43.15625 -41.90625 C 44.664062 -40.15625 45.421875 -37.957031 45.421875 -35.3125 C 45.421875 -31.988281 44.195312 -29.382812 41.75 -27.5 C 39.300781 -25.613281 35.832031 -24.671875 31.34375 -24.671875 L 31.34375 -23.59375 C 36.414062 -23.59375 40.320312 -22.722656 43.0625 -20.984375 C 45.800781 -19.253906 47.171875 -16.570312 47.171875 -12.9375 C 47.171875 -8.894531 45.578125 -5.726562 42.390625 -3.4375 C 39.203125 -1.144531 34.890625 0 29.453125 0 Z M 17.1875 -29.65625 L 17.1875 -25.46875 L 26.078125 -25.46875 C 27.242188 -25.46875 28.164062 -25.632812 28.84375 -25.96875 C 29.519531 -26.3125 29.859375 -26.84375 29.859375 -27.5625 C 29.859375 -28.28125 29.484375 -28.804688 28.734375 -29.140625 C 27.992188 -29.484375 27.039062 -29.65625 25.875 -29.65625 Z M 17.1875 -22.234375 L 17.1875 -17.65625 L 26.6875 -17.65625 C 29.289062 -17.65625 30.59375 -18.421875 30.59375 -19.953125 C 30.59375 -21.472656 29.289062 -22.234375 26.6875 -22.234375 Z M 17.1875 -22.234375 "/></g></g></g><g fill="#1a56db" fill-opacity="1"><g transform="translate(45.426988, 67.641445)"><g><path d="M 34.375 0 L 15.296875 0 L -0.8125 -47.171875 L 20.078125 -47.171875 L 24.328125 -21.03125 L 25.40625 -21.03125 L 29.453125 -47.171875 L 50.40625 -47.171875 Z M 34.375 0 "/></g></g></g></g></g></g></g></g></g><g fill="#1a56db" fill-opacity="1"><g transform="translate(253.901804, 90.244784)"><g><path d="M 32.578125 -11.09375 C 34.453125 -11.09375 36.269531 -11.375 38.03125 -11.9375 C 39.800781 -12.507812 41.097656 -13.054688 41.921875 -13.578125 L 43.15625 -14.4375 L 48.390625 -3.984375 C 48.210938 -3.847656 47.96875 -3.671875 47.65625 -3.453125 C 47.351562 -3.242188 46.644531 -2.84375 45.53125 -2.25 C 44.425781 -1.664062 43.242188 -1.15625 41.984375 -0.71875 C 40.722656 -0.28125 39.066406 0.109375 37.015625 0.453125 C 34.972656 0.804688 32.863281 0.984375 30.6875 0.984375 C 25.6875 0.984375 20.941406 -0.242188 16.453125 -2.703125 C 11.972656 -5.171875 8.359375 -8.554688 5.609375 -12.859375 C 2.867188 -17.171875 1.5 -21.832031 1.5 -26.84375 C 1.5 -30.625 2.300781 -34.253906 3.90625 -37.734375 C 5.519531 -41.222656 7.664062 -44.207031 10.34375 -46.6875 C 13.019531 -49.164062 16.144531 -51.144531 19.71875 -52.625 C 23.289062 -54.101562 26.945312 -54.84375 30.6875 -54.84375 C 34.164062 -54.84375 37.375 -54.429688 40.3125 -53.609375 C 43.257812 -52.785156 45.34375 -51.957031 46.5625 -51.125 L 48.390625 -49.890625 L 43.15625 -39.4375 C 42.851562 -39.695312 42.394531 -40.007812 41.78125 -40.375 C 41.175781 -40.75 39.957031 -41.238281 38.125 -41.84375 C 36.300781 -42.457031 34.453125 -42.765625 32.578125 -42.765625 C 29.617188 -42.765625 26.960938 -42.285156 24.609375 -41.328125 C 22.265625 -40.367188 20.40625 -39.101562 19.03125 -37.53125 C 17.664062 -35.96875 16.625 -34.285156 15.90625 -32.484375 C 15.1875 -30.679688 14.828125 -28.84375 14.828125 -26.96875 C 14.828125 -22.875 16.359375 -19.203125 19.421875 -15.953125 C 22.492188 -12.710938 26.878906 -11.09375 32.578125 -11.09375 Z M 32.578125 -11.09375 "/></g></g></g><g fill="#1a56db" fill-opacity="1"><g transform="translate(296.275155, 90.244784)"><g><path d="M 6.203125 -4.140625 C 3.066406 -7.554688 1.5 -11.742188 1.5 -16.703125 C 1.5 -21.671875 3.066406 -25.875 6.203125 -29.3125 C 9.335938 -32.757812 13.320312 -34.484375 18.15625 -34.484375 C 22.59375 -34.484375 26.25 -33.085938 29.125 -30.296875 L 29.125 -33.5 L 40.6875 -33.5 L 40.6875 0 L 29.25 0 L 29.25 -3.78125 L 29.125 -3.78125 C 26.25 -0.601562 22.59375 0.984375 18.15625 0.984375 C 13.320312 0.984375 9.335938 -0.722656 6.203125 -4.140625 Z M 16.03125 -22.390625 C 14.53125 -20.910156 13.78125 -19.015625 13.78125 -16.703125 C 13.78125 -14.398438 14.5 -12.519531 15.9375 -11.0625 C 17.375 -9.601562 19.265625 -8.875 21.609375 -8.875 C 23.878906 -8.875 25.742188 -9.613281 27.203125 -11.09375 C 28.660156 -12.582031 29.390625 -14.457031 29.390625 -16.71875 C 29.390625 -19.019531 28.632812 -20.910156 27.125 -22.390625 C 25.625 -23.867188 23.785156 -24.609375 21.609375 -24.609375 C 19.390625 -24.609375 17.53125 -23.867188 16.03125 -22.390625 Z M 16.03125 -22.390625 "/></g></g></g><g fill="#1a56db" fill-opacity="1"><g transform="translate(334.078067, 90.244784)"><g><path d="M 3.921875 0 L 3.921875 -33.5 L 15.46875 -33.5 L 15.46875 -28.671875 L 15.609375 -28.671875 C 15.691406 -28.835938 15.832031 -29.050781 16.03125 -29.3125 C 16.226562 -29.570312 16.648438 -30.03125 17.296875 -30.6875 C 17.953125 -31.34375 18.648438 -31.929688 19.390625 -32.453125 C 20.128906 -32.972656 21.085938 -33.441406 22.265625 -33.859375 C 23.441406 -34.273438 24.640625 -34.484375 25.859375 -34.484375 C 27.117188 -34.484375 28.359375 -34.304688 29.578125 -33.953125 C 30.796875 -33.609375 31.6875 -33.257812 32.25 -32.90625 L 33.171875 -32.390625 L 28.34375 -22.59375 C 26.90625 -23.8125 24.898438 -24.421875 22.328125 -24.421875 C 20.929688 -24.421875 19.734375 -24.113281 18.734375 -23.5 C 17.734375 -22.894531 17.023438 -22.15625 16.609375 -21.28125 C 16.203125 -20.414062 15.910156 -19.675781 15.734375 -19.0625 C 15.554688 -18.457031 15.46875 -17.976562 15.46875 -17.625 L 15.46875 0 Z M 3.921875 0 "/></g></g></g><g fill="#1a56db" fill-opacity="1"><g transform="translate(359.80195, 90.244784)"><g><path d="M 5.875 -33.5 L 5.875 -45.96875 L 17.4375 -45.96875 L 17.4375 -33.5 L 24.484375 -33.5 L 24.484375 -24.6875 L 17.4375 -24.6875 L 17.4375 -14.03125 C 17.4375 -10.945312 18.304688 -9.40625 20.046875 -9.40625 C 20.484375 -9.40625 20.941406 -9.488281 21.421875 -9.65625 C 21.898438 -9.832031 22.269531 -10.007812 22.53125 -10.1875 L 22.921875 -10.453125 L 25.796875 -1.109375 C 23.316406 0.285156 20.484375 0.984375 17.296875 0.984375 C 15.117188 0.984375 13.25 0.601562 11.6875 -0.15625 C 10.125 -0.925781 8.9375 -1.953125 8.125 -3.234375 C 7.320312 -4.515625 6.742188 -5.863281 6.390625 -7.28125 C 6.046875 -8.695312 5.875 -10.207031 5.875 -11.8125 L 5.875 -24.6875 L 1.046875 -24.6875 L 1.046875 -33.5 Z M 5.875 -33.5 "/></g></g></g><g fill="#1a56db" fill-opacity="1"><g transform="translate(378.800754, 90.244784)"><g><path d="M 37.8125 -15.15625 L 13.515625 -15.15625 C 13.515625 -12.800781 14.273438 -11.054688 15.796875 -9.921875 C 17.328125 -8.796875 18.984375 -8.234375 20.765625 -8.234375 C 22.640625 -8.234375 24.117188 -8.484375 25.203125 -8.984375 C 26.296875 -9.484375 27.535156 -10.472656 28.921875 -11.953125 L 37.28125 -7.765625 C 33.800781 -1.929688 28.015625 0.984375 19.921875 0.984375 C 14.867188 0.984375 10.535156 -0.742188 6.921875 -4.203125 C 3.304688 -7.671875 1.5 -11.84375 1.5 -16.71875 C 1.5 -21.59375 3.304688 -25.769531 6.921875 -29.25 C 10.535156 -32.738281 14.867188 -34.484375 19.921875 -34.484375 C 25.222656 -34.484375 29.539062 -32.945312 32.875 -29.875 C 36.207031 -26.800781 37.875 -22.414062 37.875 -16.71875 C 37.875 -15.9375 37.851562 -15.414062 37.8125 -15.15625 Z M 13.84375 -21.546875 L 26.578125 -21.546875 C 26.316406 -23.285156 25.628906 -24.625 24.515625 -25.5625 C 23.410156 -26.5 21.984375 -26.96875 20.234375 -26.96875 C 18.328125 -26.96875 16.804688 -26.46875 15.671875 -25.46875 C 14.535156 -24.46875 13.925781 -23.160156 13.84375 -21.546875 Z M 13.84375 -21.546875 "/></g></g></g><g fill="#1a56db" fill-opacity="1"><g transform="translate(411.249694, 90.244784)"><g><path d="M 3.921875 0 L 3.921875 -33.5 L 15.46875 -33.5 L 15.46875 -28.671875 L 15.609375 -28.671875 C 15.691406 -28.835938 15.832031 -29.050781 16.03125 -29.3125 C 16.226562 -29.570312 16.648438 -30.03125 17.296875 -30.6875 C 17.953125 -31.34375 18.648438 -31.929688 19.390625 -32.453125 C 20.128906 -32.972656 21.085938 -33.441406 22.265625 -33.859375 C 23.441406 -34.273438 24.640625 -34.484375 25.859375 -34.484375 C 27.117188 -34.484375 28.359375 -34.304688 29.578125 -33.953125 C 30.796875 -33.609375 31.6875 -33.257812 32.25 -32.90625 L 33.171875 -32.390625 L 28.34375 -22.59375 C 26.90625 -23.8125 24.898438 -24.421875 22.328125 -24.421875 C 20.929688 -24.421875 19.734375 -24.113281 18.734375 -23.5 C 17.734375 -22.894531 17.023438 -22.15625 16.609375 -21.28125 C 16.203125 -20.414062 15.910156 -19.675781 15.734375 -19.0625 C 15.554688 -18.457031 15.46875 -17.976562 15.46875 -17.625 L 15.46875 0 Z M 3.921875 0 "/></g></g></g><g fill="#1a56db" fill-opacity="1"><g transform="translate(436.973577, 90.244784)"><g/></g></g><g fill="#1a56db" fill-opacity="1"><g transform="translate(448.006762, 90.244784)"><g><path d="M 3.921875 -53.875 L 20.640625 -53.875 C 25.679688 -53.875 29.703125 -52.796875 32.703125 -50.640625 C 35.710938 -48.484375 37.21875 -44.988281 37.21875 -40.15625 C 37.21875 -34.757812 34.976562 -30.90625 30.5 -28.59375 C 38.15625 -27.25 41.984375 -22.722656 41.984375 -15.015625 C 41.984375 -10.492188 40.414062 -6.859375 37.28125 -4.109375 C 34.144531 -1.367188 29.835938 0 24.359375 0 L 3.921875 0 Z M 16.1875 -32.78125 L 17.171875 -32.78125 C 19.910156 -32.78125 21.953125 -33.257812 23.296875 -34.21875 C 24.648438 -35.175781 25.328125 -36.742188 25.328125 -38.921875 C 25.328125 -42.578125 22.609375 -44.40625 17.171875 -44.40625 L 16.1875 -44.40625 Z M 16.1875 -9.46875 L 20.046875 -9.46875 C 26.054688 -9.46875 29.0625 -11.46875 29.0625 -15.46875 C 29.0625 -17.863281 28.304688 -19.582031 26.796875 -20.625 C 25.296875 -21.675781 23.046875 -22.203125 20.046875 -22.203125 L 16.1875 -22.203125 Z M 16.1875 -9.46875 "/></g></g></g><g fill="#1a56db" fill-opacity="1"><g transform="translate(484.699692, 90.244784)"><g><path d="M 6.203125 -4.140625 C 3.066406 -7.554688 1.5 -11.742188 1.5 -16.703125 C 1.5 -21.671875 3.066406 -25.875 6.203125 -29.3125 C 9.335938 -32.757812 13.320312 -34.484375 18.15625 -34.484375 C 22.59375 -34.484375 26.25 -33.085938 29.125 -30.296875 L 29.125 -33.5 L 40.6875 -33.5 L 40.6875 0 L 29.25 0 L 29.25 -3.78125 L 29.125 -3.78125 C 26.25 -0.601562 22.59375 0.984375 18.15625 0.984375 C 13.320312 0.984375 9.335938 -0.722656 6.203125 -4.140625 Z M 16.03125 -22.390625 C 14.53125 -20.910156 13.78125 -19.015625 13.78125 -16.703125 C 13.78125 -14.398438 14.5 -12.519531 15.9375 -11.0625 C 17.375 -9.601562 19.265625 -8.875 21.609375 -8.875 C 23.878906 -8.875 25.742188 -9.613281 27.203125 -11.09375 C 28.660156 -12.582031 29.390625 -14.457031 29.390625 -16.71875 C 29.390625 -19.019531 28.632812 -20.910156 27.125 -22.390625 C 25.625 -23.867188 23.785156 -24.609375 21.609375 -24.609375 C 19.390625 -24.609375 17.53125 -23.867188 16.03125 -22.390625 Z M 16.03125 -22.390625 "/></g></g></g><g fill="#1a56db" fill-opacity="1"><g transform="translate(522.502616, 90.244784)"><g><path d="M 3.921875 0 L 3.921875 -33.5 L 15.46875 -33.5 L 15.46875 -29.96875 L 15.609375 -29.96875 C 18.609375 -32.976562 21.804688 -34.484375 25.203125 -34.484375 C 26.859375 -34.484375 28.5 -34.265625 30.125 -33.828125 C 31.757812 -33.390625 33.328125 -32.710938 34.828125 -31.796875 C 36.335938 -30.878906 37.554688 -29.582031 38.484375 -27.90625 C 39.421875 -26.238281 39.890625 -24.296875 39.890625 -22.078125 L 39.890625 0 L 28.34375 0 L 28.34375 -18.9375 C 28.34375 -20.675781 27.785156 -22.195312 26.671875 -23.5 C 25.566406 -24.8125 24.117188 -25.46875 22.328125 -25.46875 C 20.585938 -25.46875 19.007812 -24.789062 17.59375 -23.4375 C 16.175781 -22.09375 15.46875 -20.59375 15.46875 -18.9375 L 15.46875 0 Z M 3.921875 0 "/></g></g></g><g fill="#1a56db" fill-opacity="1"><g transform="translate(558.869097, 90.244784)"><g><path d="M 42.1875 -33.5 L 26.25 -17.5 L 43.75 0 L 28.859375 0 L 15.46875 -13.390625 L 15.46875 0 L 3.921875 0 L 3.921875 -56.15625 L 15.46875 -56.15625 L 15.46875 -21.8125 L 27.15625 -33.5 Z M 42.1875 -33.5 "/></g></g></g><g fill="#1a56db" fill-opacity="1"><g transform="translate(594.256188, 90.244784)"><g/></g></g><g fill="#1a56db" fill-opacity="1"><g transform="translate(599.738585, 90.244784)"><g><path d="M 20.765625 0 L -1.828125 -53.875 L 12.015625 -53.875 L 25.59375 -18.484375 L 39.171875 -53.875 L 53.015625 -53.875 L 30.421875 0 Z M 20.765625 0 "/></g></g></g><g fill="#1a56db" fill-opacity="1"><g transform="translate(639.56476, 90.244784)"><g><path d="M 7.078125 -3.984375 C 3.359375 -7.296875 1.5 -11.539062 1.5 -16.71875 C 1.5 -21.894531 3.4375 -26.148438 7.3125 -29.484375 C 11.1875 -32.816406 15.972656 -34.484375 21.671875 -34.484375 C 27.296875 -34.484375 32.03125 -32.804688 35.875 -29.453125 C 39.726562 -26.097656 41.65625 -21.851562 41.65625 -16.71875 C 41.65625 -11.582031 39.769531 -7.347656 36 -4.015625 C 32.238281 -0.679688 27.460938 0.984375 21.671875 0.984375 C 15.671875 0.984375 10.804688 -0.671875 7.078125 -3.984375 Z M 16.03125 -22.390625 C 14.53125 -20.910156 13.78125 -19.015625 13.78125 -16.703125 C 13.78125 -14.398438 14.5 -12.519531 15.9375 -11.0625 C 17.375 -9.601562 19.265625 -8.875 21.609375 -8.875 C 23.878906 -8.875 25.742188 -9.613281 27.203125 -11.09375 C 28.660156 -12.582031 29.390625 -14.457031 29.390625 -16.71875 C 29.390625 -19.019531 28.632812 -20.910156 27.125 -22.390625 C 25.625 -23.867188 23.785156 -24.609375 21.609375 -24.609375 C 19.390625 -24.609375 17.53125 -23.867188 16.03125 -22.390625 Z M 16.03125 -22.390625 "/></g></g></g><g fill="#1a56db" fill-opacity="1"><g transform="translate(675.931242, 90.244784)"><g><path d="M 14.828125 -33.5 L 14.828125 -17.5625 C 14.828125 -14.257812 15.328125 -11.910156 16.328125 -10.515625 C 17.328125 -9.117188 19.023438 -8.421875 21.421875 -8.421875 C 23.816406 -8.421875 25.515625 -9.117188 26.515625 -10.515625 C 27.515625 -11.910156 28.015625 -14.257812 28.015625 -17.5625 L 28.015625 -33.5 L 39.5625 -33.5 L 39.5625 -14.75 C 39.5625 -9.1875 38.113281 -5.171875 35.21875 -2.703125 C 32.332031 -0.242188 27.734375 0.984375 21.421875 0.984375 C 15.109375 0.984375 10.503906 -0.242188 7.609375 -2.703125 C 4.710938 -5.171875 3.265625 -9.1875 3.265625 -14.75 L 3.265625 -33.5 Z M 14.828125 -33.5 "/></g></g></g><g fill="#1a56db" fill-opacity="1"><g transform="translate(711.971252, 90.244784)"><g><path d="M 21.75 -25.015625 C 19.570312 -25.015625 17.695312 -24.207031 16.125 -22.59375 C 14.5625 -20.976562 13.78125 -19.039062 13.78125 -16.78125 C 13.78125 -14.476562 14.5625 -12.519531 16.125 -10.90625 C 17.695312 -9.289062 19.570312 -8.484375 21.75 -8.484375 C 22.789062 -8.484375 23.78125 -8.613281 24.71875 -8.875 C 25.65625 -9.132812 26.335938 -9.394531 26.765625 -9.65625 L 27.359375 -10.0625 L 31.28125 -2.03125 C 30.96875 -1.8125 30.539062 -1.535156 30 -1.203125 C 29.457031 -0.878906 28.21875 -0.4375 26.28125 0.125 C 24.34375 0.695312 22.265625 0.984375 20.046875 0.984375 C 15.128906 0.984375 10.804688 -0.742188 7.078125 -4.203125 C 3.359375 -7.671875 1.5 -11.820312 1.5 -16.65625 C 1.5 -21.53125 3.359375 -25.71875 7.078125 -29.21875 C 10.804688 -32.726562 15.128906 -34.484375 20.046875 -34.484375 C 22.265625 -34.484375 24.304688 -34.21875 26.171875 -33.6875 C 28.046875 -33.164062 29.378906 -32.644531 30.171875 -32.125 L 31.28125 -31.34375 L 27.359375 -23.4375 C 25.921875 -24.488281 24.050781 -25.015625 21.75 -25.015625 Z M 21.75 -25.015625 "/></g></g></g><g fill="#1a56db" fill-opacity="1"><g transform="translate(737.238118, 90.244784)"><g><path d="M 3.921875 0 L 3.921875 -56.15625 L 15.46875 -56.15625 L 15.46875 -29.96875 L 15.609375 -29.96875 C 18.609375 -32.976562 21.804688 -34.484375 25.203125 -34.484375 C 26.859375 -34.484375 28.5 -34.265625 30.125 -33.828125 C 31.757812 -33.390625 33.328125 -32.710938 34.828125 -31.796875 C 36.335938 -30.878906 37.554688 -29.582031 38.484375 -27.90625 C 39.421875 -26.238281 39.890625 -24.296875 39.890625 -22.078125 L 39.890625 0 L 28.34375 0 L 28.34375 -18.9375 C 28.34375 -20.675781 27.785156 -22.195312 26.671875 -23.5 C 25.566406 -24.8125 24.117188 -25.46875 22.328125 -25.46875 C 20.585938 -25.46875 19.007812 -24.789062 17.59375 -23.4375 C 16.175781 -22.09375 15.46875 -20.59375 15.46875 -18.9375 L 15.46875 0 Z M 3.921875 0 "/></g></g></g><g fill="#1a56db" fill-opacity="1"><g transform="translate(773.6046, 90.244784)"><g><path d="M 37.8125 -15.15625 L 13.515625 -15.15625 C 13.515625 -12.800781 14.273438 -11.054688 15.796875 -9.921875 C 17.328125 -8.796875 18.984375 -8.234375 20.765625 -8.234375 C 22.640625 -8.234375 24.117188 -8.484375 25.203125 -8.984375 C 26.296875 -9.484375 27.535156 -10.472656 28.921875 -11.953125 L 37.28125 -7.765625 C 33.800781 -1.929688 28.015625 0.984375 19.921875 0.984375 C 14.867188 0.984375 10.535156 -0.742188 6.921875 -4.203125 C 3.304688 -7.671875 1.5 -11.84375 1.5 -16.71875 C 1.5 -21.59375 3.304688 -25.769531 6.921875 -29.25 C 10.535156 -32.738281 14.867188 -34.484375 19.921875 -34.484375 C 25.222656 -34.484375 29.539062 -32.945312 32.875 -29.875 C 36.207031 -26.800781 37.875 -22.414062 37.875 -16.71875 C 37.875 -15.9375 37.851562 -15.414062 37.8125 -15.15625 Z M 13.84375 -21.546875 L 26.578125 -21.546875 C 26.316406 -23.285156 25.628906 -24.625 24.515625 -25.5625 C 23.410156 -26.5 21.984375 -26.96875 20.234375 -26.96875 C 18.328125 -26.96875 16.804688 -26.46875 15.671875 -25.46875 C 14.535156 -24.46875 13.925781 -23.160156 13.84375 -21.546875 Z M 13.84375 -21.546875 "/></g></g></g><g fill="#1a56db" fill-opacity="1"><g transform="translate(806.053516, 90.244784)"><g><path d="M 3.921875 0 L 3.921875 -33.5 L 15.46875 -33.5 L 15.46875 -28.671875 L 15.609375 -28.671875 C 15.691406 -28.835938 15.832031 -29.050781 16.03125 -29.3125 C 16.226562 -29.570312 16.648438 -30.03125 17.296875 -30.6875 C 17.953125 -31.34375 18.648438 -31.929688 19.390625 -32.453125 C 20.128906 -32.972656 21.085938 -33.441406 22.265625 -33.859375 C 23.441406 -34.273438 24.640625 -34.484375 25.859375 -34.484375 C 27.117188 -34.484375 28.359375 -34.304688 29.578125 -33.953125 C 30.796875 -33.609375 31.6875 -33.257812 32.25 -32.90625 L 33.171875 -32.390625 L 28.34375 -22.59375 C 26.90625 -23.8125 24.898438 -24.421875 22.328125 -24.421875 C 20.929688 -24.421875 19.734375 -24.113281 18.734375 -23.5 C 17.734375 -22.894531 17.023438 -22.15625 16.609375 -21.28125 C 16.203125 -20.414062 15.910156 -19.675781 15.734375 -19.0625 C 15.554688 -18.457031 15.46875 -17.976562 15.46875 -17.625 L 15.46875 0 Z M 3.921875 0 "/></g></g></g><g fill="#1a56db" fill-opacity="1"><g transform="translate(831.777433, 90.244784)"><g/></g></g><g fill="#1a56db" fill-opacity="1"><g transform="translate(842.810596, 90.244784)"><g><path d="M 31.28125 -53.875 L 53.015625 0 L 39.828125 0 L 35.84375 -10.78125 L 15.34375 -10.78125 L 11.359375 0 L -1.828125 0 L 19.921875 -53.875 Z M 31.671875 -21.546875 L 25.65625 -37.21875 L 25.53125 -37.21875 L 19.53125 -21.546875 Z M 31.671875 -21.546875 "/></g></g></g><g fill="#1a56db" fill-opacity="1"><g transform="translate(887.207962, 90.244784)"><g><path d="M 6.203125 -4.140625 C 3.066406 -7.554688 1.5 -11.742188 1.5 -16.703125 C 1.5 -21.671875 3.066406 -25.875 6.203125 -29.3125 C 9.335938 -32.757812 13.320312 -34.484375 18.15625 -34.484375 C 22.59375 -34.484375 26.25 -33.085938 29.125 -30.296875 L 29.125 -56.15625 L 40.6875 -56.15625 L 40.6875 0 L 29.25 0 L 29.25 -3.78125 L 29.125 -3.78125 C 26.25 -0.601562 22.59375 0.984375 18.15625 0.984375 C 13.320312 0.984375 9.335938 -0.722656 6.203125 -4.140625 Z M 16.03125 -22.390625 C 14.53125 -20.910156 13.78125 -19.015625 13.78125 -16.703125 C 13.78125 -14.398438 14.5 -12.519531 15.9375 -11.0625 C 17.375 -9.601562 19.265625 -8.875 21.609375 -8.875 C 23.878906 -8.875 25.742188 -9.613281 27.203125 -11.09375 C 28.660156 -12.582031 29.390625 -14.457031 29.390625 -16.71875 C 29.390625 -19.019531 28.632812 -20.910156 27.125 -22.390625 C 25.625 -23.867188 23.785156 -24.609375 21.609375 -24.609375 C 19.390625 -24.609375 17.53125 -23.867188 16.03125 -22.390625 Z M 16.03125 -22.390625 "/></g></g></g><g fill="#1a56db" fill-opacity="1"><g transform="translate(925.010909, 90.244784)"><g><path d="M 3.921875 0 L 3.921875 -33.5 L 15.46875 -33.5 L 15.46875 -29.96875 L 15.609375 -29.96875 C 18.609375 -32.976562 21.804688 -34.484375 25.203125 -34.484375 C 27.640625 -34.484375 29.925781 -33.976562 32.0625 -32.96875 C 34.195312 -31.96875 35.804688 -30.425781 36.890625 -28.34375 C 40.285156 -32.4375 43.988281 -34.484375 48 -34.484375 C 51.5625 -34.484375 54.625 -33.476562 57.1875 -31.46875 C 59.757812 -29.46875 61.046875 -26.335938 61.046875 -22.078125 L 61.046875 0 L 49.5 0 L 49.5 -18.9375 C 49.5 -20.71875 49.007812 -22.207031 48.03125 -23.40625 C 47.050781 -24.601562 45.582031 -25.203125 43.625 -25.203125 C 41.925781 -25.203125 40.628906 -24.691406 39.734375 -23.671875 C 38.835938 -22.648438 38.347656 -21.421875 38.265625 -19.984375 L 38.265625 0 L 26.703125 0 L 26.703125 -18.9375 C 26.703125 -20.71875 26.210938 -22.207031 25.234375 -23.40625 C 24.253906 -24.601562 22.785156 -25.203125 20.828125 -25.203125 C 19.046875 -25.203125 17.707031 -24.644531 16.8125 -23.53125 C 15.914062 -22.425781 15.46875 -21.113281 15.46875 -19.59375 L 15.46875 0 Z M 3.921875 0 "/></g></g></g><g fill="#1a56db" fill-opacity="1"><g transform="translate(982.531986, 90.244784)"><g><path d="M 5.015625 -52.171875 C 6.367188 -53.523438 7.984375 -54.203125 9.859375 -54.203125 C 11.734375 -54.203125 13.34375 -53.523438 14.6875 -52.171875 C 16.039062 -50.816406 16.71875 -49.203125 16.71875 -47.328125 C 16.71875 -45.460938 16.039062 -43.851562 14.6875 -42.5 C 13.34375 -41.15625 11.734375 -40.484375 9.859375 -40.484375 C 7.984375 -40.484375 6.367188 -41.15625 5.015625 -42.5 C 3.671875 -43.851562 3 -45.460938 3 -47.328125 C 3 -49.203125 3.671875 -50.816406 5.015625 -52.171875 Z M 3.921875 -33.5 L 3.921875 0 L 15.46875 0 L 15.46875 -33.5 Z M 3.921875 -33.5 "/></g></g></g><g fill="#1a56db" fill-opacity="1"><g transform="translate(995.458618, 90.244784)"><g><path d="M 3.921875 0 L 3.921875 -33.5 L 15.46875 -33.5 L 15.46875 -29.96875 L 15.609375 -29.96875 C 18.609375 -32.976562 21.804688 -34.484375 25.203125 -34.484375 C 26.859375 -34.484375 28.5 -34.265625 30.125 -33.828125 C 31.757812 -33.390625 33.328125 -32.710938 34.828125 -31.796875 C 36.335938 -30.878906 37.554688 -29.582031 38.484375 -27.90625 C 39.421875 -26.238281 39.890625 -24.296875 39.890625 -22.078125 L 39.890625 0 L 28.34375 0 L 28.34375 -18.9375 C 28.34375 -20.675781 27.785156 -22.195312 26.671875 -23.5 C 25.566406 -24.8125 24.117188 -25.46875 22.328125 -25.46875 C 20.585938 -25.46875 19.007812 -24.789062 17.59375 -23.4375 C 16.175781 -22.09375 15.46875 -20.59375 15.46875 -18.9375 L 15.46875 0 Z M 3.921875 0 "/></g></g></g><g fill="#1a56db" fill-opacity="1"><g transform="translate(1031.8251, 90.244784)"><g><path d="M 5.015625 -52.171875 C 6.367188 -53.523438 7.984375 -54.203125 9.859375 -54.203125 C 11.734375 -54.203125 13.34375 -53.523438 14.6875 -52.171875 C 16.039062 -50.816406 16.71875 -49.203125 16.71875 -47.328125 C 16.71875 -45.460938 16.039062 -43.851562 14.6875 -42.5 C 13.34375 -41.15625 11.734375 -40.484375 9.859375 -40.484375 C 7.984375 -40.484375 6.367188 -41.15625 5.015625 -42.5 C 3.671875 -43.851562 3 -45.460938 3 -47.328125 C 3 -49.203125 3.671875 -50.816406 5.015625 -52.171875 Z M 3.921875 -33.5 L 3.921875 0 L 15.46875 0 L 15.46875 -33.5 Z M 3.921875 -33.5 "/></g></g></g><g fill="#1a56db" fill-opacity="1"><g transform="translate(1044.751778, 90.244784)"><g><path d="M 18.484375 -34.484375 C 20.398438 -34.484375 22.289062 -34.265625 24.15625 -33.828125 C 26.03125 -33.390625 27.425781 -32.953125 28.34375 -32.515625 L 29.703125 -31.859375 L 25.921875 -24.296875 C 23.304688 -25.679688 20.828125 -26.375 18.484375 -26.375 C 17.171875 -26.375 16.242188 -26.234375 15.703125 -25.953125 C 15.160156 -25.671875 14.890625 -25.140625 14.890625 -24.359375 C 14.890625 -24.179688 14.910156 -24.003906 14.953125 -23.828125 C 14.992188 -23.660156 15.078125 -23.5 15.203125 -23.34375 C 15.335938 -23.1875 15.457031 -23.050781 15.5625 -22.9375 C 15.675781 -22.832031 15.863281 -22.710938 16.125 -22.578125 C 16.382812 -22.453125 16.59375 -22.359375 16.75 -22.296875 C 16.90625 -22.234375 17.15625 -22.132812 17.5 -22 C 17.84375 -21.875 18.101562 -21.773438 18.28125 -21.703125 C 18.457031 -21.640625 18.75 -21.539062 19.15625 -21.40625 C 19.570312 -21.28125 19.890625 -21.195312 20.109375 -21.15625 C 21.460938 -20.757812 22.640625 -20.320312 23.640625 -19.84375 C 24.640625 -19.363281 25.691406 -18.710938 26.796875 -17.890625 C 27.910156 -17.066406 28.769531 -16.019531 29.375 -14.75 C 29.988281 -13.488281 30.296875 -12.054688 30.296875 -10.453125 C 30.296875 -2.828125 25.007812 0.984375 14.4375 0.984375 C 12.039062 0.984375 9.765625 0.613281 7.609375 -0.125 C 5.453125 -0.863281 3.894531 -1.601562 2.9375 -2.34375 L 1.5 -3.53125 L 6.203125 -11.421875 C 6.546875 -11.117188 7 -10.757812 7.5625 -10.34375 C 8.132812 -9.9375 9.160156 -9.375 10.640625 -8.65625 C 12.117188 -7.9375 13.40625 -7.578125 14.5 -7.578125 C 16.894531 -7.578125 18.09375 -8.378906 18.09375 -9.984375 C 18.09375 -10.722656 17.785156 -11.300781 17.171875 -11.71875 C 16.566406 -12.132812 15.535156 -12.601562 14.078125 -13.125 C 12.617188 -13.644531 11.472656 -14.125 10.640625 -14.5625 C 8.554688 -15.644531 6.90625 -16.875 5.6875 -18.25 C 4.46875 -19.625 3.859375 -21.441406 3.859375 -23.703125 C 3.859375 -27.097656 5.171875 -29.742188 7.796875 -31.640625 C 10.429688 -33.535156 13.992188 -34.484375 18.484375 -34.484375 Z M 18.484375 -34.484375 "/></g></g></g><g fill="#1a56db" fill-opacity="1"><g transform="translate(1069.496189, 90.244784)"><g><path d="M 5.875 -33.5 L 5.875 -45.96875 L 17.4375 -45.96875 L 17.4375 -33.5 L 24.484375 -33.5 L 24.484375 -24.6875 L 17.4375 -24.6875 L 17.4375 -14.03125 C 17.4375 -10.945312 18.304688 -9.40625 20.046875 -9.40625 C 20.484375 -9.40625 20.941406 -9.488281 21.421875 -9.65625 C 21.898438 -9.832031 22.269531 -10.007812 22.53125 -10.1875 L 22.921875 -10.453125 L 25.796875 -1.109375 C 23.316406 0.285156 20.484375 0.984375 17.296875 0.984375 C 15.117188 0.984375 13.25 0.601562 11.6875 -0.15625 C 10.125 -0.925781 8.9375 -1.953125 8.125 -3.234375 C 7.320312 -4.515625 6.742188 -5.863281 6.390625 -7.28125 C 6.046875 -8.695312 5.875 -10.207031 5.875 -11.8125 L 5.875 -24.6875 L 1.046875 -24.6875 L 1.046875 -33.5 Z M 5.875 -33.5 "/></g></g></g><g fill="#1a56db" fill-opacity="1"><g transform="translate(1088.495016, 90.244784)"><g><path d="M 3.921875 0 L 3.921875 -33.5 L 15.46875 -33.5 L 15.46875 -28.671875 L 15.609375 -28.671875 C 15.691406 -28.835938 15.832031 -29.050781 16.03125 -29.3125 C 16.226562 -29.570312 16.648438 -30.03125 17.296875 -30.6875 C 17.953125 -31.34375 18.648438 -31.929688 19.390625 -32.453125 C 20.128906 -32.972656 21.085938 -33.441406 22.265625 -33.859375 C 23.441406 -34.273438 24.640625 -34.484375 25.859375 -34.484375 C 27.117188 -34.484375 28.359375 -34.304688 29.578125 -33.953125 C 30.796875 -33.609375 31.6875 -33.257812 32.25 -32.90625 L 33.171875 -32.390625 L 28.34375 -22.59375 C 26.90625 -23.8125 24.898438 -24.421875 22.328125 -24.421875 C 20.929688 -24.421875 19.734375 -24.113281 18.734375 -23.5 C 17.734375 -22.894531 17.023438 -22.15625 16.609375 -21.28125 C 16.203125 -20.414062 15.910156 -19.675781 15.734375 -19.0625 C 15.554688 -18.457031 15.46875 -17.976562 15.46875 -17.625 L 15.46875 0 Z M 3.921875 0 "/></g></g></g><g fill="#1a56db" fill-opacity="1"><g transform="translate(1113.696433, 90.244784)"><g><path d="M 6.203125 -4.140625 C 3.066406 -7.554688 1.5 -11.742188 1.5 -16.703125 C 1.5 -21.671875 3.066406 -25.875 6.203125 -29.3125 C 9.335938 -32.757812 13.320312 -34.484375 18.15625 -34.484375 C 22.59375 -34.484375 26.25 -33.085938 29.125 -30.296875 L 29.125 -33.5 L 40.6875 -33.5 L 40.6875 0 L 29.25 0 L 29.25 -3.78125 L 29.125 -3.78125 C 26.25 -0.601562 22.59375 0.984375 18.15625 0.984375 C 13.320312 0.984375 9.335938 -0.722656 6.203125 -4.140625 Z M 16.03125 -22.390625 C 14.53125 -20.910156 13.78125 -19.015625 13.78125 -16.703125 C 13.78125 -14.398438 14.5 -12.519531 15.9375 -11.0625 C 17.375 -9.601562 19.265625 -8.875 21.609375 -8.875 C 23.878906 -8.875 25.742188 -9.613281 27.203125 -11.09375 C 28.660156 -12.582031 29.390625 -14.457031 29.390625 -16.71875 C 29.390625 -19.019531 28.632812 -20.910156 27.125 -22.390625 C 25.625 -23.867188 23.785156 -24.609375 21.609375 -24.609375 C 19.390625 -24.609375 17.53125 -23.867188 16.03125 -22.390625 Z M 16.03125 -22.390625 "/></g></g></g><g fill="#1a56db" fill-opacity="1"><g transform="translate(1151.042238, 90.244784)"><g><path d="M 5.875 -33.5 L 5.875 -45.96875 L 17.4375 -45.96875 L 17.4375 -33.5 L 24.484375 -33.5 L 24.484375 -24.6875 L 17.4375 -24.6875 L 17.4375 -14.03125 C 17.4375 -10.945312 18.304688 -9.40625 20.046875 -9.40625 C 20.484375 -9.40625 20.941406 -9.488281 21.421875 -9.65625 C 21.898438 -9.832031 22.269531 -10.007812 22.53125 -10.1875 L 22.921875 -10.453125 L 25.796875 -1.109375 C 23.316406 0.285156 20.484375 0.984375 17.296875 0.984375 C 15.117188 0.984375 13.25 0.601562 11.6875 -0.15625 C 10.125 -0.925781 8.9375 -1.953125 8.125 -3.234375 C 7.320312 -4.515625 6.742188 -5.863281 6.390625 -7.28125 C 6.046875 -8.695312 5.875 -10.207031 5.875 -11.8125 L 5.875 -24.6875 L 1.046875 -24.6875 L 1.046875 -33.5 Z M 5.875 -33.5 "/></g></g></g><g fill="#1a56db" fill-opacity="1"><g transform="translate(1170.040973, 90.244784)"><g><path d="M 7.078125 -3.984375 C 3.359375 -7.296875 1.5 -11.539062 1.5 -16.71875 C 1.5 -21.894531 3.4375 -26.148438 7.3125 -29.484375 C 11.1875 -32.816406 15.972656 -34.484375 21.671875 -34.484375 C 27.296875 -34.484375 32.03125 -32.804688 35.875 -29.453125 C 39.726562 -26.097656 41.65625 -21.851562 41.65625 -16.71875 C 41.65625 -11.582031 39.769531 -7.347656 36 -4.015625 C 32.238281 -0.679688 27.460938 0.984375 21.671875 0.984375 C 15.671875 0.984375 10.804688 -0.671875 7.078125 -3.984375 Z M 16.03125 -22.390625 C 14.53125 -20.910156 13.78125 -19.015625 13.78125 -16.703125 C 13.78125 -14.398438 14.5 -12.519531 15.9375 -11.0625 C 17.375 -9.601562 19.265625 -8.875 21.609375 -8.875 C 23.878906 -8.875 25.742188 -9.613281 27.203125 -11.09375 C 28.660156 -12.582031 29.390625 -14.457031 29.390625 -16.71875 C 29.390625 -19.019531 28.632812 -20.910156 27.125 -22.390625 C 25.625 -23.867188 23.785156 -24.609375 21.609375 -24.609375 C 19.390625 -24.609375 17.53125 -23.867188 16.03125 -22.390625 Z M 16.03125 -22.390625 "/></g></g></g><g fill="#1a56db" fill-opacity="1"><g transform="translate(1206.27692, 90.244784)"><g><path d="M 3.921875 0 L 3.921875 -33.5 L 15.46875 -33.5 L 15.46875 -28.671875 L 15.609375 -28.671875 C 15.691406 -28.835938 15.832031 -29.050781 16.03125 -29.3125 C 16.226562 -29.570312 16.648438 -30.03125 17.296875 -30.6875 C 17.953125 -31.34375 18.648438 -31.929688 19.390625 -32.453125 C 20.128906 -32.972656 21.085938 -33.441406 22.265625 -33.859375 C 23.441406 -34.273438 24.640625 -34.484375 25.859375 -34.484375 C 27.117188 -34.484375 28.359375 -34.304688 29.578125 -33.953125 C 30.796875 -33.609375 31.6875 -33.257812 32.25 -32.90625 L 33.171875 -32.390625 L 28.34375 -22.59375 C 26.90625 -23.8125 24.898438 -24.421875 22.328125 -24.421875 C 20.929688 -24.421875 19.734375 -24.113281 18.734375 -23.5 C 17.734375 -22.894531 17.023438 -22.15625 16.609375 -21.28125 C 16.203125 -20.414062 15.910156 -19.675781 15.734375 -19.0625 C 15.554688 -18.457031 15.46875 -17.976562 15.46875 -17.625 L 15.46875 0 Z M 3.921875 0 "/></g></g></g><path stroke-linecap="butt" transform="matrix(0, 0.747263, -0.747263, 0, 225.781825, 22.401575)" fill="none" stroke-linejoin="miter" d="M 0.00102846 1.99764 L 113.305181 1.99764 " stroke="#1a56db" stroke-width="4" stroke-opacity="1" stroke-miterlimit="4"/></svg>