<svg xmlns="http://www.w3.org/2000/svg" xmlns:xlink="http://www.w3.org/1999/xlink" width="1162" zoomAndPan="magnify" viewBox="0 0 871.5 136.499996" height="182" preserveAspectRatio="xMidYMid meet" version="1.0"><defs><g/><clipPath id="d52ef655cc"><path d="M 1.339844 22 L 196 22 L 196 108 L 1.339844 108 Z M 1.339844 22 " clip-rule="nonzero"/></clipPath><clipPath id="f3819ebbcb"><path d="M 0.339844 24 L 67 24 L 67 71.496094 L 0.339844 71.496094 Z M 0.339844 24 " clip-rule="nonzero"/></clipPath><clipPath id="023451b73b"><path d="M 69 24 L 95.78125 24 L 95.78125 71.496094 L 69 71.496094 Z M 69 24 " clip-rule="nonzero"/></clipPath><clipPath id="725d1a1f74"><path d="M 45 0.398438 L 91 0.398438 L 91 21 L 45 21 Z M 45 0.398438 " clip-rule="nonzero"/></clipPath><clipPath id="2b71f1f6a8"><path d="M 98 4 L 194.511719 4 L 194.511719 85.128906 L 98 85.128906 Z M 98 4 " clip-rule="nonzero"/></clipPath><clipPath id="7fdd34b94a"><path d="M 44 20 L 96.511719 20 L 96.511719 68 L 44 68 Z M 44 20 " clip-rule="nonzero"/></clipPath><clipPath id="b7812a037e"><rect x="0" width="97" y="0" height="82"/></clipPath><clipPath id="351ae72650"><rect x="0" width="195" y="0" height="86"/></clipPath></defs><g clip-path="url(#d52ef655cc)"><g transform="matrix(1, 0, 0, 1, 1, 22)"><g clip-path="url(#351ae72650)"><g clip-path="url(#f3819ebbcb)"><path fill="#1a56db" d="M 2.277344 24.402344 C 2.15625 24.402344 2.046875 24.429688 1.945312 24.488281 C 1.84375 24.546875 1.761719 24.625 1.703125 24.726562 C 1.640625 24.828125 1.609375 24.933594 1.605469 25.050781 C 1.601562 25.167969 1.628906 25.28125 1.683594 25.382812 L 3.699219 29.167969 C 4.019531 29.769531 4.183594 30.414062 4.183594 31.101562 C 4.183594 31.785156 4.019531 32.429688 3.699219 33.035156 L 0.417969 39.195312 C 0.308594 39.402344 0.308594 39.609375 0.417969 39.820312 L 3.703125 45.988281 C 4.023438 46.59375 4.183594 47.234375 4.183594 47.917969 C 4.183594 48.601562 4.023438 49.246094 3.703125 49.847656 L 0.417969 56.015625 C 0.308594 56.226562 0.308594 56.4375 0.417969 56.644531 L 3.703125 62.816406 C 4.023438 63.417969 4.183594 64.0625 4.183594 64.746094 C 4.183594 65.429688 4.023438 66.070312 3.703125 66.675781 L 1.6875 70.460938 C 1.632812 70.5625 1.609375 70.671875 1.613281 70.789062 C 1.613281 70.90625 1.644531 71.011719 1.707031 71.113281 C 1.765625 71.214844 1.847656 71.292969 1.949219 71.351562 C 2.050781 71.40625 2.160156 71.4375 2.277344 71.4375 L 66.4375 71.4375 L 66.4375 24.402344 Z M 32.363281 60.292969 C 32.046875 60.605469 31.707031 60.886719 31.335938 61.132812 C 30.96875 61.378906 30.578125 61.585938 30.167969 61.757812 C 29.757812 61.925781 29.335938 62.054688 28.898438 62.140625 C 28.464844 62.230469 28.023438 62.273438 27.578125 62.273438 C 27.136719 62.273438 26.695312 62.230469 26.257812 62.140625 C 25.824219 62.054688 25.402344 61.925781 24.992188 61.757812 C 24.582031 61.585938 24.191406 61.378906 23.820312 61.132812 C 23.453125 60.886719 23.109375 60.605469 22.796875 60.289062 C 22.480469 59.976562 22.203125 59.632812 21.953125 59.265625 C 21.707031 58.894531 21.5 58.507812 21.328125 58.09375 C 21.160156 57.683594 21.03125 57.261719 20.945312 56.828125 C 20.859375 56.390625 20.816406 55.949219 20.816406 55.507812 C 20.816406 55.0625 20.859375 54.621094 20.945312 54.1875 C 21.03125 53.75 21.160156 53.328125 21.328125 52.917969 C 21.5 52.507812 21.707031 52.117188 21.953125 51.75 C 22.203125 51.378906 22.480469 51.039062 22.796875 50.722656 C 23.109375 50.410156 23.453125 50.128906 23.820312 49.882812 C 24.191406 49.636719 24.582031 49.425781 24.992188 49.257812 C 25.402344 49.085938 25.824219 48.957031 26.257812 48.871094 C 26.695312 48.785156 27.136719 48.742188 27.578125 48.742188 C 28.023438 48.742188 28.464844 48.785156 28.898438 48.871094 C 29.335938 48.957031 29.757812 49.085938 30.167969 49.257812 C 30.578125 49.425781 30.96875 49.632812 31.335938 49.878906 C 31.707031 50.128906 32.046875 50.40625 32.363281 50.722656 C 32.679688 51.035156 32.960938 51.375 33.210938 51.742188 C 33.460938 52.109375 33.671875 52.5 33.84375 52.910156 C 34.015625 53.320312 34.144531 53.742188 34.234375 54.179688 C 34.320312 54.613281 34.363281 55.054688 34.367188 55.5 C 34.367188 55.945312 34.324219 56.382812 34.238281 56.820312 C 34.148438 57.257812 34.023438 57.679688 33.851562 58.089844 C 33.679688 58.5 33.472656 58.890625 33.222656 59.261719 C 32.976562 59.628906 32.695312 59.96875 32.378906 60.285156 Z M 47.269531 60.042969 C 47.109375 60.203125 46.921875 60.328125 46.710938 60.414062 C 46.5 60.503906 46.28125 60.546875 46.054688 60.546875 C 45.824219 60.546875 45.605469 60.503906 45.394531 60.414062 C 45.183594 60.328125 45 60.203125 44.839844 60.042969 L 23.058594 38.238281 C 22.90625 38.074219 22.792969 37.890625 22.710938 37.683594 C 22.632812 37.472656 22.597656 37.257812 22.601562 37.039062 C 22.605469 36.816406 22.648438 36.601562 22.738281 36.398438 C 22.824219 36.191406 22.945312 36.011719 23.101562 35.855469 C 23.261719 35.699219 23.441406 35.574219 23.644531 35.488281 C 23.847656 35.402344 24.0625 35.355469 24.285156 35.351562 C 24.507812 35.347656 24.722656 35.382812 24.929688 35.460938 C 25.136719 35.542969 25.324219 35.65625 25.484375 35.808594 L 47.285156 57.601562 C 47.445312 57.761719 47.570312 57.949219 47.65625 58.160156 C 47.746094 58.371094 47.789062 58.589844 47.789062 58.816406 C 47.789062 59.046875 47.746094 59.265625 47.65625 59.476562 C 47.570312 59.6875 47.445312 59.871094 47.285156 60.035156 Z M 47.519531 45.136719 C 47.152344 45.503906 46.746094 45.824219 46.308594 46.097656 C 45.867188 46.371094 45.398438 46.59375 44.910156 46.757812 C 44.417969 46.925781 43.914062 47.035156 43.398438 47.085938 C 42.878906 47.136719 42.363281 47.128906 41.851562 47.0625 C 41.335938 46.992188 40.835938 46.867188 40.347656 46.6875 C 39.863281 46.503906 39.40625 46.269531 38.972656 45.980469 C 38.542969 45.691406 38.148438 45.359375 37.792969 44.980469 C 37.4375 44.601562 37.132812 44.1875 36.871094 43.738281 C 36.613281 43.285156 36.40625 42.8125 36.257812 42.316406 C 36.105469 41.820312 36.011719 41.3125 35.980469 40.796875 C 35.945312 40.277344 35.96875 39.761719 36.054688 39.25 C 36.140625 38.738281 36.28125 38.242188 36.480469 37.761719 C 36.679688 37.285156 36.929688 36.832031 37.230469 36.410156 C 37.53125 35.988281 37.878906 35.605469 38.269531 35.265625 C 38.660156 34.921875 39.082031 34.628906 39.542969 34.382812 C 40 34.140625 40.476562 33.949219 40.980469 33.816406 C 41.480469 33.679688 41.992188 33.605469 42.507812 33.585938 C 43.027344 33.570312 43.542969 33.613281 44.050781 33.714844 C 44.558594 33.816406 45.050781 33.972656 45.523438 34.1875 C 45.996094 34.402344 46.4375 34.664062 46.851562 34.980469 C 47.261719 35.296875 47.632812 35.65625 47.960938 36.058594 C 48.292969 36.457031 48.570312 36.890625 48.800781 37.355469 C 49.03125 37.824219 49.203125 38.308594 49.324219 38.8125 C 49.441406 39.320312 49.5 39.832031 49.5 40.351562 C 49.503906 41.246094 49.332031 42.105469 48.992188 42.933594 C 48.652344 43.761719 48.164062 44.492188 47.535156 45.128906 Z M 47.519531 45.136719 " fill-opacity="1" fill-rule="nonzero"/></g><g clip-path="url(#023451b73b)"><path fill="#1a56db" d="M 85.535156 37.496094 C 84.597656 38.570312 83.820312 39.75 83.199219 41.03125 C 82.582031 42.316406 82.144531 43.660156 81.886719 45.058594 C 81.628906 46.460938 81.5625 47.871094 81.683594 49.292969 C 81.808594 50.710938 82.117188 52.089844 82.613281 53.425781 C 83.105469 54.761719 83.769531 56.011719 84.601562 57.167969 C 85.433594 58.324219 86.402344 59.351562 87.511719 60.25 C 88.617188 61.144531 89.824219 61.878906 91.128906 62.449219 C 92.4375 63.019531 93.792969 63.40625 95.203125 63.613281 C 95.367188 63.640625 95.503906 63.714844 95.609375 63.84375 C 95.714844 63.96875 95.769531 64.113281 95.769531 64.28125 L 95.769531 70.769531 C 95.769531 70.957031 95.703125 71.117188 95.570312 71.25 C 95.4375 71.382812 95.277344 71.449219 95.089844 71.449219 L 69.878906 71.449219 L 69.878906 24.402344 L 95.082031 24.402344 C 95.269531 24.402344 95.429688 24.46875 95.5625 24.601562 C 95.695312 24.734375 95.761719 24.894531 95.761719 25.082031 L 95.761719 31.558594 C 95.761719 31.726562 95.710938 31.871094 95.601562 32 C 95.496094 32.125 95.363281 32.203125 95.199219 32.230469 C 93.324219 32.5 91.554688 33.089844 89.894531 33.996094 C 88.230469 34.902344 86.777344 36.070312 85.535156 37.496094 Z M 85.535156 37.496094 " fill-opacity="1" fill-rule="nonzero"/></g><path fill="#1a56db" d="M 46.078125 40.339844 C 46.078125 40.597656 46.046875 40.847656 45.988281 41.097656 C 45.929688 41.347656 45.847656 41.585938 45.734375 41.8125 C 45.621094 42.042969 45.484375 42.253906 45.320312 42.453125 C 45.160156 42.648438 44.976562 42.824219 44.773438 42.980469 C 44.574219 43.136719 44.355469 43.265625 44.121094 43.371094 C 43.890625 43.476562 43.648438 43.554688 43.398438 43.605469 C 43.148438 43.65625 42.894531 43.675781 42.640625 43.667969 C 42.386719 43.660156 42.136719 43.621094 41.886719 43.554688 C 41.640625 43.488281 41.40625 43.394531 41.179688 43.277344 C 40.957031 43.15625 40.746094 43.011719 40.554688 42.84375 C 40.363281 42.675781 40.195312 42.488281 40.046875 42.28125 C 39.898438 42.074219 39.773438 41.851562 39.675781 41.613281 C 39.578125 41.378906 39.507812 41.136719 39.46875 40.882812 C 39.425781 40.632812 39.414062 40.378906 39.429688 40.125 C 39.445312 39.871094 39.492188 39.621094 39.566406 39.375 C 39.640625 39.132812 39.742188 38.898438 39.867188 38.679688 C 39.996094 38.457031 40.148438 38.253906 40.320312 38.066406 C 40.496094 37.882812 40.691406 37.71875 40.902344 37.574219 C 41.113281 37.433594 41.339844 37.316406 41.578125 37.226562 C 41.816406 37.136719 42.0625 37.078125 42.316406 37.042969 C 42.570312 37.011719 42.824219 37.007812 43.078125 37.03125 C 43.332031 37.054688 43.578125 37.109375 43.820312 37.191406 C 44.0625 37.273438 44.289062 37.382812 44.507812 37.519531 C 44.722656 37.652344 44.921875 37.808594 45.101562 37.992188 C 45.753906 38.640625 46.078125 39.421875 46.078125 40.339844 Z M 46.078125 40.339844 " fill-opacity="1" fill-rule="nonzero"/><path fill="#1a56db" d="M 30.921875 55.496094 C 30.921875 55.75 30.890625 56.003906 30.832031 56.25 C 30.777344 56.5 30.691406 56.738281 30.578125 56.964844 C 30.464844 57.195312 30.328125 57.40625 30.167969 57.601562 C 30.003906 57.800781 29.824219 57.976562 29.621094 58.128906 C 29.417969 58.285156 29.203125 58.414062 28.96875 58.519531 C 28.738281 58.625 28.496094 58.703125 28.246094 58.75 C 27.996094 58.800781 27.746094 58.820312 27.492188 58.8125 C 27.234375 58.804688 26.984375 58.769531 26.738281 58.703125 C 26.496094 58.636719 26.257812 58.542969 26.035156 58.421875 C 25.808594 58.304688 25.601562 58.160156 25.410156 57.992188 C 25.21875 57.824219 25.050781 57.636719 24.902344 57.429688 C 24.753906 57.222656 24.628906 57 24.53125 56.765625 C 24.433594 56.53125 24.367188 56.285156 24.324219 56.035156 C 24.28125 55.785156 24.269531 55.53125 24.289062 55.277344 C 24.304688 55.023438 24.347656 54.773438 24.421875 54.53125 C 24.496094 54.289062 24.597656 54.054688 24.726562 53.835938 C 24.851562 53.613281 25.003906 53.410156 25.175781 53.226562 C 25.351562 53.039062 25.542969 52.875 25.753906 52.734375 C 25.96875 52.59375 26.191406 52.476562 26.429688 52.386719 C 26.667969 52.296875 26.914062 52.238281 27.167969 52.203125 C 27.417969 52.167969 27.671875 52.164062 27.925781 52.191406 C 28.179688 52.214844 28.425781 52.269531 28.667969 52.351562 C 28.90625 52.433594 29.136719 52.539062 29.351562 52.675781 C 29.570312 52.808594 29.765625 52.964844 29.949219 53.144531 C 30.597656 53.792969 30.921875 54.578125 30.921875 55.496094 Z M 30.921875 55.496094 " fill-opacity="1" fill-rule="nonzero"/><g clip-path="url(#725d1a1f74)"><path fill="#1a56db" d="M 87.464844 3.378906 C 87.003906 2.917969 86.503906 2.503906 85.960938 2.144531 C 85.417969 1.78125 84.847656 1.476562 84.246094 1.226562 C 83.640625 0.976562 83.019531 0.789062 82.382812 0.660156 C 81.742188 0.53125 81.097656 0.46875 80.445312 0.46875 C 79.792969 0.46875 79.148438 0.53125 78.507812 0.660156 C 77.867188 0.789062 77.246094 0.976562 76.644531 1.226562 C 76.042969 1.476562 75.46875 1.78125 74.929688 2.144531 C 74.386719 2.503906 73.882812 2.917969 73.421875 3.378906 C 71.390625 5.410156 69.46875 11.050781 68.160156 15.675781 C 66.847656 11.050781 64.933594 5.410156 62.894531 3.378906 C 62.433594 2.910156 61.933594 2.492188 61.390625 2.125 C 60.847656 1.757812 60.273438 1.449219 59.671875 1.195312 C 59.066406 0.941406 58.445312 0.75 57.804688 0.617188 C 57.160156 0.488281 56.511719 0.421875 55.859375 0.417969 C 55.203125 0.414062 54.554688 0.476562 53.910156 0.605469 C 53.269531 0.730469 52.644531 0.917969 52.039062 1.167969 C 51.433594 1.417969 50.859375 1.722656 50.3125 2.085938 C 49.769531 2.449219 49.265625 2.863281 48.800781 3.324219 C 48.339844 3.789062 47.925781 4.292969 47.5625 4.835938 C 47.199219 5.382812 46.890625 5.957031 46.640625 6.5625 C 46.390625 7.167969 46.203125 7.792969 46.078125 8.433594 C 45.953125 9.078125 45.890625 9.726562 45.894531 10.382812 C 45.894531 11.035156 45.960938 11.683594 46.09375 12.328125 C 46.222656 12.96875 46.414062 13.589844 46.667969 14.195312 C 46.921875 14.796875 47.234375 15.371094 47.601562 15.914062 C 47.96875 16.457031 48.382812 16.957031 48.851562 17.417969 C 50.117188 18.683594 52.78125 19.902344 55.726562 20.964844 L 80.59375 20.964844 C 83.539062 19.902344 86.199219 18.683594 87.46875 17.417969 C 87.929688 16.957031 88.34375 16.453125 88.703125 15.914062 C 89.066406 15.371094 89.371094 14.796875 89.621094 14.195312 C 89.871094 13.59375 90.058594 12.972656 90.1875 12.332031 C 90.3125 11.695312 90.378906 11.050781 90.378906 10.398438 C 90.378906 9.746094 90.3125 9.101562 90.1875 8.460938 C 90.058594 7.820312 89.871094 7.199219 89.621094 6.597656 C 89.371094 5.996094 89.066406 5.421875 88.703125 4.882812 C 88.34375 4.339844 87.929688 3.839844 87.46875 3.378906 Z M 51.273438 14.988281 C 50.972656 14.683594 50.703125 14.355469 50.46875 14.003906 C 50.230469 13.648438 50.03125 13.273438 49.871094 12.882812 C 49.707031 12.488281 49.582031 12.082031 49.5 11.664062 C 49.417969 11.246094 49.375 10.824219 49.375 10.398438 C 49.375 9.972656 49.417969 9.550781 49.5 9.132812 C 49.585938 8.714844 49.707031 8.308594 49.871094 7.914062 C 50.035156 7.519531 50.234375 7.148438 50.46875 6.792969 C 50.707031 6.4375 50.976562 6.109375 51.277344 5.808594 C 51.578125 5.507812 51.90625 5.238281 52.261719 5.003906 C 52.613281 4.765625 52.988281 4.566406 53.382812 4.402344 C 53.777344 4.242188 54.179688 4.117188 54.597656 4.035156 C 55.015625 3.949219 55.4375 3.910156 55.863281 3.910156 C 56.292969 3.910156 56.714844 3.949219 57.132812 4.035156 C 57.546875 4.117188 57.953125 4.238281 58.347656 4.402344 C 58.742188 4.566406 59.117188 4.765625 59.46875 5 C 59.824219 5.238281 60.152344 5.507812 60.453125 5.808594 C 62.222656 7.578125 64.460938 14.835938 65.839844 20.375 C 60.300781 18.996094 53.054688 16.757812 51.273438 14.988281 Z M 86.4375 12.878906 C 86.105469 13.675781 85.636719 14.378906 85.023438 14.988281 C 83.253906 16.757812 76 18.996094 70.457031 20.375 C 71.835938 14.828125 74.074219 7.578125 75.847656 5.808594 C 76.378906 5.277344 76.984375 4.855469 77.664062 4.535156 C 78.339844 4.214844 79.054688 4.019531 79.800781 3.945312 C 80.546875 3.875 81.285156 3.929688 82.011719 4.109375 C 82.738281 4.292969 83.414062 4.59375 84.039062 5.011719 C 84.660156 5.425781 85.195312 5.9375 85.644531 6.539062 C 86.089844 7.140625 86.421875 7.800781 86.640625 8.515625 C 86.859375 9.234375 86.953125 9.96875 86.917969 10.714844 C 86.882812 11.464844 86.722656 12.1875 86.4375 12.878906 Z M 86.4375 12.878906 " fill-opacity="1" fill-rule="nonzero"/></g><g clip-path="url(#2b71f1f6a8)"><g transform="matrix(1, 0, 0, 1, 98, 4)"><g clip-path="url(#b7812a037e)"><g fill="#1a56db" fill-opacity="1"><g transform="translate(0.478713, 67.641445)"><g><path d="M 29.453125 0 L 1.890625 0 L 1.890625 -47.171875 L 27.703125 -47.171875 C 31.203125 -47.171875 34.273438 -46.734375 36.921875 -45.859375 C 39.578125 -44.984375 41.65625 -43.664062 43.15625 -41.90625 C 44.664062 -40.15625 45.421875 -37.957031 45.421875 -35.3125 C 45.421875 -31.988281 44.195312 -29.382812 41.75 -27.5 C 39.300781 -25.613281 35.832031 -24.671875 31.34375 -24.671875 L 31.34375 -23.59375 C 36.414062 -23.59375 40.320312 -22.722656 43.0625 -20.984375 C 45.800781 -19.253906 47.171875 -16.570312 47.171875 -12.9375 C 47.171875 -8.894531 45.578125 -5.726562 42.390625 -3.4375 C 39.203125 -1.144531 34.890625 0 29.453125 0 Z M 17.1875 -29.65625 L 17.1875 -25.46875 L 26.078125 -25.46875 C 27.242188 -25.46875 28.164062 -25.632812 28.84375 -25.96875 C 29.519531 -26.3125 29.859375 -26.84375 29.859375 -27.5625 C 29.859375 -28.28125 29.484375 -28.804688 28.734375 -29.140625 C 27.992188 -29.484375 27.039062 -29.65625 25.875 -29.65625 Z M 17.1875 -22.234375 L 17.1875 -17.65625 L 26.6875 -17.65625 C 29.289062 -17.65625 30.59375 -18.421875 30.59375 -19.953125 C 30.59375 -21.472656 29.289062 -22.234375 26.6875 -22.234375 Z M 17.1875 -22.234375 "/></g></g></g><g clip-path="url(#7fdd34b94a)"><g fill="#1a56db" fill-opacity="1"><g transform="translate(45.69888, 67.641445)"><g><path d="M 34.375 0 L 15.296875 0 L -0.8125 -47.171875 L 20.078125 -47.171875 L 24.328125 -21.03125 L 25.40625 -21.03125 L 29.453125 -47.171875 L 50.40625 -47.171875 Z M 34.375 0 "/></g></g></g></g></g></g></g></g></g></g><g fill="#1a56db" fill-opacity="1"><g transform="translate(251.971069, 90.244784)"><g><path d="M 32.578125 -11.09375 C 34.453125 -11.09375 36.269531 -11.375 38.03125 -11.9375 C 39.800781 -12.507812 41.097656 -13.054688 41.921875 -13.578125 L 43.15625 -14.4375 L 48.390625 -3.984375 C 48.210938 -3.847656 47.96875 -3.671875 47.65625 -3.453125 C 47.351562 -3.242188 46.644531 -2.84375 45.53125 -2.25 C 44.425781 -1.664062 43.242188 -1.15625 41.984375 -0.71875 C 40.722656 -0.28125 39.066406 0.109375 37.015625 0.453125 C 34.972656 0.804688 32.863281 0.984375 30.6875 0.984375 C 25.6875 0.984375 20.941406 -0.242188 16.453125 -2.703125 C 11.972656 -5.171875 8.359375 -8.554688 5.609375 -12.859375 C 2.867188 -17.171875 1.5 -21.832031 1.5 -26.84375 C 1.5 -30.625 2.300781 -34.253906 3.90625 -37.734375 C 5.519531 -41.222656 7.664062 -44.207031 10.34375 -46.6875 C 13.019531 -49.164062 16.144531 -51.144531 19.71875 -52.625 C 23.289062 -54.101562 26.945312 -54.84375 30.6875 -54.84375 C 34.164062 -54.84375 37.375 -54.429688 40.3125 -53.609375 C 43.257812 -52.785156 45.34375 -51.957031 46.5625 -51.125 L 48.390625 -49.890625 L 43.15625 -39.4375 C 42.851562 -39.695312 42.394531 -40.007812 41.78125 -40.375 C 41.175781 -40.75 39.957031 -41.238281 38.125 -41.84375 C 36.300781 -42.457031 34.453125 -42.765625 32.578125 -42.765625 C 29.617188 -42.765625 26.960938 -42.285156 24.609375 -41.328125 C 22.265625 -40.367188 20.40625 -39.101562 19.03125 -37.53125 C 17.664062 -35.96875 16.625 -34.285156 15.90625 -32.484375 C 15.1875 -30.679688 14.828125 -28.84375 14.828125 -26.96875 C 14.828125 -22.875 16.359375 -19.203125 19.421875 -15.953125 C 22.492188 -12.710938 26.878906 -11.09375 32.578125 -11.09375 Z M 32.578125 -11.09375 "/></g></g></g><g fill="#1a56db" fill-opacity="1"><g transform="translate(294.344421, 90.244784)"><g><path d="M 6.203125 -4.140625 C 3.066406 -7.554688 1.5 -11.742188 1.5 -16.703125 C 1.5 -21.671875 3.066406 -25.875 6.203125 -29.3125 C 9.335938 -32.757812 13.320312 -34.484375 18.15625 -34.484375 C 22.59375 -34.484375 26.25 -33.085938 29.125 -30.296875 L 29.125 -33.5 L 40.6875 -33.5 L 40.6875 0 L 29.25 0 L 29.25 -3.78125 L 29.125 -3.78125 C 26.25 -0.601562 22.59375 0.984375 18.15625 0.984375 C 13.320312 0.984375 9.335938 -0.722656 6.203125 -4.140625 Z M 16.03125 -22.390625 C 14.53125 -20.910156 13.78125 -19.015625 13.78125 -16.703125 C 13.78125 -14.398438 14.5 -12.519531 15.9375 -11.0625 C 17.375 -9.601562 19.265625 -8.875 21.609375 -8.875 C 23.878906 -8.875 25.742188 -9.613281 27.203125 -11.09375 C 28.660156 -12.582031 29.390625 -14.457031 29.390625 -16.71875 C 29.390625 -19.019531 28.632812 -20.910156 27.125 -22.390625 C 25.625 -23.867188 23.785156 -24.609375 21.609375 -24.609375 C 19.390625 -24.609375 17.53125 -23.867188 16.03125 -22.390625 Z M 16.03125 -22.390625 "/></g></g></g><g fill="#1a56db" fill-opacity="1"><g transform="translate(332.147333, 90.244784)"><g><path d="M 3.921875 0 L 3.921875 -33.5 L 15.46875 -33.5 L 15.46875 -28.671875 L 15.609375 -28.671875 C 15.691406 -28.835938 15.832031 -29.050781 16.03125 -29.3125 C 16.226562 -29.570312 16.648438 -30.03125 17.296875 -30.6875 C 17.953125 -31.34375 18.648438 -31.929688 19.390625 -32.453125 C 20.128906 -32.972656 21.085938 -33.441406 22.265625 -33.859375 C 23.441406 -34.273438 24.640625 -34.484375 25.859375 -34.484375 C 27.117188 -34.484375 28.359375 -34.304688 29.578125 -33.953125 C 30.796875 -33.609375 31.6875 -33.257812 32.25 -32.90625 L 33.171875 -32.390625 L 28.34375 -22.59375 C 26.90625 -23.8125 24.898438 -24.421875 22.328125 -24.421875 C 20.929688 -24.421875 19.734375 -24.113281 18.734375 -23.5 C 17.734375 -22.894531 17.023438 -22.15625 16.609375 -21.28125 C 16.203125 -20.414062 15.910156 -19.675781 15.734375 -19.0625 C 15.554688 -18.457031 15.46875 -17.976562 15.46875 -17.625 L 15.46875 0 Z M 3.921875 0 "/></g></g></g><g fill="#1a56db" fill-opacity="1"><g transform="translate(357.871216, 90.244784)"><g><path d="M 5.875 -33.5 L 5.875 -45.96875 L 17.4375 -45.96875 L 17.4375 -33.5 L 24.484375 -33.5 L 24.484375 -24.6875 L 17.4375 -24.6875 L 17.4375 -14.03125 C 17.4375 -10.945312 18.304688 -9.40625 20.046875 -9.40625 C 20.484375 -9.40625 20.941406 -9.488281 21.421875 -9.65625 C 21.898438 -9.832031 22.269531 -10.007812 22.53125 -10.1875 L 22.921875 -10.453125 L 25.796875 -1.109375 C 23.316406 0.285156 20.484375 0.984375 17.296875 0.984375 C 15.117188 0.984375 13.25 0.601562 11.6875 -0.15625 C 10.125 -0.925781 8.9375 -1.953125 8.125 -3.234375 C 7.320312 -4.515625 6.742188 -5.863281 6.390625 -7.28125 C 6.046875 -8.695312 5.875 -10.207031 5.875 -11.8125 L 5.875 -24.6875 L 1.046875 -24.6875 L 1.046875 -33.5 Z M 5.875 -33.5 "/></g></g></g><g fill="#1a56db" fill-opacity="1"><g transform="translate(376.870019, 90.244784)"><g><path d="M 37.8125 -15.15625 L 13.515625 -15.15625 C 13.515625 -12.800781 14.273438 -11.054688 15.796875 -9.921875 C 17.328125 -8.796875 18.984375 -8.234375 20.765625 -8.234375 C 22.640625 -8.234375 24.117188 -8.484375 25.203125 -8.984375 C 26.296875 -9.484375 27.535156 -10.472656 28.921875 -11.953125 L 37.28125 -7.765625 C 33.800781 -1.929688 28.015625 0.984375 19.921875 0.984375 C 14.867188 0.984375 10.535156 -0.742188 6.921875 -4.203125 C 3.304688 -7.671875 1.5 -11.84375 1.5 -16.71875 C 1.5 -21.59375 3.304688 -25.769531 6.921875 -29.25 C 10.535156 -32.738281 14.867188 -34.484375 19.921875 -34.484375 C 25.222656 -34.484375 29.539062 -32.945312 32.875 -29.875 C 36.207031 -26.800781 37.875 -22.414062 37.875 -16.71875 C 37.875 -15.9375 37.851562 -15.414062 37.8125 -15.15625 Z M 13.84375 -21.546875 L 26.578125 -21.546875 C 26.316406 -23.285156 25.628906 -24.625 24.515625 -25.5625 C 23.410156 -26.5 21.984375 -26.96875 20.234375 -26.96875 C 18.328125 -26.96875 16.804688 -26.46875 15.671875 -25.46875 C 14.535156 -24.46875 13.925781 -23.160156 13.84375 -21.546875 Z M 13.84375 -21.546875 "/></g></g></g><g fill="#1a56db" fill-opacity="1"><g transform="translate(409.318959, 90.244784)"><g><path d="M 3.921875 0 L 3.921875 -33.5 L 15.46875 -33.5 L 15.46875 -28.671875 L 15.609375 -28.671875 C 15.691406 -28.835938 15.832031 -29.050781 16.03125 -29.3125 C 16.226562 -29.570312 16.648438 -30.03125 17.296875 -30.6875 C 17.953125 -31.34375 18.648438 -31.929688 19.390625 -32.453125 C 20.128906 -32.972656 21.085938 -33.441406 22.265625 -33.859375 C 23.441406 -34.273438 24.640625 -34.484375 25.859375 -34.484375 C 27.117188 -34.484375 28.359375 -34.304688 29.578125 -33.953125 C 30.796875 -33.609375 31.6875 -33.257812 32.25 -32.90625 L 33.171875 -32.390625 L 28.34375 -22.59375 C 26.90625 -23.8125 24.898438 -24.421875 22.328125 -24.421875 C 20.929688 -24.421875 19.734375 -24.113281 18.734375 -23.5 C 17.734375 -22.894531 17.023438 -22.15625 16.609375 -21.28125 C 16.203125 -20.414062 15.910156 -19.675781 15.734375 -19.0625 C 15.554688 -18.457031 15.46875 -17.976562 15.46875 -17.625 L 15.46875 0 Z M 3.921875 0 "/></g></g></g><g fill="#1a56db" fill-opacity="1"><g transform="translate(435.042842, 90.244784)"><g/></g></g><g fill="#1a56db" fill-opacity="1"><g transform="translate(446.076028, 90.244784)"><g><path d="M 3.921875 -53.875 L 20.640625 -53.875 C 25.679688 -53.875 29.703125 -52.796875 32.703125 -50.640625 C 35.710938 -48.484375 37.21875 -44.988281 37.21875 -40.15625 C 37.21875 -34.757812 34.976562 -30.90625 30.5 -28.59375 C 38.15625 -27.25 41.984375 -22.722656 41.984375 -15.015625 C 41.984375 -10.492188 40.414062 -6.859375 37.28125 -4.109375 C 34.144531 -1.367188 29.835938 0 24.359375 0 L 3.921875 0 Z M 16.1875 -32.78125 L 17.171875 -32.78125 C 19.910156 -32.78125 21.953125 -33.257812 23.296875 -34.21875 C 24.648438 -35.175781 25.328125 -36.742188 25.328125 -38.921875 C 25.328125 -42.578125 22.609375 -44.40625 17.171875 -44.40625 L 16.1875 -44.40625 Z M 16.1875 -9.46875 L 20.046875 -9.46875 C 26.054688 -9.46875 29.0625 -11.46875 29.0625 -15.46875 C 29.0625 -17.863281 28.304688 -19.582031 26.796875 -20.625 C 25.296875 -21.675781 23.046875 -22.203125 20.046875 -22.203125 L 16.1875 -22.203125 Z M 16.1875 -9.46875 "/></g></g></g><g fill="#1a56db" fill-opacity="1"><g transform="translate(482.768958, 90.244784)"><g><path d="M 6.203125 -4.140625 C 3.066406 -7.554688 1.5 -11.742188 1.5 -16.703125 C 1.5 -21.671875 3.066406 -25.875 6.203125 -29.3125 C 9.335938 -32.757812 13.320312 -34.484375 18.15625 -34.484375 C 22.59375 -34.484375 26.25 -33.085938 29.125 -30.296875 L 29.125 -33.5 L 40.6875 -33.5 L 40.6875 0 L 29.25 0 L 29.25 -3.78125 L 29.125 -3.78125 C 26.25 -0.601562 22.59375 0.984375 18.15625 0.984375 C 13.320312 0.984375 9.335938 -0.722656 6.203125 -4.140625 Z M 16.03125 -22.390625 C 14.53125 -20.910156 13.78125 -19.015625 13.78125 -16.703125 C 13.78125 -14.398438 14.5 -12.519531 15.9375 -11.0625 C 17.375 -9.601562 19.265625 -8.875 21.609375 -8.875 C 23.878906 -8.875 25.742188 -9.613281 27.203125 -11.09375 C 28.660156 -12.582031 29.390625 -14.457031 29.390625 -16.71875 C 29.390625 -19.019531 28.632812 -20.910156 27.125 -22.390625 C 25.625 -23.867188 23.785156 -24.609375 21.609375 -24.609375 C 19.390625 -24.609375 17.53125 -23.867188 16.03125 -22.390625 Z M 16.03125 -22.390625 "/></g></g></g><g fill="#1a56db" fill-opacity="1"><g transform="translate(520.571881, 90.244784)"><g><path d="M 3.921875 0 L 3.921875 -33.5 L 15.46875 -33.5 L 15.46875 -29.96875 L 15.609375 -29.96875 C 18.609375 -32.976562 21.804688 -34.484375 25.203125 -34.484375 C 26.859375 -34.484375 28.5 -34.265625 30.125 -33.828125 C 31.757812 -33.390625 33.328125 -32.710938 34.828125 -31.796875 C 36.335938 -30.878906 37.554688 -29.582031 38.484375 -27.90625 C 39.421875 -26.238281 39.890625 -24.296875 39.890625 -22.078125 L 39.890625 0 L 28.34375 0 L 28.34375 -18.9375 C 28.34375 -20.675781 27.785156 -22.195312 26.671875 -23.5 C 25.566406 -24.8125 24.117188 -25.46875 22.328125 -25.46875 C 20.585938 -25.46875 19.007812 -24.789062 17.59375 -23.4375 C 16.175781 -22.09375 15.46875 -20.59375 15.46875 -18.9375 L 15.46875 0 Z M 3.921875 0 "/></g></g></g><g fill="#1a56db" fill-opacity="1"><g transform="translate(556.938363, 90.244784)"><g><path d="M 42.1875 -33.5 L 26.25 -17.5 L 43.75 0 L 28.859375 0 L 15.46875 -13.390625 L 15.46875 0 L 3.921875 0 L 3.921875 -56.15625 L 15.46875 -56.15625 L 15.46875 -21.8125 L 27.15625 -33.5 Z M 42.1875 -33.5 "/></g></g></g><g fill="#1a56db" fill-opacity="1"><g transform="translate(592.325453, 90.244784)"><g/></g></g><g fill="#1a56db" fill-opacity="1"><g transform="translate(597.80785, 90.244784)"><g><path d="M 20.765625 0 L -1.828125 -53.875 L 12.015625 -53.875 L 25.59375 -18.484375 L 39.171875 -53.875 L 53.015625 -53.875 L 30.421875 0 Z M 20.765625 0 "/></g></g></g><g fill="#1a56db" fill-opacity="1"><g transform="translate(637.634025, 90.244784)"><g><path d="M 7.078125 -3.984375 C 3.359375 -7.296875 1.5 -11.539062 1.5 -16.71875 C 1.5 -21.894531 3.4375 -26.148438 7.3125 -29.484375 C 11.1875 -32.816406 15.972656 -34.484375 21.671875 -34.484375 C 27.296875 -34.484375 32.03125 -32.804688 35.875 -29.453125 C 39.726562 -26.097656 41.65625 -21.851562 41.65625 -16.71875 C 41.65625 -11.582031 39.769531 -7.347656 36 -4.015625 C 32.238281 -0.679688 27.460938 0.984375 21.671875 0.984375 C 15.671875 0.984375 10.804688 -0.671875 7.078125 -3.984375 Z M 16.03125 -22.390625 C 14.53125 -20.910156 13.78125 -19.015625 13.78125 -16.703125 C 13.78125 -14.398438 14.5 -12.519531 15.9375 -11.0625 C 17.375 -9.601562 19.265625 -8.875 21.609375 -8.875 C 23.878906 -8.875 25.742188 -9.613281 27.203125 -11.09375 C 28.660156 -12.582031 29.390625 -14.457031 29.390625 -16.71875 C 29.390625 -19.019531 28.632812 -20.910156 27.125 -22.390625 C 25.625 -23.867188 23.785156 -24.609375 21.609375 -24.609375 C 19.390625 -24.609375 17.53125 -23.867188 16.03125 -22.390625 Z M 16.03125 -22.390625 "/></g></g></g><g fill="#1a56db" fill-opacity="1"><g transform="translate(674.000507, 90.244784)"><g><path d="M 14.828125 -33.5 L 14.828125 -17.5625 C 14.828125 -14.257812 15.328125 -11.910156 16.328125 -10.515625 C 17.328125 -9.117188 19.023438 -8.421875 21.421875 -8.421875 C 23.816406 -8.421875 25.515625 -9.117188 26.515625 -10.515625 C 27.515625 -11.910156 28.015625 -14.257812 28.015625 -17.5625 L 28.015625 -33.5 L 39.5625 -33.5 L 39.5625 -14.75 C 39.5625 -9.1875 38.113281 -5.171875 35.21875 -2.703125 C 32.332031 -0.242188 27.734375 0.984375 21.421875 0.984375 C 15.109375 0.984375 10.503906 -0.242188 7.609375 -2.703125 C 4.710938 -5.171875 3.265625 -9.1875 3.265625 -14.75 L 3.265625 -33.5 Z M 14.828125 -33.5 "/></g></g></g><g fill="#1a56db" fill-opacity="1"><g transform="translate(710.040517, 90.244784)"><g><path d="M 21.75 -25.015625 C 19.570312 -25.015625 17.695312 -24.207031 16.125 -22.59375 C 14.5625 -20.976562 13.78125 -19.039062 13.78125 -16.78125 C 13.78125 -14.476562 14.5625 -12.519531 16.125 -10.90625 C 17.695312 -9.289062 19.570312 -8.484375 21.75 -8.484375 C 22.789062 -8.484375 23.78125 -8.613281 24.71875 -8.875 C 25.65625 -9.132812 26.335938 -9.394531 26.765625 -9.65625 L 27.359375 -10.0625 L 31.28125 -2.03125 C 30.96875 -1.8125 30.539062 -1.535156 30 -1.203125 C 29.457031 -0.878906 28.21875 -0.4375 26.28125 0.125 C 24.34375 0.695312 22.265625 0.984375 20.046875 0.984375 C 15.128906 0.984375 10.804688 -0.742188 7.078125 -4.203125 C 3.359375 -7.671875 1.5 -11.820312 1.5 -16.65625 C 1.5 -21.53125 3.359375 -25.71875 7.078125 -29.21875 C 10.804688 -32.726562 15.128906 -34.484375 20.046875 -34.484375 C 22.265625 -34.484375 24.304688 -34.21875 26.171875 -33.6875 C 28.046875 -33.164062 29.378906 -32.644531 30.171875 -32.125 L 31.28125 -31.34375 L 27.359375 -23.4375 C 25.921875 -24.488281 24.050781 -25.015625 21.75 -25.015625 Z M 21.75 -25.015625 "/></g></g></g><g fill="#1a56db" fill-opacity="1"><g transform="translate(735.307384, 90.244784)"><g><path d="M 3.921875 0 L 3.921875 -56.15625 L 15.46875 -56.15625 L 15.46875 -29.96875 L 15.609375 -29.96875 C 18.609375 -32.976562 21.804688 -34.484375 25.203125 -34.484375 C 26.859375 -34.484375 28.5 -34.265625 30.125 -33.828125 C 31.757812 -33.390625 33.328125 -32.710938 34.828125 -31.796875 C 36.335938 -30.878906 37.554688 -29.582031 38.484375 -27.90625 C 39.421875 -26.238281 39.890625 -24.296875 39.890625 -22.078125 L 39.890625 0 L 28.34375 0 L 28.34375 -18.9375 C 28.34375 -20.675781 27.785156 -22.195312 26.671875 -23.5 C 25.566406 -24.8125 24.117188 -25.46875 22.328125 -25.46875 C 20.585938 -25.46875 19.007812 -24.789062 17.59375 -23.4375 C 16.175781 -22.09375 15.46875 -20.59375 15.46875 -18.9375 L 15.46875 0 Z M 3.921875 0 "/></g></g></g><g fill="#1a56db" fill-opacity="1"><g transform="translate(771.673865, 90.244784)"><g><path d="M 37.8125 -15.15625 L 13.515625 -15.15625 C 13.515625 -12.800781 14.273438 -11.054688 15.796875 -9.921875 C 17.328125 -8.796875 18.984375 -8.234375 20.765625 -8.234375 C 22.640625 -8.234375 24.117188 -8.484375 25.203125 -8.984375 C 26.296875 -9.484375 27.535156 -10.472656 28.921875 -11.953125 L 37.28125 -7.765625 C 33.800781 -1.929688 28.015625 0.984375 19.921875 0.984375 C 14.867188 0.984375 10.535156 -0.742188 6.921875 -4.203125 C 3.304688 -7.671875 1.5 -11.84375 1.5 -16.71875 C 1.5 -21.59375 3.304688 -25.769531 6.921875 -29.25 C 10.535156 -32.738281 14.867188 -34.484375 19.921875 -34.484375 C 25.222656 -34.484375 29.539062 -32.945312 32.875 -29.875 C 36.207031 -26.800781 37.875 -22.414062 37.875 -16.71875 C 37.875 -15.9375 37.851562 -15.414062 37.8125 -15.15625 Z M 13.84375 -21.546875 L 26.578125 -21.546875 C 26.316406 -23.285156 25.628906 -24.625 24.515625 -25.5625 C 23.410156 -26.5 21.984375 -26.96875 20.234375 -26.96875 C 18.328125 -26.96875 16.804688 -26.46875 15.671875 -25.46875 C 14.535156 -24.46875 13.925781 -23.160156 13.84375 -21.546875 Z M 13.84375 -21.546875 "/></g></g></g><g fill="#1a56db" fill-opacity="1"><g transform="translate(804.122782, 90.244784)"><g><path d="M 3.921875 0 L 3.921875 -33.5 L 15.46875 -33.5 L 15.46875 -28.671875 L 15.609375 -28.671875 C 15.691406 -28.835938 15.832031 -29.050781 16.03125 -29.3125 C 16.226562 -29.570312 16.648438 -30.03125 17.296875 -30.6875 C 17.953125 -31.34375 18.648438 -31.929688 19.390625 -32.453125 C 20.128906 -32.972656 21.085938 -33.441406 22.265625 -33.859375 C 23.441406 -34.273438 24.640625 -34.484375 25.859375 -34.484375 C 27.117188 -34.484375 28.359375 -34.304688 29.578125 -33.953125 C 30.796875 -33.609375 31.6875 -33.257812 32.25 -32.90625 L 33.171875 -32.390625 L 28.34375 -22.59375 C 26.90625 -23.8125 24.898438 -24.421875 22.328125 -24.421875 C 20.929688 -24.421875 19.734375 -24.113281 18.734375 -23.5 C 17.734375 -22.894531 17.023438 -22.15625 16.609375 -21.28125 C 16.203125 -20.414062 15.910156 -19.675781 15.734375 -19.0625 C 15.554688 -18.457031 15.46875 -17.976562 15.46875 -17.625 L 15.46875 0 Z M 3.921875 0 "/></g></g></g><path stroke-linecap="butt" transform="matrix(0, 0.747263, -0.747263, 0, 220.57014, 22.401575)" fill="none" stroke-linejoin="miter" d="M 0.00102846 2.001868 L 113.305181 2.001868 " stroke="#1a56db" stroke-width="4" stroke-opacity="1" stroke-miterlimit="4"/></svg>